solid OpenSCAD_Model
  facet normal 0 0 -1
    outer loop
      vertex -0.39999962 -3.6438398 -2.0523996
      vertex -0.39999962 3.1536798 -2.0523996
      vertex 0 3.1536798 -2.0523996
    endloop
  endfacet
  facet normal 0 1 0
    outer loop
      vertex -0.39999962 -3.6438398 -2.0523996
      vertex 0 -3.6438398 -2.0523996
      vertex 0 -3.6438398 -3.0885592
    endloop
  endfacet
  facet normal 0 0 -1
    outer loop
      vertex -0.39999962 -3.6438398 -2.0523996
      vertex 0 3.1536798 -2.0523996
      vertex 0 -3.6438398 -2.0523996
    endloop
  endfacet
  facet normal 0 1 0
    outer loop
      vertex -0.39999962 -3.6438398 -3.0885592
      vertex -0.39999962 -3.6438398 -2.0523996
      vertex 0 -3.6438398 -3.0885592
    endloop
  endfacet
  facet normal 1 0 0
    outer loop
      vertex -0.39999962 -3.6438398 -3.0885592
      vertex -0.39999962 3.1536798 -2.0523996
      vertex -0.39999962 -3.6438398 -2.0523996
    endloop
  endfacet
  facet normal 1 0 0
    outer loop
      vertex -0.39999962 -3.6438398 -3.0885592
      vertex -0.39999962 4 -3.0885592
      vertex -0.39999962 3.1536798 -2.0523996
    endloop
  endfacet
  facet normal 0 0 1
    outer loop
      vertex -0.39999962 -3.6438398 -3.0885592
      vertex 0 -3.6438398 -3.0885592
      vertex -0.39999962 4 -3.0885592
    endloop
  endfacet
  facet normal 0 1 0
    outer loop
      vertex -0.39999962 3.1536798 -2.0523996
      vertex -0.39999962 3.1536798 1.8101597
      vertex 0 3.1536798 -2.0523996
    endloop
  endfacet
  facet normal 1 0 0
    outer loop
      vertex -0.39999962 3.1536798 -2.0523996
      vertex -0.39999962 4 -3.0885592
      vertex -0.39999962 4 1.8101597
    endloop
  endfacet
  facet normal 1 0 0
    outer loop
      vertex -0.39999962 3.1536798 -2.0523996
      vertex -0.39999962 4 1.8101597
      vertex -0.39999962 3.1536798 1.8101597
    endloop
  endfacet
  facet normal 0 0 -1
    outer loop
      vertex -0.39999962 3.1536798 1.8101597
      vertex -0.39999962 4 1.8101597
      vertex 0 4 1.8101597
    endloop
  endfacet
  facet normal 0 1 0
    outer loop
      vertex -0.39999962 3.1536798 1.8101597
      vertex 0 3.1536798 1.8101597
      vertex 0 3.1536798 -2.0523996
    endloop
  endfacet
  facet normal 0 0 -1
    outer loop
      vertex -0.39999962 3.1536798 1.8101597
      vertex 0 4 1.8101597
      vertex 0 3.1536798 1.8101597
    endloop
  endfacet
  facet normal 0 0 1
    outer loop
      vertex -0.39999962 4 -3.0885592
      vertex 0 -3.6438398 -3.0885592
      vertex 0 4 -3.0885592
    endloop
  endfacet
  facet normal 0 -1 0
    outer loop
      vertex -0.39999962 4 -3.0885592
      vertex 0 4 -3.0885592
      vertex 0 4 1.8101597
    endloop
  endfacet
  facet normal 0 -1 0
    outer loop
      vertex -0.39999962 4 -3.0885592
      vertex 0 4 1.8101597
      vertex -0.39999962 4 1.8101597
    endloop
  endfacet
  facet normal 0 0 -1
    outer loop
      vertex -2.3 -5.5 -19.5
      vertex -2.3 -4.621068 -19.5
      vertex 0 -4.5999994 -19.5
    endloop
  endfacet
  facet normal -1 0 0
    outer loop
      vertex -2.3 -5.5 -19.5
      vertex -2.3 -4.621068 19.5
      vertex -2.3 -4.621068 -19.5
    endloop
  endfacet
  facet normal -1 0 0
    outer loop
      vertex -2.3 -5.5 -19.5
      vertex -2.3 -5.5 19.5
      vertex -2.3 -4.621068 19.5
    endloop
  endfacet
  facet normal 0 0 -1
    outer loop
      vertex -2.3 -5.5 -19.5
      vertex 0 -4.5999994 -19.5
      vertex 1.5999994 -5.5 -19.5
    endloop
  endfacet
  facet normal 0 -1 0
    outer loop
      vertex -2.3 -5.5 -19.5
      vertex 1.5999994 -5.5 -19.5
      vertex 1.5999994 -5.5 19.5
    endloop
  endfacet
  facet normal 0 -1 0
    outer loop
      vertex -2.3 -5.5 -19.5
      vertex 1.5999994 -5.5 19.5
      vertex -2.3 -5.5 19.5
    endloop
  endfacet
  facet normal 0 0 1
    outer loop
      vertex -2.3 -5.5 19.5
      vertex 0 -4.5999994 19.5
      vertex -2.3 -4.621068 19.5
    endloop
  endfacet
  facet normal 0 0 1
    outer loop
      vertex -2.3 -5.5 19.5
      vertex 1.5999994 -5.5 19.5
      vertex 0 -4.5999994 19.5
    endloop
  endfacet
  facet normal -1 0 0
    outer loop
      vertex -2.305124 4.615944 -19.5
      vertex -2.305124 4.615944 19.5
      vertex -2.305124 7.5 19.5
    endloop
  endfacet
  facet normal 0 0 -1
    outer loop
      vertex -2.305124 4.615944 -19.5
      vertex -2.305124 7.5 -19.5
      vertex 0 4.5999994 -19.5
    endloop
  endfacet
  facet normal -1 0 0
    outer loop
      vertex -2.305124 4.615944 -19.5
      vertex -2.305124 7.5 19.5
      vertex -2.305124 7.5 -19.5
    endloop
  endfacet
  facet normal 0 0 1
    outer loop
      vertex -2.305124 4.615944 19.5
      vertex 0 4.5999994 19.5
      vertex -2.305124 7.5 19.5
    endloop
  endfacet
  facet normal 0 1 0
    outer loop
      vertex -2.305124 7.5 -19.5
      vertex -2.305124 7.5 19.5
      vertex 1.5999994 7.5 -19.5
    endloop
  endfacet
  facet normal 0 0 -1
    outer loop
      vertex -2.305124 7.5 -19.5
      vertex 1.5999994 7.5 -19.5
      vertex 0 4.5999994 -19.5
    endloop
  endfacet
  facet normal 0 0 1
    outer loop
      vertex -2.305124 7.5 19.5
      vertex 0 4.5999994 19.5
      vertex 1.5999994 7.5 19.5
    endloop
  endfacet
  facet normal 0 1 0
    outer loop
      vertex -2.305124 7.5 19.5
      vertex 1.5999994 7.5 19.5
      vertex 1.5999994 7.5 -19.5
    endloop
  endfacet
  facet normal -1 0 0
    outer loop
      vertex -3 -0.122478485 -8.404695
      vertex -3 0 8.4
      vertex -3 0.122478485 -8.404695
    endloop
  endfacet
  facet normal 0 0 -1
    outer loop
      vertex -3 -0.122478485 -8.404695
      vertex -3 0.122478485 -8.404695
      vertex 0 0.122478485 -8.404695
    endloop
  endfacet
  facet normal 0 0 -1
    outer loop
      vertex -3 -0.122478485 -8.404695
      vertex 0 0.122478485 -8.404695
      vertex 0 -0.122478485 -8.404695
    endloop
  endfacet
  facet normal 0 0 -1
    outer loop
      vertex -3 -0.122478485 11.5953045
      vertex -3 0.122478485 11.5953045
      vertex 0 0.122478485 11.5953045
    endloop
  endfacet
  facet normal -1 0 0
    outer loop
      vertex -3 -0.122478485 11.5953045
      vertex -3 3.921068 19.5
      vertex -3 0.122478485 11.5953045
    endloop
  endfacet
  facet normal 0 0 -1
    outer loop
      vertex -3 -0.122478485 11.5953045
      vertex 0 0.122478485 11.5953045
      vertex 0 -0.122478485 11.5953045
    endloop
  endfacet
  facet normal 0 0.07654853 0.99706584
    outer loop
      vertex -3 -0.24423885 -11.581248
      vertex 0 -0.24423885 -11.581248
      vertex -3 0 -11.599999
    endloop
  endfacet
  facet normal 0 0.22785479 0.9736951
    outer loop
      vertex -3 -0.24423885 -11.581248
      vertex 0 -0.4827528 -11.525434
      vertex 0 -0.24423885 -11.581248
    endloop
  endfacet
  facet normal -1 0 0
    outer loop
      vertex -3 -0.24423885 8.418751
      vertex -3 0 8.4
      vertex -3 -0.122478485 -8.404695
    endloop
  endfacet
  facet normal 0 0.07654853 0.99706584
    outer loop
      vertex -3 -0.24423885 8.418751
      vertex 0 -0.24423885 8.418751
      vertex -3 0 8.4
    endloop
  endfacet
  facet normal 0 0.22785479 0.9736951
    outer loop
      vertex -3 -0.24423885 8.418751
      vertex 0 -0.4827528 8.4745655
      vertex 0 -0.24423885 8.418751
    endloop
  endfacet
  facet normal 0 0.15264958 -0.98828036
    outer loop
      vertex -3 -0.3645649 -8.442087
      vertex -3 -0.122478485 -8.404695
      vertex 0 -0.122478485 -8.404695
    endloop
  endfacet
  facet normal -1 0 0
    outer loop
      vertex -3 -0.3645649 -8.442087
      vertex -3 -0.24423885 8.418751
      vertex -3 -0.122478485 -8.404695
    endloop
  endfacet
  facet normal 0 0.15264958 -0.98828036
    outer loop
      vertex -3 -0.3645649 -8.442087
      vertex 0 -0.122478485 -8.404695
      vertex 0 -0.3645649 -8.442087
    endloop
  endfacet
  facet normal 0 0.15264958 -0.98828036
    outer loop
      vertex -3 -0.3645649 11.557912
      vertex -3 -0.122478485 11.5953045
      vertex 0 -0.122478485 11.5953045
    endloop
  endfacet
  facet normal 0 0.15264958 -0.98828036
    outer loop
      vertex -3 -0.3645649 11.557912
      vertex 0 -0.122478485 11.5953045
      vertex 0 -0.3645649 11.557912
    endloop
  endfacet
  facet normal 0 0.22785479 0.9736951
    outer loop
      vertex -3 -0.4827528 -11.525434
      vertex 0 -0.4827528 -11.525434
      vertex -3 -0.24423885 -11.581248
    endloop
  endfacet
  facet normal 0 0.37381595 0.9275029
    outer loop
      vertex -3 -0.4827528 -11.525434
      vertex 0 -0.7099514 -11.433865
      vertex 0 -0.4827528 -11.525434
    endloop
  endfacet
  facet normal -1 0 0
    outer loop
      vertex -3 -0.4827528 8.4745655
      vertex -3 -0.24423885 8.418751
      vertex -3 -0.3645649 -8.442087
    endloop
  endfacet
  facet normal 0 0.22785479 0.9736951
    outer loop
      vertex -3 -0.4827528 8.4745655
      vertex 0 -0.4827528 8.4745655
      vertex -3 -0.24423885 8.418751
    endloop
  endfacet
  facet normal 0 0.37381595 0.9275029
    outer loop
      vertex -3 -0.4827528 8.4745655
      vertex 0 -0.7099514 8.566134
      vertex 0 -0.4827528 8.4745655
    endloop
  endfacet
  facet normal 0 0.30172104 -0.95339626
    outer loop
      vertex -3 -0.5981064 -8.515996
      vertex -3 -0.3645649 -8.442087
      vertex 0 -0.3645649 -8.442087
    endloop
  endfacet
  facet normal -1 0 0
    outer loop
      vertex -3 -0.5981064 -8.515996
      vertex -3 -0.4827528 8.4745655
      vertex -3 -0.3645649 -8.442087
    endloop
  endfacet
  facet normal 0 0.30172104 -0.95339626
    outer loop
      vertex -3 -0.5981064 -8.515996
      vertex 0 -0.3645649 -8.442087
      vertex 0 -0.5981064 -8.515996
    endloop
  endfacet
  facet normal 0 0.30172104 -0.95339626
    outer loop
      vertex -3 -0.5981064 11.484003
      vertex -3 -0.3645649 11.557912
      vertex 0 -0.3645649 11.557912
    endloop
  endfacet
  facet normal 0 0.30172104 -0.95339626
    outer loop
      vertex -3 -0.5981064 11.484003
      vertex 0 -0.3645649 11.557912
      vertex 0 -0.5981064 11.484003
    endloop
  endfacet
  facet normal 0 0.37381595 0.9275029
    outer loop
      vertex -3 -0.7099514 -11.433865
      vertex 0 -0.7099514 -11.433865
      vertex -3 -0.4827528 -11.525434
    endloop
  endfacet
  facet normal 0 0.5110203 0.85956866
    outer loop
      vertex -3 -0.7099514 -11.433865
      vertex 0 -0.92050934 -11.308686
      vertex 0 -0.7099514 -11.433865
    endloop
  endfacet
  facet normal -1 0 0
    outer loop
      vertex -3 -0.7099514 8.566134
      vertex -3 -0.4827528 8.4745655
      vertex -3 -0.5981064 -8.515996
    endloop
  endfacet
  facet normal 0 0.37381595 0.9275029
    outer loop
      vertex -3 -0.7099514 8.566134
      vertex 0 -0.7099514 8.566134
      vertex -3 -0.4827528 8.4745655
    endloop
  endfacet
  facet normal 0 0.5110203 0.85956866
    outer loop
      vertex -3 -0.7099514 8.566134
      vertex 0 -0.92050934 8.691313
      vertex 0 -0.7099514 8.566134
    endloop
  endfacet
  facet normal 0 0.44371718 -0.89616686
    outer loop
      vertex -3 -0.8176298 -8.624688
      vertex -3 -0.5981064 -8.515996
      vertex 0 -0.5981064 -8.515996
    endloop
  endfacet
  facet normal -1 0 0
    outer loop
      vertex -3 -0.8176298 -8.624688
      vertex -3 -0.7099514 8.566134
      vertex -3 -0.5981064 -8.515996
    endloop
  endfacet
  facet normal 0 0.44371718 -0.89616686
    outer loop
      vertex -3 -0.8176298 -8.624688
      vertex 0 -0.5981064 -8.515996
      vertex 0 -0.8176298 -8.624688
    endloop
  endfacet
  facet normal 0 0.44371718 -0.89616686
    outer loop
      vertex -3 -0.8176298 11.375311
      vertex -3 -0.5981064 11.484003
      vertex 0 -0.5981064 11.484003
    endloop
  endfacet
  facet normal 0 0.44371718 -0.89616686
    outer loop
      vertex -3 -0.8176298 11.375311
      vertex 0 -0.5981064 11.484003
      vertex 0 -0.8176298 11.375311
    endloop
  endfacet
  facet normal 0 0.5110203 0.85956866
    outer loop
      vertex -3 -0.92050934 -11.308686
      vertex 0 -0.92050934 -11.308686
      vertex -3 -0.7099514 -11.433865
    endloop
  endfacet
  facet normal 0 0.63624245 0.7714892
    outer loop
      vertex -3 -0.92050934 -11.308686
      vertex 0 -1.1094913 -11.152834
      vertex 0 -0.92050934 -11.308686
    endloop
  endfacet
  facet normal -1 0 0
    outer loop
      vertex -3 -0.92050934 8.691313
      vertex -3 -0.7099514 8.566134
      vertex -3 -0.8176298 -8.624688
    endloop
  endfacet
  facet normal 0 0.5110203 0.85956866
    outer loop
      vertex -3 -0.92050934 8.691313
      vertex 0 -0.92050934 8.691313
      vertex -3 -0.7099514 8.566134
    endloop
  endfacet
  facet normal 0 0.63624245 0.7714892
    outer loop
      vertex -3 -0.92050934 8.691313
      vertex 0 -1.1094913 8.847165
      vertex 0 -0.92050934 8.691313
    endloop
  endfacet
  facet normal 0 0.57531863 -0.8179294
    outer loop
      vertex -3 -1.0179873 -8.765616
      vertex -3 -0.8176298 -8.624688
      vertex 0 -0.8176298 -8.624688
    endloop
  endfacet
  facet normal -1 0 0
    outer loop
      vertex -3 -1.0179873 -8.765616
      vertex -3 -0.92050934 8.691313
      vertex -3 -0.8176298 -8.624688
    endloop
  endfacet
  facet normal 0 0.57531863 -0.8179294
    outer loop
      vertex -3 -1.0179873 -8.765616
      vertex 0 -0.8176298 -8.624688
      vertex 0 -1.0179873 -8.765616
    endloop
  endfacet
  facet normal 0 0.57531863 -0.8179294
    outer loop
      vertex -3 -1.0179873 11.234383
      vertex -3 -0.8176298 11.375311
      vertex 0 -0.8176298 11.375311
    endloop
  endfacet
  facet normal 0 0.57531863 -0.8179294
    outer loop
      vertex -3 -1.0179873 11.234383
      vertex 0 -0.8176298 11.375311
      vertex 0 -1.0179873 11.234383
    endloop
  endfacet
  facet normal 0 0.63624245 0.7714892
    outer loop
      vertex -3 -1.1094913 -11.152834
      vertex 0 -1.1094913 -11.152834
      vertex -3 -0.92050934 -11.308686
    endloop
  endfacet
  facet normal -1 0 0
    outer loop
      vertex -3 -1.1094913 8.847165
      vertex -3 -0.92050934 8.691313
      vertex -3 -1.0179873 -8.765616
    endloop
  endfacet
  facet normal 0 0.63624245 0.7714892
    outer loop
      vertex -3 -1.1094913 8.847165
      vertex 0 -1.1094913 8.847165
      vertex -3 -0.92050934 8.691313
    endloop
  endfacet
  facet normal 0 0.69343257 -0.72052157
    outer loop
      vertex -3 -1.1944847 -8.935478
      vertex -3 -1.0179873 -8.765616
      vertex 0 -1.0179873 -8.765616
    endloop
  endfacet
  facet normal -1 0 0
    outer loop
      vertex -3 -1.1944847 -8.935478
      vertex -3 -1.1094913 8.847165
      vertex -3 -1.0179873 -8.765616
    endloop
  endfacet
  facet normal 0 0.69343257 -0.72052157
    outer loop
      vertex -3 -1.1944847 -8.935478
      vertex 0 -1.0179873 -8.765616
      vertex 0 -1.1944847 -8.935478
    endloop
  endfacet
  facet normal 0 0.79529256 -0.60622585
    outer loop
      vertex -3 -1.1944847 -8.935478
      vertex 0 -1.1944847 -8.935478
      vertex 0 -1.3429842 -9.130291
    endloop
  endfacet
  facet normal 0 0.69343257 -0.72052157
    outer loop
      vertex -3 -1.1944847 11.064521
      vertex -3 -1.0179873 11.234383
      vertex 0 -1.0179873 11.234383
    endloop
  endfacet
  facet normal 0 0.69343257 -0.72052157
    outer loop
      vertex -3 -1.1944847 11.064521
      vertex 0 -1.0179873 11.234383
      vertex 0 -1.1944847 11.064521
    endloop
  endfacet
  facet normal 0 0.79529256 -0.60622585
    outer loop
      vertex -3 -1.1944847 11.064521
      vertex 0 -1.1944847 11.064521
      vertex 0 -1.3429842 10.869708
    endloop
  endfacet
  facet normal 0 0.74655163 0.6653275
    outer loop
      vertex -3 -1.2724686 -10.96996
      vertex 0 -1.1094913 -11.152834
      vertex -3 -1.1094913 -11.152834
    endloop
  endfacet
  facet normal 0 0.74655163 0.6653275
    outer loop
      vertex -3 -1.2724686 -10.96996
      vertex 0 -1.2724686 -10.96996
      vertex 0 -1.1094913 -11.152834
    endloop
  endfacet
  facet normal -1 0 0
    outer loop
      vertex -3 -1.2724686 9.030039
      vertex -3 -1.1094913 8.847165
      vertex -3 -1.1944847 -8.935478
    endloop
  endfacet
  facet normal 0 0.74655163 0.6653275
    outer loop
      vertex -3 -1.2724686 9.030039
      vertex 0 -1.1094913 8.847165
      vertex -3 -1.1094913 8.847165
    endloop
  endfacet
  facet normal 0 0.74655163 0.6653275
    outer loop
      vertex -3 -1.2724686 9.030039
      vertex 0 -1.2724686 9.030039
      vertex 0 -1.1094913 8.847165
    endloop
  endfacet
  facet normal 0 0.79529256 -0.60622585
    outer loop
      vertex -3 -1.3429842 -9.130291
      vertex -3 -1.1944847 -8.935478
      vertex 0 -1.3429842 -9.130291
    endloop
  endfacet
  facet normal -1 0 0
    outer loop
      vertex -3 -1.3429842 -9.130291
      vertex -3 -1.2724686 9.030039
      vertex -3 -1.1944847 -8.935478
    endloop
  endfacet
  facet normal 0 0.8785117 -0.47772083
    outer loop
      vertex -3 -1.3429842 -9.130291
      vertex 0 -1.3429842 -9.130291
      vertex 0 -1.4600058 -9.3454895
    endloop
  endfacet
  facet normal 0 0.79529256 -0.60622585
    outer loop
      vertex -3 -1.3429842 10.869708
      vertex -3 -1.1944847 11.064521
      vertex 0 -1.3429842 10.869708
    endloop
  endfacet
  facet normal 0 0.8785117 -0.47772083
    outer loop
      vertex -3 -1.3429842 10.869708
      vertex 0 -1.3429842 10.869708
      vertex 0 -1.4600058 10.65451
    endloop
  endfacet
  facet normal 0 0.83936757 0.54356426
    outer loop
      vertex -3 -1.4056187 -10.764351
      vertex 0 -1.2724686 -10.96996
      vertex -3 -1.2724686 -10.96996
    endloop
  endfacet
  facet normal 0 0.83936757 0.54356426
    outer loop
      vertex -3 -1.4056187 -10.764351
      vertex 0 -1.4056187 -10.764351
      vertex 0 -1.2724686 -10.96996
    endloop
  endfacet
  facet normal -1 0 0
    outer loop
      vertex -3 -1.4056187 9.235648
      vertex -3 -1.2724686 9.030039
      vertex -3 -1.3429842 -9.130291
    endloop
  endfacet
  facet normal 0 0.83936757 0.54356426
    outer loop
      vertex -3 -1.4056187 9.235648
      vertex 0 -1.2724686 9.030039
      vertex -3 -1.2724686 9.030039
    endloop
  endfacet
  facet normal 0 0.83936757 0.54356426
    outer loop
      vertex -3 -1.4056187 9.235648
      vertex 0 -1.4056187 9.235648
      vertex 0 -1.2724686 9.030039
    endloop
  endfacet
  facet normal 0 0.8785117 -0.47772083
    outer loop
      vertex -3 -1.4600058 -9.3454895
      vertex -3 -1.3429842 -9.130291
      vertex 0 -1.4600058 -9.3454895
    endloop
  endfacet
  facet normal -1 0 0
    outer loop
      vertex -3 -1.4600058 -9.3454895
      vertex -3 -1.4056187 9.235648
      vertex -3 -1.3429842 -9.130291
    endloop
  endfacet
  facet normal 0 0.9411411 -0.33801395
    outer loop
      vertex -3 -1.4600058 -9.3454895
      vertex 0 -1.4600058 -9.3454895
      vertex 0 -1.5428047 -9.576029
    endloop
  endfacet
  facet normal 0 0.8785117 -0.47772083
    outer loop
      vertex -3 -1.4600058 10.65451
      vertex -3 -1.3429842 10.869708
      vertex 0 -1.4600058 10.65451
    endloop
  endfacet
  facet normal 0 0.9411411 -0.33801395
    outer loop
      vertex -3 -1.4600058 10.65451
      vertex 0 -1.4600058 10.65451
      vertex 0 -1.5428047 10.42397
    endloop
  endfacet
  facet normal 0 0.9125032 0.40906954
    outer loop
      vertex -3 -1.5058231 -10.540827
      vertex 0 -1.4056187 -10.764351
      vertex -3 -1.4056187 -10.764351
    endloop
  endfacet
  facet normal 0 0.9125032 0.40906954
    outer loop
      vertex -3 -1.5058231 -10.540827
      vertex 0 -1.5058231 -10.540827
      vertex 0 -1.4056187 -10.764351
    endloop
  endfacet
  facet normal -1 0 0
    outer loop
      vertex -3 -1.5058231 9.459172
      vertex -3 -1.4056187 9.235648
      vertex -3 -1.4600058 -9.3454895
    endloop
  endfacet
  facet normal 0 0.9125032 0.40906954
    outer loop
      vertex -3 -1.5058231 9.459172
      vertex 0 -1.4056187 9.235648
      vertex -3 -1.4056187 9.235648
    endloop
  endfacet
  facet normal 0 0.9125032 0.40906954
    outer loop
      vertex -3 -1.5058231 9.459172
      vertex 0 -1.5058231 9.459172
      vertex 0 -1.4056187 9.235648
    endloop
  endfacet
  facet normal 0 0.9411411 -0.33801395
    outer loop
      vertex -3 -1.5428047 -9.576029
      vertex -3 -1.4600058 -9.3454895
      vertex 0 -1.5428047 -9.576029
    endloop
  endfacet
  facet normal -1 0 0
    outer loop
      vertex -3 -1.5428047 -9.576029
      vertex -3 -1.5058231 9.459172
      vertex -3 -1.4600058 -9.3454895
    endloop
  endfacet
  facet normal 0 0.9817079 -0.19039352
    outer loop
      vertex -3 -1.5428047 -9.576029
      vertex 0 -1.5428047 -9.576029
      vertex 0 -1.5894432 -9.816506
    endloop
  endfacet
  facet normal 0 0.9411411 -0.33801395
    outer loop
      vertex -3 -1.5428047 10.42397
      vertex -3 -1.4600058 10.65451
      vertex 0 -1.5428047 10.42397
    endloop
  endfacet
  facet normal 0 0.9817079 -0.19039352
    outer loop
      vertex -3 -1.5428047 10.42397
      vertex 0 -1.5428047 10.42397
      vertex 0 -1.5894432 10.183493
    endloop
  endfacet
  facet normal 0 0.96425277 0.2649841
    outer loop
      vertex -3 -1.5707331 -10.3046255
      vertex 0 -1.5058231 -10.540827
      vertex -3 -1.5058231 -10.540827
    endloop
  endfacet
  facet normal 0 0.96425277 0.2649841
    outer loop
      vertex -3 -1.5707331 -10.3046255
      vertex 0 -1.5707331 -10.3046255
      vertex 0 -1.5058231 -10.540827
    endloop
  endfacet
  facet normal -1 0 0
    outer loop
      vertex -3 -1.5707331 9.695374
      vertex -3 -1.5058231 9.459172
      vertex -3 -1.5428047 -9.576029
    endloop
  endfacet
  facet normal 0 0.96425277 0.2649841
    outer loop
      vertex -3 -1.5707331 9.695374
      vertex 0 -1.5058231 9.459172
      vertex -3 -1.5058231 9.459172
    endloop
  endfacet
  facet normal 0 0.96425277 0.2649841
    outer loop
      vertex -3 -1.5707331 9.695374
      vertex 0 -1.5707331 9.695374
      vertex 0 -1.5058231 9.459172
    endloop
  endfacet
  facet normal 0 0.9817079 -0.19039352
    outer loop
      vertex -3 -1.5894432 -9.816506
      vertex -3 -1.5428047 -9.576029
      vertex 0 -1.5894432 -9.816506
    endloop
  endfacet
  facet normal -1 0 0
    outer loop
      vertex -3 -1.5894432 -9.816506
      vertex -3 -1.5707331 9.695374
      vertex -3 -1.5428047 -9.576029
    endloop
  endfacet
  facet normal 0 0.9992662 -0.038301546
    outer loop
      vertex -3 -1.5894432 -9.816506
      vertex 0 -1.5894432 -9.816506
      vertex 0 -1.5988255 -10.061284
    endloop
  endfacet
  facet normal 0 0.9817079 -0.19039352
    outer loop
      vertex -3 -1.5894432 10.183493
      vertex -3 -1.5428047 10.42397
      vertex 0 -1.5894432 10.183493
    endloop
  endfacet
  facet normal 0 0.9992662 -0.038301546
    outer loop
      vertex -3 -1.5894432 10.183493
      vertex 0 -1.5894432 10.183493
      vertex 0 -1.5988255 9.938715
    endloop
  endfacet
  facet normal 0 0.9992662 -0.038301546
    outer loop
      vertex -3 -1.5988255 -10.061284
      vertex -3 -1.5894432 -9.816506
      vertex 0 -1.5988255 -10.061284
    endloop
  endfacet
  facet normal 0 0.9934022 0.11468262
    outer loop
      vertex -3 -1.5988255 -10.061284
      vertex 0 -1.5707331 -10.3046255
      vertex -3 -1.5707331 -10.3046255
    endloop
  endfacet
  facet normal 0 0.9934022 0.11468262
    outer loop
      vertex -3 -1.5988255 -10.061284
      vertex 0 -1.5988255 -10.061284
      vertex 0 -1.5707331 -10.3046255
    endloop
  endfacet
  facet normal 0 0.9992662 -0.038301546
    outer loop
      vertex -3 -1.5988255 9.938715
      vertex -3 -1.5894432 10.183493
      vertex 0 -1.5988255 9.938715
    endloop
  endfacet
  facet normal 0 0.9934022 0.11468262
    outer loop
      vertex -3 -1.5988255 9.938715
      vertex 0 -1.5707331 9.695374
      vertex -3 -1.5707331 9.695374
    endloop
  endfacet
  facet normal 0 0.9934022 0.11468262
    outer loop
      vertex -3 -1.5988255 9.938715
      vertex 0 -1.5988255 9.938715
      vertex 0 -1.5707331 9.695374
    endloop
  endfacet
  facet normal -0.70710677 -0.70710677 0
    outer loop
      vertex -3 -3.921068 -19.5
      vertex -2.3 -4.621068 -19.5
      vertex -3 -3.921068 19.5
    endloop
  endfacet
  facet normal -1 0 0
    outer loop
      vertex -3 -3.921068 -19.5
      vertex -3 -0.24423885 -11.581248
      vertex -3 0 -11.599999
    endloop
  endfacet
  facet normal -1 0 0
    outer loop
      vertex -3 -3.921068 -19.5
      vertex -3 -0.4827528 -11.525434
      vertex -3 -0.24423885 -11.581248
    endloop
  endfacet
  facet normal -1 0 0
    outer loop
      vertex -3 -3.921068 -19.5
      vertex -3 -0.7099514 -11.433865
      vertex -3 -0.4827528 -11.525434
    endloop
  endfacet
  facet normal -1 0 0
    outer loop
      vertex -3 -3.921068 -19.5
      vertex -3 -0.92050934 -11.308686
      vertex -3 -0.7099514 -11.433865
    endloop
  endfacet
  facet normal -1 0 0
    outer loop
      vertex -3 -3.921068 -19.5
      vertex -3 -1.1094913 -11.152834
      vertex -3 -0.92050934 -11.308686
    endloop
  endfacet
  facet normal -1 0 0
    outer loop
      vertex -3 -3.921068 -19.5
      vertex -3 -1.2724686 -10.96996
      vertex -3 -1.1094913 -11.152834
    endloop
  endfacet
  facet normal -1 0 0
    outer loop
      vertex -3 -3.921068 -19.5
      vertex -3 -1.4056187 -10.764351
      vertex -3 -1.2724686 -10.96996
    endloop
  endfacet
  facet normal -1 0 0
    outer loop
      vertex -3 -3.921068 -19.5
      vertex -3 -1.5058231 -10.540827
      vertex -3 -1.4056187 -10.764351
    endloop
  endfacet
  facet normal -1 0 0
    outer loop
      vertex -3 -3.921068 -19.5
      vertex -3 -1.5707331 -10.3046255
      vertex -3 -1.5058231 -10.540827
    endloop
  endfacet
  facet normal -1 0 0
    outer loop
      vertex -3 -3.921068 -19.5
      vertex -3 -1.5707331 9.695374
      vertex -3 -1.5894432 -9.816506
    endloop
  endfacet
  facet normal -1 0 0
    outer loop
      vertex -3 -3.921068 -19.5
      vertex -3 -1.5894432 -9.816506
      vertex -3 -1.5988255 -10.061284
    endloop
  endfacet
  facet normal -1 0 0
    outer loop
      vertex -3 -3.921068 -19.5
      vertex -3 -1.5988255 -10.061284
      vertex -3 -1.5707331 -10.3046255
    endloop
  endfacet
  facet normal -1 0 0
    outer loop
      vertex -3 -3.921068 -19.5
      vertex -3 -3.921068 19.5
      vertex -3 -1.5707331 9.695374
    endloop
  endfacet
  facet normal -1 0 0
    outer loop
      vertex -3 -3.921068 -19.5
      vertex -3 0 -11.599999
      vertex -3 3.921068 -19.5
    endloop
  endfacet
  facet normal 0 0 -1
    outer loop
      vertex -3 -3.921068 -19.5
      vertex -3 3.921068 -19.5
      vertex 0 4.5999994 -19.5
    endloop
  endfacet
  facet normal 0 0 -1
    outer loop
      vertex -3 -3.921068 -19.5
      vertex 0 -4.5999994 -19.5
      vertex -2.3 -4.621068 -19.5
    endloop
  endfacet
  facet normal 0 0 -1
    outer loop
      vertex -3 -3.921068 -19.5
      vertex 0 4.5999994 -19.5
      vertex 0 -4.5999994 -19.5
    endloop
  endfacet
  facet normal -0.70710677 -0.70710677 0
    outer loop
      vertex -3 -3.921068 19.5
      vertex -2.3 -4.621068 -19.5
      vertex -2.3 -4.621068 19.5
    endloop
  endfacet
  facet normal 0 0 1
    outer loop
      vertex -3 -3.921068 19.5
      vertex -2.3 -4.621068 19.5
      vertex 0 -4.5999994 19.5
    endloop
  endfacet
  facet normal -1 0 0
    outer loop
      vertex -3 -3.921068 19.5
      vertex -3 -0.122478485 11.5953045
      vertex -3 -0.3645649 11.557912
    endloop
  endfacet
  facet normal -1 0 0
    outer loop
      vertex -3 -3.921068 19.5
      vertex -3 -0.3645649 11.557912
      vertex -3 -0.5981064 11.484003
    endloop
  endfacet
  facet normal -1 0 0
    outer loop
      vertex -3 -3.921068 19.5
      vertex -3 -0.5981064 11.484003
      vertex -3 -0.8176298 11.375311
    endloop
  endfacet
  facet normal -1 0 0
    outer loop
      vertex -3 -3.921068 19.5
      vertex -3 -0.8176298 11.375311
      vertex -3 -1.0179873 11.234383
    endloop
  endfacet
  facet normal -1 0 0
    outer loop
      vertex -3 -3.921068 19.5
      vertex -3 -1.0179873 11.234383
      vertex -3 -1.1944847 11.064521
    endloop
  endfacet
  facet normal -1 0 0
    outer loop
      vertex -3 -3.921068 19.5
      vertex -3 -1.1944847 11.064521
      vertex -3 -1.3429842 10.869708
    endloop
  endfacet
  facet normal -1 0 0
    outer loop
      vertex -3 -3.921068 19.5
      vertex -3 -1.3429842 10.869708
      vertex -3 -1.4600058 10.65451
    endloop
  endfacet
  facet normal -1 0 0
    outer loop
      vertex -3 -3.921068 19.5
      vertex -3 -1.4600058 10.65451
      vertex -3 -1.5428047 10.42397
    endloop
  endfacet
  facet normal -1 0 0
    outer loop
      vertex -3 -3.921068 19.5
      vertex -3 -1.5428047 10.42397
      vertex -3 -1.5894432 10.183493
    endloop
  endfacet
  facet normal -1 0 0
    outer loop
      vertex -3 -3.921068 19.5
      vertex -3 -1.5894432 10.183493
      vertex -3 -1.5988255 9.938715
    endloop
  endfacet
  facet normal -1 0 0
    outer loop
      vertex -3 -3.921068 19.5
      vertex -3 -1.5988255 9.938715
      vertex -3 -1.5707331 9.695374
    endloop
  endfacet
  facet normal -1 0 0
    outer loop
      vertex -3 -3.921068 19.5
      vertex -3 3.921068 19.5
      vertex -3 -0.122478485 11.5953045
    endloop
  endfacet
  facet normal 0 0 1
    outer loop
      vertex -3 -3.921068 19.5
      vertex 0 -4.5999994 19.5
      vertex 0 4.5999994 19.5
    endloop
  endfacet
  facet normal 0 0 1
    outer loop
      vertex -3 -3.921068 19.5
      vertex 0 4.5999994 19.5
      vertex -3 3.921068 19.5
    endloop
  endfacet
  facet normal -1 0 0
    outer loop
      vertex -3 0 -11.599999
      vertex -3 0.24423885 -11.581248
      vertex -3 3.921068 -19.5
    endloop
  endfacet
  facet normal 0 0.07654853 0.99706584
    outer loop
      vertex -3 0 -11.599999
      vertex 0 -0.24423885 -11.581248
      vertex 0 0 -11.599999
    endloop
  endfacet
  facet normal 0 -0.07654853 0.99706584
    outer loop
      vertex -3 0 -11.599999
      vertex 0 0 -11.599999
      vertex -3 0.24423885 -11.581248
    endloop
  endfacet
  facet normal -1 0 0
    outer loop
      vertex -3 0 8.4
      vertex -3 0.24423885 8.418751
      vertex -3 0.122478485 -8.404695
    endloop
  endfacet
  facet normal 0 0.07654853 0.99706584
    outer loop
      vertex -3 0 8.4
      vertex 0 -0.24423885 8.418751
      vertex 0 0 8.4
    endloop
  endfacet
  facet normal 0 -0.07654853 0.99706584
    outer loop
      vertex -3 0 8.4
      vertex 0 0 8.4
      vertex -3 0.24423885 8.418751
    endloop
  endfacet
  facet normal -1 0 0
    outer loop
      vertex -3 0.122478485 -8.404695
      vertex -3 0.24423885 8.418751
      vertex -3 0.3645649 -8.442087
    endloop
  endfacet
  facet normal 0 -0.15264958 -0.98828036
    outer loop
      vertex -3 0.122478485 -8.404695
      vertex -3 0.3645649 -8.442087
      vertex 0 0.3645649 -8.442087
    endloop
  endfacet
  facet normal 0 -0.15264958 -0.98828036
    outer loop
      vertex -3 0.122478485 -8.404695
      vertex 0 0.3645649 -8.442087
      vertex 0 0.122478485 -8.404695
    endloop
  endfacet
  facet normal 0 -0.15264958 -0.98828036
    outer loop
      vertex -3 0.122478485 11.5953045
      vertex -3 0.3645649 11.557912
      vertex 0 0.3645649 11.557912
    endloop
  endfacet
  facet normal -1 0 0
    outer loop
      vertex -3 0.122478485 11.5953045
      vertex -3 3.921068 19.5
      vertex -3 0.3645649 11.557912
    endloop
  endfacet
  facet normal 0 -0.15264958 -0.98828036
    outer loop
      vertex -3 0.122478485 11.5953045
      vertex 0 0.3645649 11.557912
      vertex 0 0.122478485 11.5953045
    endloop
  endfacet
  facet normal -1 0 0
    outer loop
      vertex -3 0.24423885 -11.581248
      vertex -3 0.4827528 -11.525434
      vertex -3 3.921068 -19.5
    endloop
  endfacet
  facet normal 0 -0.07654853 0.99706584
    outer loop
      vertex -3 0.24423885 -11.581248
      vertex 0 0 -11.599999
      vertex 0 0.24423885 -11.581248
    endloop
  endfacet
  facet normal 0 -0.22785479 0.9736951
    outer loop
      vertex -3 0.24423885 -11.581248
      vertex 0 0.24423885 -11.581248
      vertex -3 0.4827528 -11.525434
    endloop
  endfacet
  facet normal -1 0 0
    outer loop
      vertex -3 0.24423885 8.418751
      vertex -3 0.4827528 8.4745655
      vertex -3 0.3645649 -8.442087
    endloop
  endfacet
  facet normal 0 -0.07654853 0.99706584
    outer loop
      vertex -3 0.24423885 8.418751
      vertex 0 0 8.4
      vertex 0 0.24423885 8.418751
    endloop
  endfacet
  facet normal 0 -0.22785479 0.9736951
    outer loop
      vertex -3 0.24423885 8.418751
      vertex 0 0.24423885 8.418751
      vertex -3 0.4827528 8.4745655
    endloop
  endfacet
  facet normal -1 0 0
    outer loop
      vertex -3 0.3645649 -8.442087
      vertex -3 0.4827528 8.4745655
      vertex -3 0.5981064 -8.515996
    endloop
  endfacet
  facet normal 0 -0.30172104 -0.95339626
    outer loop
      vertex -3 0.3645649 -8.442087
      vertex -3 0.5981064 -8.515996
      vertex 0 0.5981064 -8.515996
    endloop
  endfacet
  facet normal 0 -0.30172104 -0.95339626
    outer loop
      vertex -3 0.3645649 -8.442087
      vertex 0 0.5981064 -8.515996
      vertex 0 0.3645649 -8.442087
    endloop
  endfacet
  facet normal 0 -0.30172104 -0.95339626
    outer loop
      vertex -3 0.3645649 11.557912
      vertex -3 0.5981064 11.484003
      vertex 0 0.5981064 11.484003
    endloop
  endfacet
  facet normal -1 0 0
    outer loop
      vertex -3 0.3645649 11.557912
      vertex -3 3.921068 19.5
      vertex -3 0.5981064 11.484003
    endloop
  endfacet
  facet normal 0 -0.30172104 -0.95339626
    outer loop
      vertex -3 0.3645649 11.557912
      vertex 0 0.5981064 11.484003
      vertex 0 0.3645649 11.557912
    endloop
  endfacet
  facet normal -1 0 0
    outer loop
      vertex -3 0.4827528 -11.525434
      vertex -3 0.7099514 -11.433865
      vertex -3 3.921068 -19.5
    endloop
  endfacet
  facet normal 0 -0.22785479 0.9736951
    outer loop
      vertex -3 0.4827528 -11.525434
      vertex 0 0.24423885 -11.581248
      vertex 0 0.4827528 -11.525434
    endloop
  endfacet
  facet normal 0 -0.37381595 0.9275029
    outer loop
      vertex -3 0.4827528 -11.525434
      vertex 0 0.4827528 -11.525434
      vertex -3 0.7099514 -11.433865
    endloop
  endfacet
  facet normal -1 0 0
    outer loop
      vertex -3 0.4827528 8.4745655
      vertex -3 0.7099514 8.566134
      vertex -3 0.5981064 -8.515996
    endloop
  endfacet
  facet normal 0 -0.22785479 0.9736951
    outer loop
      vertex -3 0.4827528 8.4745655
      vertex 0 0.24423885 8.418751
      vertex 0 0.4827528 8.4745655
    endloop
  endfacet
  facet normal 0 -0.37381595 0.9275029
    outer loop
      vertex -3 0.4827528 8.4745655
      vertex 0 0.4827528 8.4745655
      vertex -3 0.7099514 8.566134
    endloop
  endfacet
  facet normal -1 0 0
    outer loop
      vertex -3 0.5981064 -8.515996
      vertex -3 0.7099514 8.566134
      vertex -3 0.8176298 -8.624688
    endloop
  endfacet
  facet normal 0 -0.44371718 -0.89616686
    outer loop
      vertex -3 0.5981064 -8.515996
      vertex -3 0.8176298 -8.624688
      vertex 0 0.8176298 -8.624688
    endloop
  endfacet
  facet normal 0 -0.44371718 -0.89616686
    outer loop
      vertex -3 0.5981064 -8.515996
      vertex 0 0.8176298 -8.624688
      vertex 0 0.5981064 -8.515996
    endloop
  endfacet
  facet normal 0 -0.44371718 -0.89616686
    outer loop
      vertex -3 0.5981064 11.484003
      vertex -3 0.8176298 11.375311
      vertex 0 0.8176298 11.375311
    endloop
  endfacet
  facet normal -1 0 0
    outer loop
      vertex -3 0.5981064 11.484003
      vertex -3 3.921068 19.5
      vertex -3 0.8176298 11.375311
    endloop
  endfacet
  facet normal 0 -0.44371718 -0.89616686
    outer loop
      vertex -3 0.5981064 11.484003
      vertex 0 0.8176298 11.375311
      vertex 0 0.5981064 11.484003
    endloop
  endfacet
  facet normal -1 0 0
    outer loop
      vertex -3 0.7099514 -11.433865
      vertex -3 0.92050934 -11.308686
      vertex -3 3.921068 -19.5
    endloop
  endfacet
  facet normal 0 -0.37381595 0.9275029
    outer loop
      vertex -3 0.7099514 -11.433865
      vertex 0 0.4827528 -11.525434
      vertex 0 0.7099514 -11.433865
    endloop
  endfacet
  facet normal 0 -0.5110203 0.85956866
    outer loop
      vertex -3 0.7099514 -11.433865
      vertex 0 0.7099514 -11.433865
      vertex -3 0.92050934 -11.308686
    endloop
  endfacet
  facet normal -1 0 0
    outer loop
      vertex -3 0.7099514 8.566134
      vertex -3 0.92050934 8.691313
      vertex -3 0.8176298 -8.624688
    endloop
  endfacet
  facet normal 0 -0.37381595 0.9275029
    outer loop
      vertex -3 0.7099514 8.566134
      vertex 0 0.4827528 8.4745655
      vertex 0 0.7099514 8.566134
    endloop
  endfacet
  facet normal 0 -0.5110203 0.85956866
    outer loop
      vertex -3 0.7099514 8.566134
      vertex 0 0.7099514 8.566134
      vertex -3 0.92050934 8.691313
    endloop
  endfacet
  facet normal -1 0 0
    outer loop
      vertex -3 0.8176298 -8.624688
      vertex -3 0.92050934 8.691313
      vertex -3 1.0179873 -8.765616
    endloop
  endfacet
  facet normal 0 -0.57531863 -0.8179294
    outer loop
      vertex -3 0.8176298 -8.624688
      vertex -3 1.0179873 -8.765616
      vertex 0 1.0179873 -8.765616
    endloop
  endfacet
  facet normal 0 -0.57531863 -0.8179294
    outer loop
      vertex -3 0.8176298 -8.624688
      vertex 0 1.0179873 -8.765616
      vertex 0 0.8176298 -8.624688
    endloop
  endfacet
  facet normal 0 -0.57531863 -0.8179294
    outer loop
      vertex -3 0.8176298 11.375311
      vertex -3 1.0179873 11.234383
      vertex 0 1.0179873 11.234383
    endloop
  endfacet
  facet normal -1 0 0
    outer loop
      vertex -3 0.8176298 11.375311
      vertex -3 3.921068 19.5
      vertex -3 1.0179873 11.234383
    endloop
  endfacet
  facet normal 0 -0.57531863 -0.8179294
    outer loop
      vertex -3 0.8176298 11.375311
      vertex 0 1.0179873 11.234383
      vertex 0 0.8176298 11.375311
    endloop
  endfacet
  facet normal -1 0 0
    outer loop
      vertex -3 0.92050934 -11.308686
      vertex -3 1.1094913 -11.152834
      vertex -3 3.921068 -19.5
    endloop
  endfacet
  facet normal 0 -0.5110203 0.85956866
    outer loop
      vertex -3 0.92050934 -11.308686
      vertex 0 0.7099514 -11.433865
      vertex 0 0.92050934 -11.308686
    endloop
  endfacet
  facet normal 0 -0.63624245 0.7714892
    outer loop
      vertex -3 0.92050934 -11.308686
      vertex 0 0.92050934 -11.308686
      vertex -3 1.1094913 -11.152834
    endloop
  endfacet
  facet normal -1 0 0
    outer loop
      vertex -3 0.92050934 8.691313
      vertex -3 1.1094913 8.847165
      vertex -3 1.0179873 -8.765616
    endloop
  endfacet
  facet normal 0 -0.5110203 0.85956866
    outer loop
      vertex -3 0.92050934 8.691313
      vertex 0 0.7099514 8.566134
      vertex 0 0.92050934 8.691313
    endloop
  endfacet
  facet normal 0 -0.63624245 0.7714892
    outer loop
      vertex -3 0.92050934 8.691313
      vertex 0 0.92050934 8.691313
      vertex -3 1.1094913 8.847165
    endloop
  endfacet
  facet normal -1 0 0
    outer loop
      vertex -3 1.0179873 -8.765616
      vertex -3 1.1094913 8.847165
      vertex -3 1.1944847 -8.935478
    endloop
  endfacet
  facet normal 0 -0.69343257 -0.72052157
    outer loop
      vertex -3 1.0179873 -8.765616
      vertex -3 1.1944847 -8.935478
      vertex 0 1.1944847 -8.935478
    endloop
  endfacet
  facet normal 0 -0.69343257 -0.72052157
    outer loop
      vertex -3 1.0179873 -8.765616
      vertex 0 1.1944847 -8.935478
      vertex 0 1.0179873 -8.765616
    endloop
  endfacet
  facet normal 0 -0.69343257 -0.72052157
    outer loop
      vertex -3 1.0179873 11.234383
      vertex -3 1.1944847 11.064521
      vertex 0 1.1944847 11.064521
    endloop
  endfacet
  facet normal -1 0 0
    outer loop
      vertex -3 1.0179873 11.234383
      vertex -3 3.921068 19.5
      vertex -3 1.1944847 11.064521
    endloop
  endfacet
  facet normal 0 -0.69343257 -0.72052157
    outer loop
      vertex -3 1.0179873 11.234383
      vertex 0 1.1944847 11.064521
      vertex 0 1.0179873 11.234383
    endloop
  endfacet
  facet normal -1 0 0
    outer loop
      vertex -3 1.1094913 -11.152834
      vertex -3 1.2724686 -10.96996
      vertex -3 3.921068 -19.5
    endloop
  endfacet
  facet normal 0 -0.63624245 0.7714892
    outer loop
      vertex -3 1.1094913 -11.152834
      vertex 0 0.92050934 -11.308686
      vertex 0 1.1094913 -11.152834
    endloop
  endfacet
  facet normal 0 -0.74655163 0.6653275
    outer loop
      vertex -3 1.1094913 -11.152834
      vertex 0 1.1094913 -11.152834
      vertex 0 1.2724686 -10.96996
    endloop
  endfacet
  facet normal 0 -0.74655163 0.6653275
    outer loop
      vertex -3 1.1094913 -11.152834
      vertex 0 1.2724686 -10.96996
      vertex -3 1.2724686 -10.96996
    endloop
  endfacet
  facet normal -1 0 0
    outer loop
      vertex -3 1.1094913 8.847165
      vertex -3 1.2724686 9.030039
      vertex -3 1.1944847 -8.935478
    endloop
  endfacet
  facet normal 0 -0.63624245 0.7714892
    outer loop
      vertex -3 1.1094913 8.847165
      vertex 0 0.92050934 8.691313
      vertex 0 1.1094913 8.847165
    endloop
  endfacet
  facet normal 0 -0.74655163 0.6653275
    outer loop
      vertex -3 1.1094913 8.847165
      vertex 0 1.1094913 8.847165
      vertex 0 1.2724686 9.030039
    endloop
  endfacet
  facet normal 0 -0.74655163 0.6653275
    outer loop
      vertex -3 1.1094913 8.847165
      vertex 0 1.2724686 9.030039
      vertex -3 1.2724686 9.030039
    endloop
  endfacet
  facet normal -1 0 0
    outer loop
      vertex -3 1.1944847 -8.935478
      vertex -3 1.2724686 9.030039
      vertex -3 1.3429842 -9.130291
    endloop
  endfacet
  facet normal 0 -0.79529256 -0.60622585
    outer loop
      vertex -3 1.1944847 -8.935478
      vertex -3 1.3429842 -9.130291
      vertex 0 1.1944847 -8.935478
    endloop
  endfacet
  facet normal 0 -0.79529256 -0.60622585
    outer loop
      vertex -3 1.1944847 11.064521
      vertex -3 1.3429842 10.869708
      vertex 0 1.1944847 11.064521
    endloop
  endfacet
  facet normal -1 0 0
    outer loop
      vertex -3 1.1944847 11.064521
      vertex -3 3.921068 19.5
      vertex -3 1.3429842 10.869708
    endloop
  endfacet
  facet normal -1 0 0
    outer loop
      vertex -3 1.2724686 -10.96996
      vertex -3 1.4056187 -10.764351
      vertex -3 3.921068 -19.5
    endloop
  endfacet
  facet normal 0 -0.83936757 0.54356426
    outer loop
      vertex -3 1.2724686 -10.96996
      vertex 0 1.2724686 -10.96996
      vertex 0 1.4056187 -10.764351
    endloop
  endfacet
  facet normal 0 -0.83936757 0.54356426
    outer loop
      vertex -3 1.2724686 -10.96996
      vertex 0 1.4056187 -10.764351
      vertex -3 1.4056187 -10.764351
    endloop
  endfacet
  facet normal -1 0 0
    outer loop
      vertex -3 1.2724686 9.030039
      vertex -3 1.4056187 9.235648
      vertex -3 1.3429842 -9.130291
    endloop
  endfacet
  facet normal 0 -0.83936757 0.54356426
    outer loop
      vertex -3 1.2724686 9.030039
      vertex 0 1.2724686 9.030039
      vertex 0 1.4056187 9.235648
    endloop
  endfacet
  facet normal 0 -0.83936757 0.54356426
    outer loop
      vertex -3 1.2724686 9.030039
      vertex 0 1.4056187 9.235648
      vertex -3 1.4056187 9.235648
    endloop
  endfacet
  facet normal -1 0 0
    outer loop
      vertex -3 1.3429842 -9.130291
      vertex -3 1.4056187 9.235648
      vertex -3 1.4600058 -9.3454895
    endloop
  endfacet
  facet normal 0 -0.8785117 -0.47772083
    outer loop
      vertex -3 1.3429842 -9.130291
      vertex -3 1.4600058 -9.3454895
      vertex 0 1.3429842 -9.130291
    endloop
  endfacet
  facet normal 0 -0.79529256 -0.60622585
    outer loop
      vertex -3 1.3429842 -9.130291
      vertex 0 1.3429842 -9.130291
      vertex 0 1.1944847 -8.935478
    endloop
  endfacet
  facet normal 0 -0.8785117 -0.47772083
    outer loop
      vertex -3 1.3429842 10.869708
      vertex -3 1.4600058 10.65451
      vertex 0 1.3429842 10.869708
    endloop
  endfacet
  facet normal -1 0 0
    outer loop
      vertex -3 1.3429842 10.869708
      vertex -3 3.921068 19.5
      vertex -3 1.4600058 10.65451
    endloop
  endfacet
  facet normal 0 -0.79529256 -0.60622585
    outer loop
      vertex -3 1.3429842 10.869708
      vertex 0 1.3429842 10.869708
      vertex 0 1.1944847 11.064521
    endloop
  endfacet
  facet normal -1 0 0
    outer loop
      vertex -3 1.4056187 -10.764351
      vertex -3 1.5058231 -10.540827
      vertex -3 3.921068 -19.5
    endloop
  endfacet
  facet normal 0 -0.9125032 0.40906954
    outer loop
      vertex -3 1.4056187 -10.764351
      vertex 0 1.4056187 -10.764351
      vertex 0 1.5058231 -10.540827
    endloop
  endfacet
  facet normal 0 -0.9125032 0.40906954
    outer loop
      vertex -3 1.4056187 -10.764351
      vertex 0 1.5058231 -10.540827
      vertex -3 1.5058231 -10.540827
    endloop
  endfacet
  facet normal -1 0 0
    outer loop
      vertex -3 1.4056187 9.235648
      vertex -3 1.5058231 9.459172
      vertex -3 1.4600058 -9.3454895
    endloop
  endfacet
  facet normal 0 -0.9125032 0.40906954
    outer loop
      vertex -3 1.4056187 9.235648
      vertex 0 1.4056187 9.235648
      vertex 0 1.5058231 9.459172
    endloop
  endfacet
  facet normal 0 -0.9125032 0.40906954
    outer loop
      vertex -3 1.4056187 9.235648
      vertex 0 1.5058231 9.459172
      vertex -3 1.5058231 9.459172
    endloop
  endfacet
  facet normal -1 0 0
    outer loop
      vertex -3 1.4600058 -9.3454895
      vertex -3 1.5058231 9.459172
      vertex -3 1.5428047 -9.576029
    endloop
  endfacet
  facet normal 0 -0.9411411 -0.33801395
    outer loop
      vertex -3 1.4600058 -9.3454895
      vertex -3 1.5428047 -9.576029
      vertex 0 1.4600058 -9.3454895
    endloop
  endfacet
  facet normal 0 -0.8785117 -0.47772083
    outer loop
      vertex -3 1.4600058 -9.3454895
      vertex 0 1.4600058 -9.3454895
      vertex 0 1.3429842 -9.130291
    endloop
  endfacet
  facet normal 0 -0.9411411 -0.33801395
    outer loop
      vertex -3 1.4600058 10.65451
      vertex -3 1.5428047 10.42397
      vertex 0 1.4600058 10.65451
    endloop
  endfacet
  facet normal -1 0 0
    outer loop
      vertex -3 1.4600058 10.65451
      vertex -3 3.921068 19.5
      vertex -3 1.5428047 10.42397
    endloop
  endfacet
  facet normal 0 -0.8785117 -0.47772083
    outer loop
      vertex -3 1.4600058 10.65451
      vertex 0 1.4600058 10.65451
      vertex 0 1.3429842 10.869708
    endloop
  endfacet
  facet normal -1 0 0
    outer loop
      vertex -3 1.5058231 -10.540827
      vertex -3 1.5707331 -10.3046255
      vertex -3 3.921068 -19.5
    endloop
  endfacet
  facet normal 0 -0.96425277 0.2649841
    outer loop
      vertex -3 1.5058231 -10.540827
      vertex 0 1.5058231 -10.540827
      vertex 0 1.5707331 -10.3046255
    endloop
  endfacet
  facet normal 0 -0.96425277 0.2649841
    outer loop
      vertex -3 1.5058231 -10.540827
      vertex 0 1.5707331 -10.3046255
      vertex -3 1.5707331 -10.3046255
    endloop
  endfacet
  facet normal -1 0 0
    outer loop
      vertex -3 1.5058231 9.459172
      vertex -3 1.5707331 9.695374
      vertex -3 1.5428047 -9.576029
    endloop
  endfacet
  facet normal 0 -0.96425277 0.2649841
    outer loop
      vertex -3 1.5058231 9.459172
      vertex 0 1.5058231 9.459172
      vertex 0 1.5707331 9.695374
    endloop
  endfacet
  facet normal 0 -0.96425277 0.2649841
    outer loop
      vertex -3 1.5058231 9.459172
      vertex 0 1.5707331 9.695374
      vertex -3 1.5707331 9.695374
    endloop
  endfacet
  facet normal -1 0 0
    outer loop
      vertex -3 1.5428047 -9.576029
      vertex -3 1.5707331 9.695374
      vertex -3 1.5894432 -9.816506
    endloop
  endfacet
  facet normal 0 -0.9817079 -0.19039352
    outer loop
      vertex -3 1.5428047 -9.576029
      vertex -3 1.5894432 -9.816506
      vertex 0 1.5428047 -9.576029
    endloop
  endfacet
  facet normal 0 -0.9411411 -0.33801395
    outer loop
      vertex -3 1.5428047 -9.576029
      vertex 0 1.5428047 -9.576029
      vertex 0 1.4600058 -9.3454895
    endloop
  endfacet
  facet normal 0 -0.9817079 -0.19039352
    outer loop
      vertex -3 1.5428047 10.42397
      vertex -3 1.5894432 10.183493
      vertex 0 1.5428047 10.42397
    endloop
  endfacet
  facet normal -1 0 0
    outer loop
      vertex -3 1.5428047 10.42397
      vertex -3 3.921068 19.5
      vertex -3 1.5894432 10.183493
    endloop
  endfacet
  facet normal 0 -0.9411411 -0.33801395
    outer loop
      vertex -3 1.5428047 10.42397
      vertex 0 1.5428047 10.42397
      vertex 0 1.4600058 10.65451
    endloop
  endfacet
  facet normal -1 0 0
    outer loop
      vertex -3 1.5707331 -10.3046255
      vertex -3 1.5988255 -10.061284
      vertex -3 3.921068 -19.5
    endloop
  endfacet
  facet normal 0 -0.9934022 0.11468262
    outer loop
      vertex -3 1.5707331 -10.3046255
      vertex 0 1.5707331 -10.3046255
      vertex 0 1.5988255 -10.061284
    endloop
  endfacet
  facet normal 0 -0.9934022 0.11468262
    outer loop
      vertex -3 1.5707331 -10.3046255
      vertex 0 1.5988255 -10.061284
      vertex -3 1.5988255 -10.061284
    endloop
  endfacet
  facet normal -1 0 0
    outer loop
      vertex -3 1.5707331 9.695374
      vertex -3 1.5988255 9.938715
      vertex -3 3.921068 19.5
    endloop
  endfacet
  facet normal -1 0 0
    outer loop
      vertex -3 1.5707331 9.695374
      vertex -3 3.921068 19.5
      vertex -3 1.5894432 -9.816506
    endloop
  endfacet
  facet normal 0 -0.9934022 0.11468262
    outer loop
      vertex -3 1.5707331 9.695374
      vertex 0 1.5707331 9.695374
      vertex 0 1.5988255 9.938715
    endloop
  endfacet
  facet normal 0 -0.9934022 0.11468262
    outer loop
      vertex -3 1.5707331 9.695374
      vertex 0 1.5988255 9.938715
      vertex -3 1.5988255 9.938715
    endloop
  endfacet
  facet normal 0 -0.9992662 -0.038301546
    outer loop
      vertex -3 1.5894432 -9.816506
      vertex -3 1.5988255 -10.061284
      vertex 0 1.5894432 -9.816506
    endloop
  endfacet
  facet normal -1 0 0
    outer loop
      vertex -3 1.5894432 -9.816506
      vertex -3 3.921068 -19.5
      vertex -3 1.5988255 -10.061284
    endloop
  endfacet
  facet normal -1 0 0
    outer loop
      vertex -3 1.5894432 -9.816506
      vertex -3 3.921068 19.5
      vertex -3 3.921068 -19.5
    endloop
  endfacet
  facet normal 0 -0.9817079 -0.19039352
    outer loop
      vertex -3 1.5894432 -9.816506
      vertex 0 1.5894432 -9.816506
      vertex 0 1.5428047 -9.576029
    endloop
  endfacet
  facet normal 0 -0.9992662 -0.038301546
    outer loop
      vertex -3 1.5894432 10.183493
      vertex -3 1.5988255 9.938715
      vertex 0 1.5894432 10.183493
    endloop
  endfacet
  facet normal -1 0 0
    outer loop
      vertex -3 1.5894432 10.183493
      vertex -3 3.921068 19.5
      vertex -3 1.5988255 9.938715
    endloop
  endfacet
  facet normal 0 -0.9817079 -0.19039352
    outer loop
      vertex -3 1.5894432 10.183493
      vertex 0 1.5894432 10.183493
      vertex 0 1.5428047 10.42397
    endloop
  endfacet
  facet normal 0 -0.9992662 -0.038301546
    outer loop
      vertex -3 1.5988255 -10.061284
      vertex 0 1.5988255 -10.061284
      vertex 0 1.5894432 -9.816506
    endloop
  endfacet
  facet normal 0 -0.9992662 -0.038301546
    outer loop
      vertex -3 1.5988255 9.938715
      vertex 0 1.5988255 9.938715
      vertex 0 1.5894432 10.183493
    endloop
  endfacet
  facet normal 0 0 -1
    outer loop
      vertex -3 3.921068 -19.5
      vertex -2.305124 4.615944 -19.5
      vertex 0 4.5999994 -19.5
    endloop
  endfacet
  facet normal -0.70710677 0.70710677 0
    outer loop
      vertex -3 3.921068 -19.5
      vertex -2.305124 4.615944 19.5
      vertex -2.305124 4.615944 -19.5
    endloop
  endfacet
  facet normal -0.70710677 0.70710677 0
    outer loop
      vertex -3 3.921068 -19.5
      vertex -3 3.921068 19.5
      vertex -2.305124 4.615944 19.5
    endloop
  endfacet
  facet normal 0 0 1
    outer loop
      vertex -3 3.921068 19.5
      vertex 0 4.5999994 19.5
      vertex -2.305124 4.615944 19.5
    endloop
  endfacet
  facet normal 1 0 0
    outer loop
      vertex 0 -0.122478485 11.5953045
      vertex 0 0.122478485 11.5953045
      vertex 0 4.5999994 19.5
    endloop
  endfacet
  facet normal 1 0 0
    outer loop
      vertex 0 -0.24423885 8.418751
      vertex 0 3.1536798 1.8101597
      vertex 0 0 8.4
    endloop
  endfacet
  facet normal 1 0 0
    outer loop
      vertex 0 -0.4827528 8.4745655
      vertex 0 3.1536798 1.8101597
      vertex 0 -0.24423885 8.418751
    endloop
  endfacet
  facet normal 1 0 0
    outer loop
      vertex 0 -3.6438398 -2.0523996
      vertex 0 -0.4827528 8.4745655
      vertex 0 -0.7099514 8.566134
    endloop
  endfacet
  facet normal 1 0 0
    outer loop
      vertex 0 -3.6438398 -2.0523996
      vertex 0 -0.7099514 8.566134
      vertex 0 -0.92050934 8.691313
    endloop
  endfacet
  facet normal 1 0 0
    outer loop
      vertex 0 -3.6438398 -2.0523996
      vertex 0 -0.92050934 8.691313
      vertex 0 -1.1094913 8.847165
    endloop
  endfacet
  facet normal 1 0 0
    outer loop
      vertex 0 -3.6438398 -2.0523996
      vertex 0 -1.1094913 8.847165
      vertex 0 -1.2724686 9.030039
    endloop
  endfacet
  facet normal 1 0 0
    outer loop
      vertex 0 -3.6438398 -2.0523996
      vertex 0 -1.2724686 9.030039
      vertex 0 -1.4056187 9.235648
    endloop
  endfacet
  facet normal 1 0 0
    outer loop
      vertex 0 -3.6438398 -2.0523996
      vertex 0 -1.4056187 9.235648
      vertex 0 -1.5058231 9.459172
    endloop
  endfacet
  facet normal 1 0 0
    outer loop
      vertex 0 -3.6438398 -2.0523996
      vertex 0 -1.5058231 9.459172
      vertex 0 -1.5707331 9.695374
    endloop
  endfacet
  facet normal 1 0 0
    outer loop
      vertex 0 -3.6438398 -2.0523996
      vertex 0 -1.5707331 9.695374
      vertex 0 -1.5988255 9.938715
    endloop
  endfacet
  facet normal 1 0 0
    outer loop
      vertex 0 -3.6438398 -2.0523996
      vertex 0 3.1536798 -2.0523996
      vertex 0 3.1536798 1.8101597
    endloop
  endfacet
  facet normal 1 0 0
    outer loop
      vertex 0 -3.6438398 -2.0523996
      vertex 0 3.1536798 1.8101597
      vertex 0 -0.4827528 8.4745655
    endloop
  endfacet
  facet normal 1 0 0
    outer loop
      vertex 0 -3.6438398 -3.0885592
      vertex 0 -0.122478485 -8.404695
      vertex 0 0.122478485 -8.404695
    endloop
  endfacet
  facet normal 1 0 0
    outer loop
      vertex 0 -3.6438398 -3.0885592
      vertex 0 -0.3645649 -8.442087
      vertex 0 -0.122478485 -8.404695
    endloop
  endfacet
  facet normal 1 0 0
    outer loop
      vertex 0 -3.6438398 -3.0885592
      vertex 0 -0.5981064 -8.515996
      vertex 0 -0.3645649 -8.442087
    endloop
  endfacet
  facet normal 1 0 0
    outer loop
      vertex 0 -3.6438398 -3.0885592
      vertex 0 -0.8176298 -8.624688
      vertex 0 -0.5981064 -8.515996
    endloop
  endfacet
  facet normal 1 0 0
    outer loop
      vertex 0 -3.6438398 -3.0885592
      vertex 0 -1.0179873 -8.765616
      vertex 0 -0.8176298 -8.624688
    endloop
  endfacet
  facet normal 1 0 0
    outer loop
      vertex 0 -3.6438398 -3.0885592
      vertex 0 -1.1944847 -8.935478
      vertex 0 -1.0179873 -8.765616
    endloop
  endfacet
  facet normal 1 0 0
    outer loop
      vertex 0 -3.6438398 -3.0885592
      vertex 0 -1.3429842 -9.130291
      vertex 0 -1.1944847 -8.935478
    endloop
  endfacet
  facet normal 1 0 0
    outer loop
      vertex 0 -3.6438398 -3.0885592
      vertex 0 -1.4600058 -9.3454895
      vertex 0 -1.3429842 -9.130291
    endloop
  endfacet
  facet normal 1 0 0
    outer loop
      vertex 0 -3.6438398 -3.0885592
      vertex 0 -1.5428047 -9.576029
      vertex 0 -1.4600058 -9.3454895
    endloop
  endfacet
  facet normal 1 0 0
    outer loop
      vertex 0 -3.6438398 -3.0885592
      vertex 0 -1.5894432 -9.816506
      vertex 0 -1.5428047 -9.576029
    endloop
  endfacet
  facet normal 1 0 0
    outer loop
      vertex 0 -3.6438398 -3.0885592
      vertex 0 -1.5988255 -10.061284
      vertex 0 -1.5894432 -9.816506
    endloop
  endfacet
  facet normal 1 0 0
    outer loop
      vertex 0 -3.6438398 -3.0885592
      vertex 0 0.122478485 -8.404695
      vertex 0 4 -3.0885592
    endloop
  endfacet
  facet normal 1 0 0
    outer loop
      vertex 0 -4.5999994 -19.5
      vertex 0 -0.24423885 -11.581248
      vertex 0 -0.4827528 -11.525434
    endloop
  endfacet
  facet normal 1 0 0
    outer loop
      vertex 0 -4.5999994 -19.5
      vertex 0 -0.4827528 -11.525434
      vertex 0 -0.7099514 -11.433865
    endloop
  endfacet
  facet normal 1 0 0
    outer loop
      vertex 0 -4.5999994 -19.5
      vertex 0 -0.7099514 -11.433865
      vertex 0 -0.92050934 -11.308686
    endloop
  endfacet
  facet normal 1 0 0
    outer loop
      vertex 0 -4.5999994 -19.5
      vertex 0 -0.92050934 -11.308686
      vertex 0 -1.1094913 -11.152834
    endloop
  endfacet
  facet normal 1 0 0
    outer loop
      vertex 0 -4.5999994 -19.5
      vertex 0 -1.1094913 -11.152834
      vertex 0 -1.2724686 -10.96996
    endloop
  endfacet
  facet normal 1 0 0
    outer loop
      vertex 0 -4.5999994 -19.5
      vertex 0 -1.2724686 -10.96996
      vertex 0 -1.4056187 -10.764351
    endloop
  endfacet
  facet normal 1 0 0
    outer loop
      vertex 0 -4.5999994 -19.5
      vertex 0 -1.4056187 -10.764351
      vertex 0 -1.5058231 -10.540827
    endloop
  endfacet
  facet normal 1 0 0
    outer loop
      vertex 0 -4.5999994 -19.5
      vertex 0 -1.5058231 -10.540827
      vertex 0 -1.5707331 -10.3046255
    endloop
  endfacet
  facet normal 1 0 0
    outer loop
      vertex 0 -4.5999994 -19.5
      vertex 0 -1.5707331 -10.3046255
      vertex 0 -1.5988255 -10.061284
    endloop
  endfacet
  facet normal 1 0 0
    outer loop
      vertex 0 -4.5999994 -19.5
      vertex 0 -1.5988255 -10.061284
      vertex 0 -3.6438398 -3.0885592
    endloop
  endfacet
  facet normal 1 0 0
    outer loop
      vertex 0 -4.5999994 -19.5
      vertex 0 -3.6438398 -2.0523996
      vertex 0 -4.5999994 19.5
    endloop
  endfacet
  facet normal 1 0 0
    outer loop
      vertex 0 -4.5999994 -19.5
      vertex 0 -3.6438398 -3.0885592
      vertex 0 -3.6438398 -2.0523996
    endloop
  endfacet
  facet normal 0 1 0
    outer loop
      vertex 0 -4.5999994 -19.5
      vertex 0 -4.5999994 19.5
      vertex 1.5999994 -4.5999994 -19.5
    endloop
  endfacet
  facet normal 1 0 0
    outer loop
      vertex 0 -4.5999994 -19.5
      vertex 0 0 -11.599999
      vertex 0 -0.24423885 -11.581248
    endloop
  endfacet
  facet normal 1 0 0
    outer loop
      vertex 0 -4.5999994 -19.5
      vertex 0 4.5999994 -19.5
      vertex 0 0 -11.599999
    endloop
  endfacet
  facet normal 0 0 -1
    outer loop
      vertex 0 -4.5999994 -19.5
      vertex 1.5999994 -4.5999994 -19.5
      vertex 1.5999994 -5.5 -19.5
    endloop
  endfacet
  facet normal 1 0 0
    outer loop
      vertex 0 -4.5999994 19.5
      vertex 0 -0.122478485 11.5953045
      vertex 0 4.5999994 19.5
    endloop
  endfacet
  facet normal 1 0 0
    outer loop
      vertex 0 -4.5999994 19.5
      vertex 0 -0.3645649 11.557912
      vertex 0 -0.122478485 11.5953045
    endloop
  endfacet
  facet normal 1 0 0
    outer loop
      vertex 0 -4.5999994 19.5
      vertex 0 -0.5981064 11.484003
      vertex 0 -0.3645649 11.557912
    endloop
  endfacet
  facet normal 1 0 0
    outer loop
      vertex 0 -4.5999994 19.5
      vertex 0 -0.8176298 11.375311
      vertex 0 -0.5981064 11.484003
    endloop
  endfacet
  facet normal 1 0 0
    outer loop
      vertex 0 -4.5999994 19.5
      vertex 0 -1.0179873 11.234383
      vertex 0 -0.8176298 11.375311
    endloop
  endfacet
  facet normal 1 0 0
    outer loop
      vertex 0 -4.5999994 19.5
      vertex 0 -1.1944847 11.064521
      vertex 0 -1.0179873 11.234383
    endloop
  endfacet
  facet normal 1 0 0
    outer loop
      vertex 0 -4.5999994 19.5
      vertex 0 -1.3429842 10.869708
      vertex 0 -1.1944847 11.064521
    endloop
  endfacet
  facet normal 1 0 0
    outer loop
      vertex 0 -4.5999994 19.5
      vertex 0 -1.4600058 10.65451
      vertex 0 -1.3429842 10.869708
    endloop
  endfacet
  facet normal 1 0 0
    outer loop
      vertex 0 -4.5999994 19.5
      vertex 0 -1.5428047 10.42397
      vertex 0 -1.4600058 10.65451
    endloop
  endfacet
  facet normal 1 0 0
    outer loop
      vertex 0 -4.5999994 19.5
      vertex 0 -1.5894432 10.183493
      vertex 0 -1.5428047 10.42397
    endloop
  endfacet
  facet normal 1 0 0
    outer loop
      vertex 0 -4.5999994 19.5
      vertex 0 -1.5988255 9.938715
      vertex 0 -1.5894432 10.183493
    endloop
  endfacet
  facet normal 1 0 0
    outer loop
      vertex 0 -4.5999994 19.5
      vertex 0 -3.6438398 -2.0523996
      vertex 0 -1.5988255 9.938715
    endloop
  endfacet
  facet normal 0 1 0
    outer loop
      vertex 0 -4.5999994 19.5
      vertex 1.5999994 -4.5999994 19.5
      vertex 1.5999994 -4.5999994 -19.5
    endloop
  endfacet
  facet normal 0 0 1
    outer loop
      vertex 0 -4.5999994 19.5
      vertex 1.5999994 -5.5 19.5
      vertex 1.5999994 -4.5999994 19.5
    endloop
  endfacet
  facet normal 1 0 0
    outer loop
      vertex 0 0 -11.599999
      vertex 0 4.5999994 -19.5
      vertex 0 0.24423885 -11.581248
    endloop
  endfacet
  facet normal 1 0 0
    outer loop
      vertex 0 0 8.4
      vertex 0 3.1536798 1.8101597
      vertex 0 0.24423885 8.418751
    endloop
  endfacet
  facet normal 1 0 0
    outer loop
      vertex 0 0.122478485 -8.404695
      vertex 0 0.3645649 -8.442087
      vertex 0 4 -3.0885592
    endloop
  endfacet
  facet normal 1 0 0
    outer loop
      vertex 0 0.122478485 11.5953045
      vertex 0 0.3645649 11.557912
      vertex 0 4.5999994 19.5
    endloop
  endfacet
  facet normal 1 0 0
    outer loop
      vertex 0 0.24423885 -11.581248
      vertex 0 4.5999994 -19.5
      vertex 0 0.4827528 -11.525434
    endloop
  endfacet
  facet normal 1 0 0
    outer loop
      vertex 0 0.24423885 8.418751
      vertex 0 3.1536798 1.8101597
      vertex 0 0.4827528 8.4745655
    endloop
  endfacet
  facet normal 1 0 0
    outer loop
      vertex 0 0.3645649 -8.442087
      vertex 0 0.5981064 -8.515996
      vertex 0 4 -3.0885592
    endloop
  endfacet
  facet normal 1 0 0
    outer loop
      vertex 0 0.3645649 11.557912
      vertex 0 0.5981064 11.484003
      vertex 0 4.5999994 19.5
    endloop
  endfacet
  facet normal 1 0 0
    outer loop
      vertex 0 0.4827528 -11.525434
      vertex 0 4.5999994 -19.5
      vertex 0 0.7099514 -11.433865
    endloop
  endfacet
  facet normal 1 0 0
    outer loop
      vertex 0 0.4827528 8.4745655
      vertex 0 3.1536798 1.8101597
      vertex 0 0.7099514 8.566134
    endloop
  endfacet
  facet normal 1 0 0
    outer loop
      vertex 0 0.5981064 -8.515996
      vertex 0 0.8176298 -8.624688
      vertex 0 4 -3.0885592
    endloop
  endfacet
  facet normal 1 0 0
    outer loop
      vertex 0 0.5981064 11.484003
      vertex 0 0.8176298 11.375311
      vertex 0 4.5999994 19.5
    endloop
  endfacet
  facet normal 1 0 0
    outer loop
      vertex 0 0.7099514 -11.433865
      vertex 0 4.5999994 -19.5
      vertex 0 0.92050934 -11.308686
    endloop
  endfacet
  facet normal 1 0 0
    outer loop
      vertex 0 0.7099514 8.566134
      vertex 0 3.1536798 1.8101597
      vertex 0 0.92050934 8.691313
    endloop
  endfacet
  facet normal 1 0 0
    outer loop
      vertex 0 0.8176298 -8.624688
      vertex 0 1.0179873 -8.765616
      vertex 0 4 -3.0885592
    endloop
  endfacet
  facet normal 1 0 0
    outer loop
      vertex 0 0.8176298 11.375311
      vertex 0 1.0179873 11.234383
      vertex 0 4.5999994 19.5
    endloop
  endfacet
  facet normal 1 0 0
    outer loop
      vertex 0 0.92050934 -11.308686
      vertex 0 4.5999994 -19.5
      vertex 0 1.1094913 -11.152834
    endloop
  endfacet
  facet normal 1 0 0
    outer loop
      vertex 0 0.92050934 8.691313
      vertex 0 3.1536798 1.8101597
      vertex 0 1.1094913 8.847165
    endloop
  endfacet
  facet normal 1 0 0
    outer loop
      vertex 0 1.0179873 -8.765616
      vertex 0 1.1944847 -8.935478
      vertex 0 4 -3.0885592
    endloop
  endfacet
  facet normal 1 0 0
    outer loop
      vertex 0 1.0179873 11.234383
      vertex 0 1.1944847 11.064521
      vertex 0 4.5999994 19.5
    endloop
  endfacet
  facet normal 1 0 0
    outer loop
      vertex 0 1.1094913 -11.152834
      vertex 0 4.5999994 -19.5
      vertex 0 1.2724686 -10.96996
    endloop
  endfacet
  facet normal 1 0 0
    outer loop
      vertex 0 1.1094913 8.847165
      vertex 0 3.1536798 1.8101597
      vertex 0 4 1.8101597
    endloop
  endfacet
  facet normal 1 0 0
    outer loop
      vertex 0 1.1094913 8.847165
      vertex 0 4 1.8101597
      vertex 0 1.2724686 9.030039
    endloop
  endfacet
  facet normal 1 0 0
    outer loop
      vertex 0 1.1944847 -8.935478
      vertex 0 1.3429842 -9.130291
      vertex 0 4 -3.0885592
    endloop
  endfacet
  facet normal 1 0 0
    outer loop
      vertex 0 1.1944847 11.064521
      vertex 0 1.3429842 10.869708
      vertex 0 4.5999994 19.5
    endloop
  endfacet
  facet normal 1 0 0
    outer loop
      vertex 0 1.2724686 -10.96996
      vertex 0 4.5999994 -19.5
      vertex 0 1.4056187 -10.764351
    endloop
  endfacet
  facet normal 1 0 0
    outer loop
      vertex 0 1.2724686 9.030039
      vertex 0 4 1.8101597
      vertex 0 1.4056187 9.235648
    endloop
  endfacet
  facet normal 1 0 0
    outer loop
      vertex 0 1.3429842 -9.130291
      vertex 0 1.4600058 -9.3454895
      vertex 0 4 -3.0885592
    endloop
  endfacet
  facet normal 1 0 0
    outer loop
      vertex 0 1.3429842 10.869708
      vertex 0 1.4600058 10.65451
      vertex 0 4.5999994 19.5
    endloop
  endfacet
  facet normal 1 0 0
    outer loop
      vertex 0 1.4056187 -10.764351
      vertex 0 4.5999994 -19.5
      vertex 0 1.5058231 -10.540827
    endloop
  endfacet
  facet normal 1 0 0
    outer loop
      vertex 0 1.4056187 9.235648
      vertex 0 4 1.8101597
      vertex 0 1.5058231 9.459172
    endloop
  endfacet
  facet normal 1 0 0
    outer loop
      vertex 0 1.4600058 -9.3454895
      vertex 0 1.5428047 -9.576029
      vertex 0 4 -3.0885592
    endloop
  endfacet
  facet normal 1 0 0
    outer loop
      vertex 0 1.4600058 10.65451
      vertex 0 1.5428047 10.42397
      vertex 0 4.5999994 19.5
    endloop
  endfacet
  facet normal 1 0 0
    outer loop
      vertex 0 1.5058231 -10.540827
      vertex 0 4.5999994 -19.5
      vertex 0 1.5707331 -10.3046255
    endloop
  endfacet
  facet normal 1 0 0
    outer loop
      vertex 0 1.5058231 9.459172
      vertex 0 4 1.8101597
      vertex 0 1.5707331 9.695374
    endloop
  endfacet
  facet normal 1 0 0
    outer loop
      vertex 0 1.5428047 -9.576029
      vertex 0 1.5894432 -9.816506
      vertex 0 4 -3.0885592
    endloop
  endfacet
  facet normal 1 0 0
    outer loop
      vertex 0 1.5428047 10.42397
      vertex 0 1.5894432 10.183493
      vertex 0 4.5999994 19.5
    endloop
  endfacet
  facet normal 1 0 0
    outer loop
      vertex 0 1.5707331 -10.3046255
      vertex 0 4.5999994 -19.5
      vertex 0 1.5988255 -10.061284
    endloop
  endfacet
  facet normal 1 0 0
    outer loop
      vertex 0 1.5707331 9.695374
      vertex 0 4 1.8101597
      vertex 0 1.5988255 9.938715
    endloop
  endfacet
  facet normal 1 0 0
    outer loop
      vertex 0 1.5894432 -9.816506
      vertex 0 1.5988255 -10.061284
      vertex 0 4 -3.0885592
    endloop
  endfacet
  facet normal 1 0 0
    outer loop
      vertex 0 1.5894432 10.183493
      vertex 0 1.5988255 9.938715
      vertex 0 4.5999994 19.5
    endloop
  endfacet
  facet normal 1 0 0
    outer loop
      vertex 0 1.5988255 -10.061284
      vertex 0 4.5999994 -19.5
      vertex 0 4 -3.0885592
    endloop
  endfacet
  facet normal 1 0 0
    outer loop
      vertex 0 1.5988255 9.938715
      vertex 0 4 1.8101597
      vertex 0 4.5999994 19.5
    endloop
  endfacet
  facet normal 1 0 0
    outer loop
      vertex 0 4 -3.0885592
      vertex 0 4.5999994 -19.5
      vertex 0 4 1.8101597
    endloop
  endfacet
  facet normal 1 0 0
    outer loop
      vertex 0 4 1.8101597
      vertex 0 4.5999994 -19.5
      vertex 0 4.5999994 19.5
    endloop
  endfacet
  facet normal 0 -1 0
    outer loop
      vertex 0 4.5999994 -19.5
      vertex 1.5999994 4.5999994 -19.5
      vertex 1.5999994 4.5999994 19.5
    endloop
  endfacet
  facet normal 0 -1 0
    outer loop
      vertex 0 4.5999994 -19.5
      vertex 1.5999994 4.5999994 19.5
      vertex 0 4.5999994 19.5
    endloop
  endfacet
  facet normal 0 0 -1
    outer loop
      vertex 0 4.5999994 -19.5
      vertex 1.5999994 7.5 -19.5
      vertex 1.5999994 4.5999994 -19.5
    endloop
  endfacet
  facet normal 0 0 1
    outer loop
      vertex 0 4.5999994 19.5
      vertex 1.5999994 4.5999994 19.5
      vertex 1.5999994 7.5 19.5
    endloop
  endfacet
  facet normal 1 0 0
    outer loop
      vertex 1.5999994 -5.5 -19.5
      vertex 1.5999994 -4.5999994 -19.5
      vertex 1.5999994 -5.5 19.5
    endloop
  endfacet
  facet normal 1 0 0
    outer loop
      vertex 1.5999994 -5.5 19.5
      vertex 1.5999994 -4.5999994 -19.5
      vertex 1.5999994 -4.5999994 19.5
    endloop
  endfacet
  facet normal 1 0 0
    outer loop
      vertex 1.5999994 4.5999994 -19.5
      vertex 1.5999994 7.5 -19.5
      vertex 1.5999994 4.5999994 19.5
    endloop
  endfacet
  facet normal 1 0 0
    outer loop
      vertex 1.5999994 4.5999994 19.5
      vertex 1.5999994 7.5 -19.5
      vertex 1.5999994 7.5 19.5
    endloop
  endfacet
endsolid OpenSCAD_Model
