solid OpenSCAD_Model
  facet normal 0.0383332 0.999265 0
    outer loop
      vertex -0.183493 -1.58944 -3.6
      vertex -0.183493 -1.58944 0
      vertex 0.0612841 -1.59883 -3.6
    endloop
  endfacet
  facet normal 0.0383332 0.999265 0
    outer loop
      vertex -0.183493 -1.58944 0
      vertex 0.0612841 -1.59883 0
      vertex 0.0612841 -1.59883 -3.6
    endloop
  endfacet
  facet normal 0.0383332 -0.999265 0
    outer loop
      vertex -0.183493 1.58944 -3.6
      vertex 0.0612841 1.59883 -3.6
      vertex 0.0612841 1.59883 0
    endloop
  endfacet
  facet normal 0.0383332 -0.999265 0
    outer loop
      vertex -0.183493 1.58944 -3.6
      vertex 0.0612841 1.59883 0
      vertex -0.183493 1.58944 0
    endloop
  endfacet
  facet normal 0.1904 0.981707 0
    outer loop
      vertex -0.42397 -1.5428 -3.6
      vertex -0.42397 -1.5428 0
      vertex -0.183493 -1.58944 -3.6
    endloop
  endfacet
  facet normal 0.1904 0.981707 0
    outer loop
      vertex -0.42397 -1.5428 0
      vertex -0.183493 -1.58944 0
      vertex -0.183493 -1.58944 -3.6
    endloop
  endfacet
  facet normal 0.1904 -0.981707 0
    outer loop
      vertex -0.42397 1.5428 -3.6
      vertex -0.183493 1.58944 -3.6
      vertex -0.183493 1.58944 0
    endloop
  endfacet
  facet normal 0.1904 -0.981707 0
    outer loop
      vertex -0.42397 1.5428 -3.6
      vertex -0.183493 1.58944 0
      vertex -0.42397 1.5428 0
    endloop
  endfacet
  facet normal 0.337981 0.941153 0
    outer loop
      vertex -0.65451 -1.46001 -3.6
      vertex -0.65451 -1.46001 0
      vertex -0.42397 -1.5428 -3.6
    endloop
  endfacet
  facet normal 0.337981 0.941153 0
    outer loop
      vertex -0.65451 -1.46001 0
      vertex -0.42397 -1.5428 0
      vertex -0.42397 -1.5428 -3.6
    endloop
  endfacet
  facet normal 0.337981 -0.941153 0
    outer loop
      vertex -0.65451 1.46001 -3.6
      vertex -0.42397 1.5428 -3.6
      vertex -0.42397 1.5428 0
    endloop
  endfacet
  facet normal 0.337981 -0.941153 0
    outer loop
      vertex -0.65451 1.46001 -3.6
      vertex -0.42397 1.5428 0
      vertex -0.65451 1.46001 0
    endloop
  endfacet
  facet normal 0.477748 0.878497 0
    outer loop
      vertex -0.869708 -1.34298 -3.6
      vertex -0.869708 -1.34298 0
      vertex -0.65451 -1.46001 -3.6
    endloop
  endfacet
  facet normal 0.477748 0.878497 0
    outer loop
      vertex -0.869708 -1.34298 0
      vertex -0.65451 -1.46001 0
      vertex -0.65451 -1.46001 -3.6
    endloop
  endfacet
  facet normal 0.477748 -0.878497 0
    outer loop
      vertex -0.869708 1.34298 -3.6
      vertex -0.65451 1.46001 -3.6
      vertex -0.65451 1.46001 0
    endloop
  endfacet
  facet normal 0.477748 -0.878497 0
    outer loop
      vertex -0.869708 1.34298 -3.6
      vertex -0.65451 1.46001 0
      vertex -0.869708 1.34298 0
    endloop
  endfacet
  facet normal 0.606229 0.79529 0
    outer loop
      vertex -1.06452 -1.19448 -3.6
      vertex -1.06452 -1.19448 0
      vertex -0.869708 -1.34298 -3.6
    endloop
  endfacet
  facet normal 0.606229 0.79529 0
    outer loop
      vertex -1.06452 -1.19448 0
      vertex -0.869708 -1.34298 0
      vertex -0.869708 -1.34298 -3.6
    endloop
  endfacet
  facet normal 0.606229 -0.79529 0
    outer loop
      vertex -1.06452 1.19448 -3.6
      vertex -0.869708 1.34298 -3.6
      vertex -0.869708 1.34298 0
    endloop
  endfacet
  facet normal 0.606229 -0.79529 0
    outer loop
      vertex -1.06452 1.19448 -3.6
      vertex -0.869708 1.34298 0
      vertex -1.06452 1.19448 0
    endloop
  endfacet
  facet normal 0.720511 0.693444 0
    outer loop
      vertex -1.23438 -1.01799 -3.6
      vertex -1.06452 -1.19448 0
      vertex -1.06452 -1.19448 -3.6
    endloop
  endfacet
  facet normal 0.720511 0.693444 0
    outer loop
      vertex -1.23438 -1.01799 -3.6
      vertex -1.23438 -1.01799 0
      vertex -1.06452 -1.19448 0
    endloop
  endfacet
  facet normal 0.720511 -0.693444 0
    outer loop
      vertex -1.23438 1.01799 -3.6
      vertex -1.06452 1.19448 -3.6
      vertex -1.23438 1.01799 0
    endloop
  endfacet
  facet normal 0.720511 -0.693444 0
    outer loop
      vertex -1.23438 1.01799 0
      vertex -1.06452 1.19448 -3.6
      vertex -1.06452 1.19448 0
    endloop
  endfacet
  facet normal 0.81793 0.575318 0
    outer loop
      vertex -1.37531 -0.81763 -3.6
      vertex -1.23438 -1.01799 0
      vertex -1.23438 -1.01799 -3.6
    endloop
  endfacet
  facet normal 0.81793 0.575318 0
    outer loop
      vertex -1.37531 -0.81763 -3.6
      vertex -1.37531 -0.81763 0
      vertex -1.23438 -1.01799 0
    endloop
  endfacet
  facet normal 0.81793 -0.575318 0
    outer loop
      vertex -1.37531 0.81763 -3.6
      vertex -1.23438 1.01799 -3.6
      vertex -1.37531 0.81763 0
    endloop
  endfacet
  facet normal 0.81793 -0.575318 0
    outer loop
      vertex -1.37531 0.81763 0
      vertex -1.23438 1.01799 -3.6
      vertex -1.23438 1.01799 0
    endloop
  endfacet
  facet normal 0.896171 0.443709 0
    outer loop
      vertex -1.484 -0.598106 -3.6
      vertex -1.37531 -0.81763 0
      vertex -1.37531 -0.81763 -3.6
    endloop
  endfacet
  facet normal 0.896171 0.443709 0
    outer loop
      vertex -1.484 -0.598106 -3.6
      vertex -1.484 -0.598106 0
      vertex -1.37531 -0.81763 0
    endloop
  endfacet
  facet normal 0.896171 -0.443709 0
    outer loop
      vertex -1.484 0.598106 -3.6
      vertex -1.37531 0.81763 -3.6
      vertex -1.484 0.598106 0
    endloop
  endfacet
  facet normal 0.896171 -0.443709 0
    outer loop
      vertex -1.484 0.598106 0
      vertex -1.37531 0.81763 -3.6
      vertex -1.37531 0.81763 0
    endloop
  endfacet
  facet normal 0.953395 0.301726 0
    outer loop
      vertex -1.55791 -0.364565 -3.6
      vertex -1.484 -0.598106 0
      vertex -1.484 -0.598106 -3.6
    endloop
  endfacet
  facet normal 0.953395 0.301726 0
    outer loop
      vertex -1.55791 -0.364565 -3.6
      vertex -1.55791 -0.364565 0
      vertex -1.484 -0.598106 0
    endloop
  endfacet
  facet normal 0.953395 -0.301726 0
    outer loop
      vertex -1.55791 0.364565 -3.6
      vertex -1.484 0.598106 -3.6
      vertex -1.55791 0.364565 0
    endloop
  endfacet
  facet normal 0.953395 -0.301726 0
    outer loop
      vertex -1.55791 0.364565 0
      vertex -1.484 0.598106 -3.6
      vertex -1.484 0.598106 0
    endloop
  endfacet
  facet normal 0.988282 0.152639 0
    outer loop
      vertex -1.5953 -0.122478 -3.6
      vertex -1.55791 -0.364565 0
      vertex -1.55791 -0.364565 -3.6
    endloop
  endfacet
  facet normal 0.988282 0.152639 0
    outer loop
      vertex -1.5953 -0.122478 -3.6
      vertex -1.5953 -0.122478 0
      vertex -1.55791 -0.364565 0
    endloop
  endfacet
  facet normal 1 0 0
    outer loop
      vertex -1.5953 -0.122478 -3.6
      vertex -1.5953 0.122478 -3.6
      vertex -1.5953 -0.122478 0
    endloop
  endfacet
  facet normal 1 0 0
    outer loop
      vertex -1.5953 -0.122478 0
      vertex -1.5953 0.122478 -3.6
      vertex -1.5953 0.122478 0
    endloop
  endfacet
  facet normal 0.988282 -0.152639 0
    outer loop
      vertex -1.5953 0.122478 -3.6
      vertex -1.55791 0.364565 -3.6
      vertex -1.5953 0.122478 0
    endloop
  endfacet
  facet normal 0.988282 -0.152639 0
    outer loop
      vertex -1.5953 0.122478 0
      vertex -1.55791 0.364565 -3.6
      vertex -1.55791 0.364565 0
    endloop
  endfacet
  facet normal 0 0 -1
    outer loop
      vertex -18.4 0 -3.6
      vertex -1.5953 0.122478 -3.6
      vertex -1.5953 -0.122478 -3.6
    endloop
  endfacet
  facet normal 0 0 1
    outer loop
      vertex -18.4 0 0
      vertex -1.5953 -0.122478 0
      vertex -1.5953 0.122478 0
    endloop
  endfacet
  facet normal 0 0 -1
    outer loop
      vertex -18.4188 -0.244239 -3.6
      vertex -1.5953 -0.122478 -3.6
      vertex -1.55791 -0.364565 -3.6
    endloop
  endfacet
  facet normal 0 0 -1
    outer loop
      vertex -18.4188 -0.244239 -3.6
      vertex -18.4 0 -3.6
      vertex -1.5953 -0.122478 -3.6
    endloop
  endfacet
  facet normal -0.997051 0.0767468 0
    outer loop
      vertex -18.4188 -0.244239 -3.6
      vertex -18.4 0 0
      vertex -18.4 0 -3.6
    endloop
  endfacet
  facet normal -0.997051 0.0767468 0
    outer loop
      vertex -18.4188 -0.244239 -3.6
      vertex -18.4188 -0.244239 0
      vertex -18.4 0 0
    endloop
  endfacet
  facet normal 0 0 1
    outer loop
      vertex -18.4188 -0.244239 0
      vertex -1.55791 -0.364565 0
      vertex -1.5953 -0.122478 0
    endloop
  endfacet
  facet normal 0 0 1
    outer loop
      vertex -18.4188 -0.244239 0
      vertex -1.5953 -0.122478 0
      vertex -18.4 0 0
    endloop
  endfacet
  facet normal 0 0 -1
    outer loop
      vertex -18.4188 0.244239 -3.6
      vertex -1.55791 0.364565 -3.6
      vertex -1.5953 0.122478 -3.6
    endloop
  endfacet
  facet normal 0 0 -1
    outer loop
      vertex -18.4188 0.244239 -3.6
      vertex -1.5953 0.122478 -3.6
      vertex -18.4 0 -3.6
    endloop
  endfacet
  facet normal -0.997051 -0.0767468 0
    outer loop
      vertex -18.4188 0.244239 -3.6
      vertex -18.4 0 -3.6
      vertex -18.4188 0.244239 0
    endloop
  endfacet
  facet normal 0 0 1
    outer loop
      vertex -18.4188 0.244239 0
      vertex -1.5953 0.122478 0
      vertex -1.55791 0.364565 0
    endloop
  endfacet
  facet normal -0.997051 -0.0767468 0
    outer loop
      vertex -18.4188 0.244239 0
      vertex -18.4 0 -3.6
      vertex -18.4 0 0
    endloop
  endfacet
  facet normal 0 0 1
    outer loop
      vertex -18.4188 0.244239 0
      vertex -18.4 0 0
      vertex -1.5953 0.122478 0
    endloop
  endfacet
  facet normal 0 0 -1
    outer loop
      vertex -18.4746 -0.482753 -3.6
      vertex -1.55791 -0.364565 -3.6
      vertex -1.484 -0.598106 -3.6
    endloop
  endfacet
  facet normal 0 0 -1
    outer loop
      vertex -18.4746 -0.482753 -3.6
      vertex -18.4188 -0.244239 -3.6
      vertex -1.55791 -0.364565 -3.6
    endloop
  endfacet
  facet normal -0.973708 0.227798 0
    outer loop
      vertex -18.4746 -0.482753 -3.6
      vertex -18.4188 -0.244239 0
      vertex -18.4188 -0.244239 -3.6
    endloop
  endfacet
  facet normal -0.973708 0.227798 0
    outer loop
      vertex -18.4746 -0.482753 -3.6
      vertex -18.4746 -0.482753 0
      vertex -18.4188 -0.244239 0
    endloop
  endfacet
  facet normal 0 0 1
    outer loop
      vertex -18.4746 -0.482753 0
      vertex -1.484 -0.598106 0
      vertex -1.55791 -0.364565 0
    endloop
  endfacet
  facet normal 0 0 1
    outer loop
      vertex -18.4746 -0.482753 0
      vertex -1.55791 -0.364565 0
      vertex -18.4188 -0.244239 0
    endloop
  endfacet
  facet normal 0 0 -1
    outer loop
      vertex -18.4746 0.482753 -3.6
      vertex -1.484 0.598106 -3.6
      vertex -1.55791 0.364565 -3.6
    endloop
  endfacet
  facet normal 0 0 -1
    outer loop
      vertex -18.4746 0.482753 -3.6
      vertex -1.55791 0.364565 -3.6
      vertex -18.4188 0.244239 -3.6
    endloop
  endfacet
  facet normal -0.973708 -0.227798 0
    outer loop
      vertex -18.4746 0.482753 -3.6
      vertex -18.4188 0.244239 -3.6
      vertex -18.4746 0.482753 0
    endloop
  endfacet
  facet normal 0 0 1
    outer loop
      vertex -18.4746 0.482753 0
      vertex -1.55791 0.364565 0
      vertex -1.484 0.598106 0
    endloop
  endfacet
  facet normal -0.973708 -0.227798 0
    outer loop
      vertex -18.4746 0.482753 0
      vertex -18.4188 0.244239 -3.6
      vertex -18.4188 0.244239 0
    endloop
  endfacet
  facet normal 0 0 1
    outer loop
      vertex -18.4746 0.482753 0
      vertex -18.4188 0.244239 0
      vertex -1.55791 0.364565 0
    endloop
  endfacet
  facet normal 0 0 -1
    outer loop
      vertex -18.5661 -0.709951 -3.6
      vertex -1.484 -0.598106 -3.6
      vertex -1.37531 -0.81763 -3.6
    endloop
  endfacet
  facet normal 0 0 -1
    outer loop
      vertex -18.5661 -0.709951 -3.6
      vertex -18.4746 -0.482753 -3.6
      vertex -1.484 -0.598106 -3.6
    endloop
  endfacet
  facet normal -0.9276 0.373575 0
    outer loop
      vertex -18.5661 -0.709951 -3.6
      vertex -18.4746 -0.482753 0
      vertex -18.4746 -0.482753 -3.6
    endloop
  endfacet
  facet normal -0.9276 0.373575 0
    outer loop
      vertex -18.5661 -0.709951 -3.6
      vertex -18.5661 -0.709951 0
      vertex -18.4746 -0.482753 0
    endloop
  endfacet
  facet normal 0 0 1
    outer loop
      vertex -18.5661 -0.709951 0
      vertex -1.37531 -0.81763 0
      vertex -1.484 -0.598106 0
    endloop
  endfacet
  facet normal 0 0 1
    outer loop
      vertex -18.5661 -0.709951 0
      vertex -1.484 -0.598106 0
      vertex -18.4746 -0.482753 0
    endloop
  endfacet
  facet normal 0 0 -1
    outer loop
      vertex -18.5661 0.709951 -3.6
      vertex -1.37531 0.81763 -3.6
      vertex -1.484 0.598106 -3.6
    endloop
  endfacet
  facet normal 0 0 -1
    outer loop
      vertex -18.5661 0.709951 -3.6
      vertex -1.484 0.598106 -3.6
      vertex -18.4746 0.482753 -3.6
    endloop
  endfacet
  facet normal -0.9276 -0.373575 0
    outer loop
      vertex -18.5661 0.709951 -3.6
      vertex -18.4746 0.482753 -3.6
      vertex -18.5661 0.709951 0
    endloop
  endfacet
  facet normal 0 0 1
    outer loop
      vertex -18.5661 0.709951 0
      vertex -1.484 0.598106 0
      vertex -1.37531 0.81763 0
    endloop
  endfacet
  facet normal -0.9276 -0.373575 0
    outer loop
      vertex -18.5661 0.709951 0
      vertex -18.4746 0.482753 -3.6
      vertex -18.4746 0.482753 0
    endloop
  endfacet
  facet normal 0 0 1
    outer loop
      vertex -18.5661 0.709951 0
      vertex -18.4746 0.482753 0
      vertex -1.484 0.598106 0
    endloop
  endfacet
  facet normal 0 0 -1
    outer loop
      vertex -18.6913 -0.920509 -3.6
      vertex -1.37531 -0.81763 -3.6
      vertex -1.23438 -1.01799 -3.6
    endloop
  endfacet
  facet normal 0 0 -1
    outer loop
      vertex -18.6913 -0.920509 -3.6
      vertex -18.5661 -0.709951 -3.6
      vertex -1.37531 -0.81763 -3.6
    endloop
  endfacet
  facet normal -0.85953 0.511086 0
    outer loop
      vertex -18.6913 -0.920509 -3.6
      vertex -18.5661 -0.709951 0
      vertex -18.5661 -0.709951 -3.6
    endloop
  endfacet
  facet normal -0.85953 0.511086 0
    outer loop
      vertex -18.6913 -0.920509 -3.6
      vertex -18.6913 -0.920509 0
      vertex -18.5661 -0.709951 0
    endloop
  endfacet
  facet normal 0 0 1
    outer loop
      vertex -18.6913 -0.920509 0
      vertex -1.23438 -1.01799 0
      vertex -1.37531 -0.81763 0
    endloop
  endfacet
  facet normal 0 0 1
    outer loop
      vertex -18.6913 -0.920509 0
      vertex -1.37531 -0.81763 0
      vertex -18.5661 -0.709951 0
    endloop
  endfacet
  facet normal 0 0 -1
    outer loop
      vertex -18.6913 0.920509 -3.6
      vertex -1.23438 1.01799 -3.6
      vertex -1.37531 0.81763 -3.6
    endloop
  endfacet
  facet normal 0 0 -1
    outer loop
      vertex -18.6913 0.920509 -3.6
      vertex -1.37531 0.81763 -3.6
      vertex -18.5661 0.709951 -3.6
    endloop
  endfacet
  facet normal -0.85953 -0.511086 0
    outer loop
      vertex -18.6913 0.920509 -3.6
      vertex -18.5661 0.709951 -3.6
      vertex -18.6913 0.920509 0
    endloop
  endfacet
  facet normal 0 0 1
    outer loop
      vertex -18.6913 0.920509 0
      vertex -1.37531 0.81763 0
      vertex -1.23438 1.01799 0
    endloop
  endfacet
  facet normal -0.85953 -0.511086 0
    outer loop
      vertex -18.6913 0.920509 0
      vertex -18.5661 0.709951 -3.6
      vertex -18.5661 0.709951 0
    endloop
  endfacet
  facet normal 0 0 1
    outer loop
      vertex -18.6913 0.920509 0
      vertex -18.5661 0.709951 0
      vertex -1.37531 0.81763 0
    endloop
  endfacet
  facet normal 0 0 -1
    outer loop
      vertex -18.8472 -1.10949 -3.6
      vertex -1.23438 -1.01799 -3.6
      vertex -1.06452 -1.19448 -3.6
    endloop
  endfacet
  facet normal 0 0 -1
    outer loop
      vertex -18.8472 -1.10949 -3.6
      vertex -18.6913 -0.920509 -3.6
      vertex -1.23438 -1.01799 -3.6
    endloop
  endfacet
  facet normal -0.771392 0.63636 0
    outer loop
      vertex -18.8472 -1.10949 -3.6
      vertex -18.6913 -0.920509 0
      vertex -18.6913 -0.920509 -3.6
    endloop
  endfacet
  facet normal -0.771392 0.63636 0
    outer loop
      vertex -18.8472 -1.10949 -3.6
      vertex -18.8472 -1.10949 0
      vertex -18.6913 -0.920509 0
    endloop
  endfacet
  facet normal 0 0 1
    outer loop
      vertex -18.8472 -1.10949 0
      vertex -1.06452 -1.19448 0
      vertex -1.23438 -1.01799 0
    endloop
  endfacet
  facet normal 0 0 1
    outer loop
      vertex -18.8472 -1.10949 0
      vertex -1.23438 -1.01799 0
      vertex -18.6913 -0.920509 0
    endloop
  endfacet
  facet normal 0 0 -1
    outer loop
      vertex -18.8472 1.10949 -3.6
      vertex -1.06452 1.19448 -3.6
      vertex -1.23438 1.01799 -3.6
    endloop
  endfacet
  facet normal 0 0 -1
    outer loop
      vertex -18.8472 1.10949 -3.6
      vertex -1.23438 1.01799 -3.6
      vertex -18.6913 0.920509 -3.6
    endloop
  endfacet
  facet normal -0.771392 -0.63636 0
    outer loop
      vertex -18.8472 1.10949 -3.6
      vertex -18.6913 0.920509 -3.6
      vertex -18.8472 1.10949 0
    endloop
  endfacet
  facet normal 0 0 1
    outer loop
      vertex -18.8472 1.10949 0
      vertex -1.23438 1.01799 0
      vertex -1.06452 1.19448 0
    endloop
  endfacet
  facet normal -0.771392 -0.63636 0
    outer loop
      vertex -18.8472 1.10949 0
      vertex -18.6913 0.920509 -3.6
      vertex -18.6913 0.920509 0
    endloop
  endfacet
  facet normal 0 0 1
    outer loop
      vertex -18.8472 1.10949 0
      vertex -18.6913 0.920509 0
      vertex -1.23438 1.01799 0
    endloop
  endfacet
  facet normal 0 0 -1
    outer loop
      vertex -19.03 -1.27247 -3.6
      vertex -1.06452 -1.19448 -3.6
      vertex -0.869708 -1.34298 -3.6
    endloop
  endfacet
  facet normal 0 0 -1
    outer loop
      vertex -19.03 -1.27247 -3.6
      vertex -18.8472 -1.10949 -3.6
      vertex -1.06452 -1.19448 -3.6
    endloop
  endfacet
  facet normal -0.665483 0.746413 0
    outer loop
      vertex -19.03 -1.27247 -3.6
      vertex -19.03 -1.27247 0
      vertex -18.8472 -1.10949 -3.6
    endloop
  endfacet
  facet normal 0 0 1
    outer loop
      vertex -19.03 -1.27247 0
      vertex -0.869708 -1.34298 0
      vertex -1.06452 -1.19448 0
    endloop
  endfacet
  facet normal 0 0 1
    outer loop
      vertex -19.03 -1.27247 0
      vertex -1.06452 -1.19448 0
      vertex -18.8472 -1.10949 0
    endloop
  endfacet
  facet normal -0.665483 0.746413 0
    outer loop
      vertex -19.03 -1.27247 0
      vertex -18.8472 -1.10949 0
      vertex -18.8472 -1.10949 -3.6
    endloop
  endfacet
  facet normal 0 0 -1
    outer loop
      vertex -19.03 1.27247 -3.6
      vertex -0.869708 1.34298 -3.6
      vertex -1.06452 1.19448 -3.6
    endloop
  endfacet
  facet normal 0 0 -1
    outer loop
      vertex -19.03 1.27247 -3.6
      vertex -1.06452 1.19448 -3.6
      vertex -18.8472 1.10949 -3.6
    endloop
  endfacet
  facet normal -0.665483 -0.746413 0
    outer loop
      vertex -19.03 1.27247 -3.6
      vertex -18.8472 1.10949 -3.6
      vertex -18.8472 1.10949 0
    endloop
  endfacet
  facet normal -0.665483 -0.746413 0
    outer loop
      vertex -19.03 1.27247 -3.6
      vertex -18.8472 1.10949 0
      vertex -19.03 1.27247 0
    endloop
  endfacet
  facet normal 0 0 1
    outer loop
      vertex -19.03 1.27247 0
      vertex -1.06452 1.19448 0
      vertex -0.869708 1.34298 0
    endloop
  endfacet
  facet normal 0 0 1
    outer loop
      vertex -19.03 1.27247 0
      vertex -18.8472 1.10949 0
      vertex -1.06452 1.19448 0
    endloop
  endfacet
  facet normal 0 0 -1
    outer loop
      vertex -19.2356 -1.40562 -3.6
      vertex -0.869708 -1.34298 -3.6
      vertex -0.65451 -1.46001 -3.6
    endloop
  endfacet
  facet normal 0 0 -1
    outer loop
      vertex -19.2356 -1.40562 -3.6
      vertex -19.03 -1.27247 -3.6
      vertex -0.869708 -1.34298 -3.6
    endloop
  endfacet
  facet normal -0.543581 0.839357 0
    outer loop
      vertex -19.2356 -1.40562 -3.6
      vertex -19.2356 -1.40562 0
      vertex -19.03 -1.27247 -3.6
    endloop
  endfacet
  facet normal 0 0 1
    outer loop
      vertex -19.2356 -1.40562 0
      vertex -0.65451 -1.46001 0
      vertex -0.869708 -1.34298 0
    endloop
  endfacet
  facet normal 0 0 1
    outer loop
      vertex -19.2356 -1.40562 0
      vertex -0.869708 -1.34298 0
      vertex -19.03 -1.27247 0
    endloop
  endfacet
  facet normal -0.543581 0.839357 0
    outer loop
      vertex -19.2356 -1.40562 0
      vertex -19.03 -1.27247 0
      vertex -19.03 -1.27247 -3.6
    endloop
  endfacet
  facet normal 0 0 -1
    outer loop
      vertex -19.2356 1.40562 -3.6
      vertex -0.65451 1.46001 -3.6
      vertex -0.869708 1.34298 -3.6
    endloop
  endfacet
  facet normal 0 0 -1
    outer loop
      vertex -19.2356 1.40562 -3.6
      vertex -0.869708 1.34298 -3.6
      vertex -19.03 1.27247 -3.6
    endloop
  endfacet
  facet normal -0.543581 -0.839357 0
    outer loop
      vertex -19.2356 1.40562 -3.6
      vertex -19.03 1.27247 -3.6
      vertex -19.03 1.27247 0
    endloop
  endfacet
  facet normal -0.543581 -0.839357 0
    outer loop
      vertex -19.2356 1.40562 -3.6
      vertex -19.03 1.27247 0
      vertex -19.2356 1.40562 0
    endloop
  endfacet
  facet normal 0 0 1
    outer loop
      vertex -19.2356 1.40562 0
      vertex -0.869708 1.34298 0
      vertex -0.65451 1.46001 0
    endloop
  endfacet
  facet normal 0 0 1
    outer loop
      vertex -19.2356 1.40562 0
      vertex -19.03 1.27247 0
      vertex -0.869708 1.34298 0
    endloop
  endfacet
  facet normal 0 0 -1
    outer loop
      vertex -19.4592 -1.50582 -3.6
      vertex -0.65451 -1.46001 -3.6
      vertex -0.42397 -1.5428 -3.6
    endloop
  endfacet
  facet normal 0 0 -1
    outer loop
      vertex -19.4592 -1.50582 -3.6
      vertex -19.2356 -1.40562 -3.6
      vertex -0.65451 -1.46001 -3.6
    endloop
  endfacet
  facet normal -0.408939 0.912562 0
    outer loop
      vertex -19.4592 -1.50582 -3.6
      vertex -19.4592 -1.50582 0
      vertex -19.2356 -1.40562 -3.6
    endloop
  endfacet
  facet normal 0 0 1
    outer loop
      vertex -19.4592 -1.50582 0
      vertex -0.42397 -1.5428 0
      vertex -0.65451 -1.46001 0
    endloop
  endfacet
  facet normal 0 0 1
    outer loop
      vertex -19.4592 -1.50582 0
      vertex -0.65451 -1.46001 0
      vertex -19.2356 -1.40562 0
    endloop
  endfacet
  facet normal -0.408939 0.912562 0
    outer loop
      vertex -19.4592 -1.50582 0
      vertex -19.2356 -1.40562 0
      vertex -19.2356 -1.40562 -3.6
    endloop
  endfacet
  facet normal 0 0 -1
    outer loop
      vertex -19.4592 1.50582 -3.6
      vertex -0.42397 1.5428 -3.6
      vertex -0.65451 1.46001 -3.6
    endloop
  endfacet
  facet normal 0 0 -1
    outer loop
      vertex -19.4592 1.50582 -3.6
      vertex -0.65451 1.46001 -3.6
      vertex -19.2356 1.40562 -3.6
    endloop
  endfacet
  facet normal -0.408939 -0.912562 0
    outer loop
      vertex -19.4592 1.50582 -3.6
      vertex -19.2356 1.40562 -3.6
      vertex -19.2356 1.40562 0
    endloop
  endfacet
  facet normal -0.408939 -0.912562 0
    outer loop
      vertex -19.4592 1.50582 -3.6
      vertex -19.2356 1.40562 0
      vertex -19.4592 1.50582 0
    endloop
  endfacet
  facet normal 0 0 1
    outer loop
      vertex -19.4592 1.50582 0
      vertex -0.65451 1.46001 0
      vertex -0.42397 1.5428 0
    endloop
  endfacet
  facet normal 0 0 1
    outer loop
      vertex -19.4592 1.50582 0
      vertex -19.2356 1.40562 0
      vertex -0.65451 1.46001 0
    endloop
  endfacet
  facet normal 0 0 -1
    outer loop
      vertex -19.6954 -1.57073 -3.6
      vertex -0.42397 -1.5428 -3.6
      vertex -0.183493 -1.58944 -3.6
    endloop
  endfacet
  facet normal 0 0 -1
    outer loop
      vertex -19.6954 -1.57073 -3.6
      vertex -19.4592 -1.50582 -3.6
      vertex -0.42397 -1.5428 -3.6
    endloop
  endfacet
  facet normal -0.264986 0.964252 0
    outer loop
      vertex -19.6954 -1.57073 -3.6
      vertex -19.6954 -1.57073 0
      vertex -19.4592 -1.50582 -3.6
    endloop
  endfacet
  facet normal -0.264986 0.964252 0
    outer loop
      vertex -19.6954 -1.57073 0
      vertex -19.4592 -1.50582 0
      vertex -19.4592 -1.50582 -3.6
    endloop
  endfacet
  facet normal 0 0 -1
    outer loop
      vertex -19.6954 1.57073 -3.6
      vertex -0.183493 1.58944 -3.6
      vertex -0.42397 1.5428 -3.6
    endloop
  endfacet
  facet normal 0 0 -1
    outer loop
      vertex -19.6954 1.57073 -3.6
      vertex -0.42397 1.5428 -3.6
      vertex -19.4592 1.50582 -3.6
    endloop
  endfacet
  facet normal -0.264986 -0.964252 0
    outer loop
      vertex -19.6954 1.57073 -3.6
      vertex -19.4592 1.50582 -3.6
      vertex -19.4592 1.50582 0
    endloop
  endfacet
  facet normal -0.264986 -0.964252 0
    outer loop
      vertex -19.6954 1.57073 -3.6
      vertex -19.4592 1.50582 0
      vertex -19.6954 1.57073 0
    endloop
  endfacet
  facet normal -0.114733 0.993396 0
    outer loop
      vertex -19.9387 -1.59883 -3.6
      vertex -19.9387 -1.59883 0
      vertex -19.6954 -1.57073 -3.6
    endloop
  endfacet
  facet normal -0.114733 0.993396 0
    outer loop
      vertex -19.9387 -1.59883 0
      vertex -19.6954 -1.57073 0
      vertex -19.6954 -1.57073 -3.6
    endloop
  endfacet
  facet normal -0.114733 -0.993396 0
    outer loop
      vertex -19.9387 1.59883 -3.6
      vertex -19.6954 1.57073 -3.6
      vertex -19.6954 1.57073 0
    endloop
  endfacet
  facet normal -0.114733 -0.993396 0
    outer loop
      vertex -19.9387 1.59883 -3.6
      vertex -19.6954 1.57073 0
      vertex -19.9387 1.59883 0
    endloop
  endfacet
  facet normal 0.0383297 0.999265 0
    outer loop
      vertex -20.1835 -1.58944 -3.6
      vertex -20.1835 -1.58944 0
      vertex -19.9387 -1.59883 -3.6
    endloop
  endfacet
  facet normal 0.0383297 0.999265 0
    outer loop
      vertex -20.1835 -1.58944 0
      vertex -19.9387 -1.59883 0
      vertex -19.9387 -1.59883 -3.6
    endloop
  endfacet
  facet normal 0.0383297 -0.999265 0
    outer loop
      vertex -20.1835 1.58944 -3.6
      vertex -19.9387 1.59883 -3.6
      vertex -19.9387 1.59883 0
    endloop
  endfacet
  facet normal 0.0383297 -0.999265 0
    outer loop
      vertex -20.1835 1.58944 -3.6
      vertex -19.9387 1.59883 0
      vertex -20.1835 1.58944 0
    endloop
  endfacet
  facet normal 0.190382 0.98171 0
    outer loop
      vertex -20.424 -1.5428 -3.6
      vertex -20.424 -1.5428 0
      vertex -20.1835 -1.58944 -3.6
    endloop
  endfacet
  facet normal 0.190382 0.98171 0
    outer loop
      vertex -20.424 -1.5428 0
      vertex -20.1835 -1.58944 0
      vertex -20.1835 -1.58944 -3.6
    endloop
  endfacet
  facet normal 0.190382 -0.98171 0
    outer loop
      vertex -20.424 1.5428 -3.6
      vertex -20.1835 1.58944 -3.6
      vertex -20.1835 1.58944 0
    endloop
  endfacet
  facet normal 0.190382 -0.98171 0
    outer loop
      vertex -20.424 1.5428 -3.6
      vertex -20.1835 1.58944 0
      vertex -20.424 1.5428 0
    endloop
  endfacet
  facet normal 0.338033 0.941134 0
    outer loop
      vertex -20.6545 -1.46001 -3.6
      vertex -20.6545 -1.46001 0
      vertex -20.424 -1.5428 -3.6
    endloop
  endfacet
  facet normal 0.338033 0.941134 0
    outer loop
      vertex -20.6545 -1.46001 0
      vertex -20.424 -1.5428 0
      vertex -20.424 -1.5428 -3.6
    endloop
  endfacet
  facet normal 0.338033 -0.941134 0
    outer loop
      vertex -20.6545 1.46001 -3.6
      vertex -20.424 1.5428 -3.6
      vertex -20.424 1.5428 0
    endloop
  endfacet
  facet normal 0.338033 -0.941134 0
    outer loop
      vertex -20.6545 1.46001 -3.6
      vertex -20.424 1.5428 0
      vertex -20.6545 1.46001 0
    endloop
  endfacet
  facet normal 0.477745 0.878499 0
    outer loop
      vertex -20.8697 -1.34298 -3.6
      vertex -20.8697 -1.34298 0
      vertex -20.6545 -1.46001 -3.6
    endloop
  endfacet
  facet normal 0.477745 0.878499 0
    outer loop
      vertex -20.8697 -1.34298 0
      vertex -20.6545 -1.46001 0
      vertex -20.6545 -1.46001 -3.6
    endloop
  endfacet
  facet normal 0.477745 -0.878499 0
    outer loop
      vertex -20.8697 1.34298 -3.6
      vertex -20.6545 1.46001 -3.6
      vertex -20.6545 1.46001 0
    endloop
  endfacet
  facet normal 0.477745 -0.878499 0
    outer loop
      vertex -20.8697 1.34298 -3.6
      vertex -20.6545 1.46001 0
      vertex -20.8697 1.34298 0
    endloop
  endfacet
  facet normal 0.606252 0.795272 0
    outer loop
      vertex -21.0645 -1.19448 -3.6
      vertex -21.0645 -1.19448 0
      vertex -20.8697 -1.34298 -3.6
    endloop
  endfacet
  facet normal 0.606252 0.795272 0
    outer loop
      vertex -21.0645 -1.19448 0
      vertex -20.8697 -1.34298 0
      vertex -20.8697 -1.34298 -3.6
    endloop
  endfacet
  facet normal 0.606252 -0.795272 0
    outer loop
      vertex -21.0645 1.19448 -3.6
      vertex -20.8697 1.34298 -3.6
      vertex -20.8697 1.34298 0
    endloop
  endfacet
  facet normal 0.606252 -0.795272 0
    outer loop
      vertex -21.0645 1.19448 -3.6
      vertex -20.8697 1.34298 0
      vertex -21.0645 1.19448 0
    endloop
  endfacet
  facet normal 0.720429 0.693529 0
    outer loop
      vertex -21.2344 -1.01799 -3.6
      vertex -21.0645 -1.19448 0
      vertex -21.0645 -1.19448 -3.6
    endloop
  endfacet
  facet normal 0.720429 0.693529 0
    outer loop
      vertex -21.2344 -1.01799 -3.6
      vertex -21.2344 -1.01799 0
      vertex -21.0645 -1.19448 0
    endloop
  endfacet
  facet normal 0.720429 -0.693529 0
    outer loop
      vertex -21.2344 1.01799 -3.6
      vertex -21.0645 1.19448 -3.6
      vertex -21.2344 1.01799 0
    endloop
  endfacet
  facet normal 0.720429 -0.693529 0
    outer loop
      vertex -21.2344 1.01799 0
      vertex -21.0645 1.19448 -3.6
      vertex -21.0645 1.19448 0
    endloop
  endfacet
  facet normal 0.817987 0.575237 0
    outer loop
      vertex -21.3753 -0.81763 -3.6
      vertex -21.2344 -1.01799 0
      vertex -21.2344 -1.01799 -3.6
    endloop
  endfacet
  facet normal 0.817987 0.575237 0
    outer loop
      vertex -21.3753 -0.81763 -3.6
      vertex -21.3753 -0.81763 0
      vertex -21.2344 -1.01799 0
    endloop
  endfacet
  facet normal 0.817987 -0.575237 0
    outer loop
      vertex -21.3753 0.81763 -3.6
      vertex -21.2344 1.01799 -3.6
      vertex -21.3753 0.81763 0
    endloop
  endfacet
  facet normal 0.817987 -0.575237 0
    outer loop
      vertex -21.3753 0.81763 0
      vertex -21.2344 1.01799 -3.6
      vertex -21.2344 1.01799 0
    endloop
  endfacet
  facet normal 0.896155 0.443742 0
    outer loop
      vertex -21.484 -0.598106 -3.6
      vertex -21.3753 -0.81763 0
      vertex -21.3753 -0.81763 -3.6
    endloop
  endfacet
  facet normal 0.896155 0.443742 0
    outer loop
      vertex -21.484 -0.598106 -3.6
      vertex -21.484 -0.598106 0
      vertex -21.3753 -0.81763 0
    endloop
  endfacet
  facet normal 0.896155 -0.443742 0
    outer loop
      vertex -21.484 0.598106 -3.6
      vertex -21.3753 0.81763 -3.6
      vertex -21.484 0.598106 0
    endloop
  endfacet
  facet normal 0.896155 -0.443742 0
    outer loop
      vertex -21.484 0.598106 0
      vertex -21.3753 0.81763 -3.6
      vertex -21.3753 0.81763 0
    endloop
  endfacet
  facet normal 0.953406 0.301689 0
    outer loop
      vertex -21.5579 -0.364565 -3.6
      vertex -21.484 -0.598106 0
      vertex -21.484 -0.598106 -3.6
    endloop
  endfacet
  facet normal 0.953406 0.301689 0
    outer loop
      vertex -21.5579 -0.364565 -3.6
      vertex -21.5579 -0.364565 0
      vertex -21.484 -0.598106 0
    endloop
  endfacet
  facet normal 0.953406 -0.301689 0
    outer loop
      vertex -21.5579 0.364565 -3.6
      vertex -21.484 0.598106 -3.6
      vertex -21.5579 0.364565 0
    endloop
  endfacet
  facet normal 0.953406 -0.301689 0
    outer loop
      vertex -21.5579 0.364565 0
      vertex -21.484 0.598106 -3.6
      vertex -21.484 0.598106 0
    endloop
  endfacet
  facet normal 0.988276 0.152679 0
    outer loop
      vertex -21.5953 -0.122478 -3.6
      vertex -21.5579 -0.364565 0
      vertex -21.5579 -0.364565 -3.6
    endloop
  endfacet
  facet normal 0.988276 0.152679 0
    outer loop
      vertex -21.5953 -0.122478 -3.6
      vertex -21.5953 -0.122478 0
      vertex -21.5579 -0.364565 0
    endloop
  endfacet
  facet normal 1 0 0
    outer loop
      vertex -21.5953 -0.122478 -3.6
      vertex -21.5953 0.122478 -3.6
      vertex -21.5953 -0.122478 0
    endloop
  endfacet
  facet normal 1 0 0
    outer loop
      vertex -21.5953 -0.122478 0
      vertex -21.5953 0.122478 -3.6
      vertex -21.5953 0.122478 0
    endloop
  endfacet
  facet normal 0.988276 -0.152679 0
    outer loop
      vertex -21.5953 0.122478 -3.6
      vertex -21.5579 0.364565 -3.6
      vertex -21.5953 0.122478 0
    endloop
  endfacet
  facet normal 0.988276 -0.152679 0
    outer loop
      vertex -21.5953 0.122478 0
      vertex -21.5579 0.364565 -3.6
      vertex -21.5579 0.364565 0
    endloop
  endfacet
  facet normal 0 0 -1
    outer loop
      vertex -29.5 -3.72107 -3.6
      vertex -0.183493 -1.58944 -3.6
      vertex 0.0612841 -1.59883 -3.6
    endloop
  endfacet
  facet normal 0 0 -1
    outer loop
      vertex -29.5 -3.72107 -3.6
      vertex -19.6954 -1.57073 -3.6
      vertex -0.183493 -1.58944 -3.6
    endloop
  endfacet
  facet normal 0 0 -1
    outer loop
      vertex -29.5 -3.72107 -3.6
      vertex -19.9387 -1.59883 -3.6
      vertex -19.6954 -1.57073 -3.6
    endloop
  endfacet
  facet normal 0 0 -1
    outer loop
      vertex -29.5 -3.72107 -3.6
      vertex -20.1835 -1.58944 -3.6
      vertex -19.9387 -1.59883 -3.6
    endloop
  endfacet
  facet normal 0 0 -1
    outer loop
      vertex -29.5 -3.72107 -3.6
      vertex -20.424 -1.5428 -3.6
      vertex -20.1835 -1.58944 -3.6
    endloop
  endfacet
  facet normal 0 0 -1
    outer loop
      vertex -29.5 -3.72107 -3.6
      vertex -20.6545 -1.46001 -3.6
      vertex -20.424 -1.5428 -3.6
    endloop
  endfacet
  facet normal 0 0 -1
    outer loop
      vertex -29.5 -3.72107 -3.6
      vertex -20.8697 -1.34298 -3.6
      vertex -20.6545 -1.46001 -3.6
    endloop
  endfacet
  facet normal 0 0 -1
    outer loop
      vertex -29.5 -3.72107 -3.6
      vertex -21.0645 -1.19448 -3.6
      vertex -20.8697 -1.34298 -3.6
    endloop
  endfacet
  facet normal 0 0 -1
    outer loop
      vertex -29.5 -3.72107 -3.6
      vertex -21.2344 -1.01799 -3.6
      vertex -21.0645 -1.19448 -3.6
    endloop
  endfacet
  facet normal 0 0 -1
    outer loop
      vertex -29.5 -3.72107 -3.6
      vertex -21.3753 -0.81763 -3.6
      vertex -21.2344 -1.01799 -3.6
    endloop
  endfacet
  facet normal 0 0 -1
    outer loop
      vertex -29.5 -3.72107 -3.6
      vertex -21.484 -0.598106 -3.6
      vertex -21.3753 -0.81763 -3.6
    endloop
  endfacet
  facet normal 0 0 -1
    outer loop
      vertex -29.5 -3.72107 -3.6
      vertex -21.5579 -0.364565 -3.6
      vertex -21.484 -0.598106 -3.6
    endloop
  endfacet
  facet normal 0 0 -1
    outer loop
      vertex -29.5 -3.72107 -3.6
      vertex -21.5953 -0.122478 -3.6
      vertex -21.5579 -0.364565 -3.6
    endloop
  endfacet
  facet normal 0 0 -1
    outer loop
      vertex -29.5 -3.72107 -3.6
      vertex -21.5953 0.122478 -3.6
      vertex -21.5953 -0.122478 -3.6
    endloop
  endfacet
  facet normal 0 0 -1
    outer loop
      vertex -29.5 -3.72107 -3.6
      vertex -29.5 3.72107 -3.6
      vertex -21.5953 0.122478 -3.6
    endloop
  endfacet
  facet normal 0 0 -1
    outer loop
      vertex -29.5 -3.72107 -3.6
      vertex 0.0612841 -1.59883 -3.6
      vertex 29.5 -3.72107 -3.6
    endloop
  endfacet
  facet normal 0 -0.707107 -0.707107
    outer loop
      vertex -29.5 -3.72107 -3.6
      vertex 29.5 -3.72107 -3.6
      vertex 29.5 -4.62107 -2.7
    endloop
  endfacet
  facet normal 0 -0.707107 -0.707107
    outer loop
      vertex -29.5 -4.62107 -2.7
      vertex -29.5 -3.72107 -3.6
      vertex 29.5 -4.62107 -2.7
    endloop
  endfacet
  facet normal -1 0 0
    outer loop
      vertex -29.5 -4.62107 -2.7
      vertex -29.5 3.72107 -3.6
      vertex -29.5 -3.72107 -3.6
    endloop
  endfacet
  facet normal -1 0 0
    outer loop
      vertex -29.5 -4.62107 -2.7
      vertex -29.5 4.61594 -2.70512
      vertex -29.5 3.72107 -3.6
    endloop
  endfacet
  facet normal -1 0 0
    outer loop
      vertex -29.5 -4.62107 -2.7
      vertex -29.5 7 0
      vertex -29.5 4.61594 -2.70512
    endloop
  endfacet
  facet normal 0 0 -1
    outer loop
      vertex -29.5 -7 -2.7
      vertex -29.5 -4.62107 -2.7
      vertex 29.5 -4.62107 -2.7
    endloop
  endfacet
  facet normal -1 0 0
    outer loop
      vertex -29.5 -7 -2.7
      vertex -29.5 -7 0
      vertex -29.5 -4.62107 -2.7
    endloop
  endfacet
  facet normal 0 0 -1
    outer loop
      vertex -29.5 -7 -2.7
      vertex 29.5 -4.62107 -2.7
      vertex 29.5 -7 -2.7
    endloop
  endfacet
  facet normal 0 -1 0
    outer loop
      vertex -29.5 -7 -2.7
      vertex 29.5 -7 -2.7
      vertex 29.5 -7 0
    endloop
  endfacet
  facet normal 0 -1 0
    outer loop
      vertex -29.5 -7 -2.7
      vertex 29.5 -7 0
      vertex -29.5 -7 0
    endloop
  endfacet
  facet normal 0 0 1
    outer loop
      vertex -29.5 -7 0
      vertex -0.183493 -1.58944 0
      vertex -0.42397 -1.5428 0
    endloop
  endfacet
  facet normal 0 0 1
    outer loop
      vertex -29.5 -7 0
      vertex -0.42397 -1.5428 0
      vertex -19.4592 -1.50582 0
    endloop
  endfacet
  facet normal 0 0 1
    outer loop
      vertex -29.5 -7 0
      vertex -19.4592 -1.50582 0
      vertex -19.6954 -1.57073 0
    endloop
  endfacet
  facet normal 0 0 1
    outer loop
      vertex -29.5 -7 0
      vertex -19.6954 -1.57073 0
      vertex -19.9387 -1.59883 0
    endloop
  endfacet
  facet normal 0 0 1
    outer loop
      vertex -29.5 -7 0
      vertex -19.9387 -1.59883 0
      vertex -20.1835 -1.58944 0
    endloop
  endfacet
  facet normal 0 0 1
    outer loop
      vertex -29.5 -7 0
      vertex -20.1835 -1.58944 0
      vertex -20.424 -1.5428 0
    endloop
  endfacet
  facet normal 0 0 1
    outer loop
      vertex -29.5 -7 0
      vertex -20.424 -1.5428 0
      vertex -20.6545 -1.46001 0
    endloop
  endfacet
  facet normal 0 0 1
    outer loop
      vertex -29.5 -7 0
      vertex -20.6545 -1.46001 0
      vertex -20.8697 -1.34298 0
    endloop
  endfacet
  facet normal 0 0 1
    outer loop
      vertex -29.5 -7 0
      vertex -20.8697 -1.34298 0
      vertex -21.0645 -1.19448 0
    endloop
  endfacet
  facet normal 0 0 1
    outer loop
      vertex -29.5 -7 0
      vertex -21.0645 -1.19448 0
      vertex -21.2344 -1.01799 0
    endloop
  endfacet
  facet normal 0 0 1
    outer loop
      vertex -29.5 -7 0
      vertex -21.2344 -1.01799 0
      vertex -21.3753 -0.81763 0
    endloop
  endfacet
  facet normal 0 0 1
    outer loop
      vertex -29.5 -7 0
      vertex -21.3753 -0.81763 0
      vertex -21.484 -0.598106 0
    endloop
  endfacet
  facet normal 0 0 1
    outer loop
      vertex -29.5 -7 0
      vertex -21.484 -0.598106 0
      vertex -21.5579 -0.364565 0
    endloop
  endfacet
  facet normal 0 0 1
    outer loop
      vertex -29.5 -7 0
      vertex -21.5579 -0.364565 0
      vertex -21.5953 -0.122478 0
    endloop
  endfacet
  facet normal 0 0 1
    outer loop
      vertex -29.5 -7 0
      vertex -21.5953 -0.122478 0
      vertex -29.5 7 0
    endloop
  endfacet
  facet normal -1 0 0
    outer loop
      vertex -29.5 -7 0
      vertex -29.5 7 0
      vertex -29.5 -4.62107 -2.7
    endloop
  endfacet
  facet normal 0 0 1
    outer loop
      vertex -29.5 -7 0
      vertex 0.0612841 -1.59883 0
      vertex -0.183493 -1.58944 0
    endloop
  endfacet
  facet normal 0 0 1
    outer loop
      vertex -29.5 -7 0
      vertex 29.5 -7 0
      vertex 0.0612841 -1.59883 0
    endloop
  endfacet
  facet normal 0 0 -1
    outer loop
      vertex -29.5 3.72107 -3.6
      vertex -0.183493 1.58944 -3.6
      vertex -19.6954 1.57073 -3.6
    endloop
  endfacet
  facet normal 0 0 -1
    outer loop
      vertex -29.5 3.72107 -3.6
      vertex -19.6954 1.57073 -3.6
      vertex -19.9387 1.59883 -3.6
    endloop
  endfacet
  facet normal 0 0 -1
    outer loop
      vertex -29.5 3.72107 -3.6
      vertex -19.9387 1.59883 -3.6
      vertex -20.1835 1.58944 -3.6
    endloop
  endfacet
  facet normal 0 0 -1
    outer loop
      vertex -29.5 3.72107 -3.6
      vertex -20.1835 1.58944 -3.6
      vertex -20.424 1.5428 -3.6
    endloop
  endfacet
  facet normal 0 0 -1
    outer loop
      vertex -29.5 3.72107 -3.6
      vertex -20.424 1.5428 -3.6
      vertex -20.6545 1.46001 -3.6
    endloop
  endfacet
  facet normal 0 0 -1
    outer loop
      vertex -29.5 3.72107 -3.6
      vertex -20.6545 1.46001 -3.6
      vertex -20.8697 1.34298 -3.6
    endloop
  endfacet
  facet normal 0 0 -1
    outer loop
      vertex -29.5 3.72107 -3.6
      vertex -20.8697 1.34298 -3.6
      vertex -21.0645 1.19448 -3.6
    endloop
  endfacet
  facet normal 0 0 -1
    outer loop
      vertex -29.5 3.72107 -3.6
      vertex -21.0645 1.19448 -3.6
      vertex -21.2344 1.01799 -3.6
    endloop
  endfacet
  facet normal 0 0 -1
    outer loop
      vertex -29.5 3.72107 -3.6
      vertex -21.2344 1.01799 -3.6
      vertex -21.3753 0.81763 -3.6
    endloop
  endfacet
  facet normal 0 0 -1
    outer loop
      vertex -29.5 3.72107 -3.6
      vertex -21.3753 0.81763 -3.6
      vertex -21.484 0.598106 -3.6
    endloop
  endfacet
  facet normal 0 0 -1
    outer loop
      vertex -29.5 3.72107 -3.6
      vertex -21.484 0.598106 -3.6
      vertex -21.5579 0.364565 -3.6
    endloop
  endfacet
  facet normal 0 0 -1
    outer loop
      vertex -29.5 3.72107 -3.6
      vertex -21.5579 0.364565 -3.6
      vertex -21.5953 0.122478 -3.6
    endloop
  endfacet
  facet normal 0 0.707111 -0.707103
    outer loop
      vertex -29.5 3.72107 -3.6
      vertex -29.5 4.61594 -2.70512
      vertex 29.5 3.72107 -3.6
    endloop
  endfacet
  facet normal 0 0 -1
    outer loop
      vertex -29.5 3.72107 -3.6
      vertex 0.0612841 1.59883 -3.6
      vertex -0.183493 1.58944 -3.6
    endloop
  endfacet
  facet normal 0 0 -1
    outer loop
      vertex -29.5 3.72107 -3.6
      vertex 29.5 3.72107 -3.6
      vertex 0.0612841 1.59883 -3.6
    endloop
  endfacet
  facet normal 0 0 -1
    outer loop
      vertex -29.5 4.61594 -2.70512
      vertex -29.5 7 -2.70512
      vertex 29.5 7 -2.70512
    endloop
  endfacet
  facet normal -1 0 0
    outer loop
      vertex -29.5 4.61594 -2.70512
      vertex -29.5 7 0
      vertex -29.5 7 -2.70512
    endloop
  endfacet
  facet normal 0 0.707111 -0.707103
    outer loop
      vertex -29.5 4.61594 -2.70512
      vertex 29.5 4.61594 -2.70512
      vertex 29.5 3.72107 -3.6
    endloop
  endfacet
  facet normal 0 0 -1
    outer loop
      vertex -29.5 4.61594 -2.70512
      vertex 29.5 7 -2.70512
      vertex 29.5 4.61594 -2.70512
    endloop
  endfacet
  facet normal 0 1 0
    outer loop
      vertex -29.5 7 -2.70512
      vertex -29.5 7 0
      vertex 29.5 7 -2.70512
    endloop
  endfacet
  facet normal 0 0 1
    outer loop
      vertex -29.5 7 0
      vertex -0.183493 1.58944 0
      vertex 0.0612841 1.59883 0
    endloop
  endfacet
  facet normal 0 0 1
    outer loop
      vertex -29.5 7 0
      vertex -0.42397 1.5428 0
      vertex -0.183493 1.58944 0
    endloop
  endfacet
  facet normal 0 0 1
    outer loop
      vertex -29.5 7 0
      vertex -19.4592 1.50582 0
      vertex -0.42397 1.5428 0
    endloop
  endfacet
  facet normal 0 0 1
    outer loop
      vertex -29.5 7 0
      vertex -19.6954 1.57073 0
      vertex -19.4592 1.50582 0
    endloop
  endfacet
  facet normal 0 0 1
    outer loop
      vertex -29.5 7 0
      vertex -19.9387 1.59883 0
      vertex -19.6954 1.57073 0
    endloop
  endfacet
  facet normal 0 0 1
    outer loop
      vertex -29.5 7 0
      vertex -20.1835 1.58944 0
      vertex -19.9387 1.59883 0
    endloop
  endfacet
  facet normal 0 0 1
    outer loop
      vertex -29.5 7 0
      vertex -20.424 1.5428 0
      vertex -20.1835 1.58944 0
    endloop
  endfacet
  facet normal 0 0 1
    outer loop
      vertex -29.5 7 0
      vertex -20.6545 1.46001 0
      vertex -20.424 1.5428 0
    endloop
  endfacet
  facet normal 0 0 1
    outer loop
      vertex -29.5 7 0
      vertex -20.8697 1.34298 0
      vertex -20.6545 1.46001 0
    endloop
  endfacet
  facet normal 0 0 1
    outer loop
      vertex -29.5 7 0
      vertex -21.0645 1.19448 0
      vertex -20.8697 1.34298 0
    endloop
  endfacet
  facet normal 0 0 1
    outer loop
      vertex -29.5 7 0
      vertex -21.2344 1.01799 0
      vertex -21.0645 1.19448 0
    endloop
  endfacet
  facet normal 0 0 1
    outer loop
      vertex -29.5 7 0
      vertex -21.3753 0.81763 0
      vertex -21.2344 1.01799 0
    endloop
  endfacet
  facet normal 0 0 1
    outer loop
      vertex -29.5 7 0
      vertex -21.484 0.598106 0
      vertex -21.3753 0.81763 0
    endloop
  endfacet
  facet normal 0 0 1
    outer loop
      vertex -29.5 7 0
      vertex -21.5579 0.364565 0
      vertex -21.484 0.598106 0
    endloop
  endfacet
  facet normal 0 0 1
    outer loop
      vertex -29.5 7 0
      vertex -21.5953 -0.122478 0
      vertex -21.5953 0.122478 0
    endloop
  endfacet
  facet normal 0 0 1
    outer loop
      vertex -29.5 7 0
      vertex -21.5953 0.122478 0
      vertex -21.5579 0.364565 0
    endloop
  endfacet
  facet normal 0 0 1
    outer loop
      vertex -29.5 7 0
      vertex 0.0612841 1.59883 0
      vertex 29.5 7 0
    endloop
  endfacet
  facet normal 0 1 0
    outer loop
      vertex -29.5 7 0
      vertex 29.5 7 0
      vertex 29.5 7 -2.70512
    endloop
  endfacet
  facet normal -0.114713 0.993399 0
    outer loop
      vertex 0.0612841 -1.59883 -3.6
      vertex 0.0612841 -1.59883 0
      vertex 0.304626 -1.57073 -3.6
    endloop
  endfacet
  facet normal 0 0 -1
    outer loop
      vertex 0.0612841 -1.59883 -3.6
      vertex 0.304626 -1.57073 -3.6
      vertex 29.5 -3.72107 -3.6
    endloop
  endfacet
  facet normal -0.114713 0.993399 0
    outer loop
      vertex 0.0612841 -1.59883 0
      vertex 0.304626 -1.57073 0
      vertex 0.304626 -1.57073 -3.6
    endloop
  endfacet
  facet normal 0 0 1
    outer loop
      vertex 0.0612841 -1.59883 0
      vertex 29.5 -7 0
      vertex 0.304626 -1.57073 0
    endloop
  endfacet
  facet normal -0.114713 -0.993399 0
    outer loop
      vertex 0.0612841 1.59883 -3.6
      vertex 0.304626 1.57073 -3.6
      vertex 0.304626 1.57073 0
    endloop
  endfacet
  facet normal -0.114713 -0.993399 0
    outer loop
      vertex 0.0612841 1.59883 -3.6
      vertex 0.304626 1.57073 0
      vertex 0.0612841 1.59883 0
    endloop
  endfacet
  facet normal 0 0 -1
    outer loop
      vertex 0.0612841 1.59883 -3.6
      vertex 29.5 3.72107 -3.6
      vertex 0.304626 1.57073 -3.6
    endloop
  endfacet
  facet normal 0 0 1
    outer loop
      vertex 0.0612841 1.59883 0
      vertex 0.304626 1.57073 0
      vertex 29.5 7 0
    endloop
  endfacet
  facet normal -0.264985 0.964253 0
    outer loop
      vertex 0.304626 -1.57073 -3.6
      vertex 0.304626 -1.57073 0
      vertex 0.540827 -1.50582 -3.6
    endloop
  endfacet
  facet normal 0 0 -1
    outer loop
      vertex 0.304626 -1.57073 -3.6
      vertex 0.540827 -1.50582 -3.6
      vertex 19.576 -1.5428 -3.6
    endloop
  endfacet
  facet normal 0 0 -1
    outer loop
      vertex 0.304626 -1.57073 -3.6
      vertex 19.576 -1.5428 -3.6
      vertex 19.8165 -1.58944 -3.6
    endloop
  endfacet
  facet normal 0 0 -1
    outer loop
      vertex 0.304626 -1.57073 -3.6
      vertex 19.8165 -1.58944 -3.6
      vertex 29.5 -3.72107 -3.6
    endloop
  endfacet
  facet normal -0.264985 0.964253 0
    outer loop
      vertex 0.304626 -1.57073 0
      vertex 0.540827 -1.50582 0
      vertex 0.540827 -1.50582 -3.6
    endloop
  endfacet
  facet normal 0 0 1
    outer loop
      vertex 0.304626 -1.57073 0
      vertex 29.5 -7 0
      vertex 0.540827 -1.50582 0
    endloop
  endfacet
  facet normal -0.264985 -0.964253 0
    outer loop
      vertex 0.304626 1.57073 -3.6
      vertex 0.540827 1.50582 -3.6
      vertex 0.540827 1.50582 0
    endloop
  endfacet
  facet normal -0.264985 -0.964253 0
    outer loop
      vertex 0.304626 1.57073 -3.6
      vertex 0.540827 1.50582 0
      vertex 0.304626 1.57073 0
    endloop
  endfacet
  facet normal 0 0 -1
    outer loop
      vertex 0.304626 1.57073 -3.6
      vertex 19.576 1.5428 -3.6
      vertex 0.540827 1.50582 -3.6
    endloop
  endfacet
  facet normal 0 0 -1
    outer loop
      vertex 0.304626 1.57073 -3.6
      vertex 19.8165 1.58944 -3.6
      vertex 19.576 1.5428 -3.6
    endloop
  endfacet
  facet normal 0 0 -1
    outer loop
      vertex 0.304626 1.57073 -3.6
      vertex 29.5 3.72107 -3.6
      vertex 19.8165 1.58944 -3.6
    endloop
  endfacet
  facet normal 0 0 1
    outer loop
      vertex 0.304626 1.57073 0
      vertex 0.540827 1.50582 0
      vertex 29.5 7 0
    endloop
  endfacet
  facet normal -0.409054 0.91251 0
    outer loop
      vertex 0.540827 -1.50582 -3.6
      vertex 0.540827 -1.50582 0
      vertex 0.764351 -1.40562 -3.6
    endloop
  endfacet
  facet normal 0 0 -1
    outer loop
      vertex 0.540827 -1.50582 -3.6
      vertex 0.764351 -1.40562 -3.6
      vertex 19.3455 -1.46001 -3.6
    endloop
  endfacet
  facet normal 0 0 -1
    outer loop
      vertex 0.540827 -1.50582 -3.6
      vertex 19.3455 -1.46001 -3.6
      vertex 19.576 -1.5428 -3.6
    endloop
  endfacet
  facet normal -0.409054 0.91251 0
    outer loop
      vertex 0.540827 -1.50582 0
      vertex 0.764351 -1.40562 0
      vertex 0.764351 -1.40562 -3.6
    endloop
  endfacet
  facet normal 0 0 1
    outer loop
      vertex 0.540827 -1.50582 0
      vertex 19.3455 -1.46001 0
      vertex 0.764351 -1.40562 0
    endloop
  endfacet
  facet normal 0 0 1
    outer loop
      vertex 0.540827 -1.50582 0
      vertex 19.576 -1.5428 0
      vertex 19.3455 -1.46001 0
    endloop
  endfacet
  facet normal 0 0 1
    outer loop
      vertex 0.540827 -1.50582 0
      vertex 29.5 -7 0
      vertex 19.576 -1.5428 0
    endloop
  endfacet
  facet normal -0.409054 -0.91251 0
    outer loop
      vertex 0.540827 1.50582 -3.6
      vertex 0.764351 1.40562 -3.6
      vertex 0.764351 1.40562 0
    endloop
  endfacet
  facet normal -0.409054 -0.91251 0
    outer loop
      vertex 0.540827 1.50582 -3.6
      vertex 0.764351 1.40562 0
      vertex 0.540827 1.50582 0
    endloop
  endfacet
  facet normal 0 0 -1
    outer loop
      vertex 0.540827 1.50582 -3.6
      vertex 19.3455 1.46001 -3.6
      vertex 0.764351 1.40562 -3.6
    endloop
  endfacet
  facet normal 0 0 -1
    outer loop
      vertex 0.540827 1.50582 -3.6
      vertex 19.576 1.5428 -3.6
      vertex 19.3455 1.46001 -3.6
    endloop
  endfacet
  facet normal 0 0 1
    outer loop
      vertex 0.540827 1.50582 0
      vertex 0.764351 1.40562 0
      vertex 19.3455 1.46001 0
    endloop
  endfacet
  facet normal 0 0 1
    outer loop
      vertex 0.540827 1.50582 0
      vertex 19.3455 1.46001 0
      vertex 19.576 1.5428 0
    endloop
  endfacet
  facet normal 0 0 1
    outer loop
      vertex 0.540827 1.50582 0
      vertex 19.576 1.5428 0
      vertex 29.5 7 0
    endloop
  endfacet
  facet normal -0.543565 0.839367 0
    outer loop
      vertex 0.764351 -1.40562 -3.6
      vertex 0.764351 -1.40562 0
      vertex 0.96996 -1.27247 -3.6
    endloop
  endfacet
  facet normal 0 0 -1
    outer loop
      vertex 0.764351 -1.40562 -3.6
      vertex 0.96996 -1.27247 -3.6
      vertex 19.1303 -1.34298 -3.6
    endloop
  endfacet
  facet normal 0 0 -1
    outer loop
      vertex 0.764351 -1.40562 -3.6
      vertex 19.1303 -1.34298 -3.6
      vertex 19.3455 -1.46001 -3.6
    endloop
  endfacet
  facet normal -0.543565 0.839367 0
    outer loop
      vertex 0.764351 -1.40562 0
      vertex 0.96996 -1.27247 0
      vertex 0.96996 -1.27247 -3.6
    endloop
  endfacet
  facet normal 0 0 1
    outer loop
      vertex 0.764351 -1.40562 0
      vertex 19.1303 -1.34298 0
      vertex 0.96996 -1.27247 0
    endloop
  endfacet
  facet normal 0 0 1
    outer loop
      vertex 0.764351 -1.40562 0
      vertex 19.3455 -1.46001 0
      vertex 19.1303 -1.34298 0
    endloop
  endfacet
  facet normal -0.543565 -0.839367 0
    outer loop
      vertex 0.764351 1.40562 -3.6
      vertex 0.96996 1.27247 -3.6
      vertex 0.96996 1.27247 0
    endloop
  endfacet
  facet normal -0.543565 -0.839367 0
    outer loop
      vertex 0.764351 1.40562 -3.6
      vertex 0.96996 1.27247 0
      vertex 0.764351 1.40562 0
    endloop
  endfacet
  facet normal 0 0 -1
    outer loop
      vertex 0.764351 1.40562 -3.6
      vertex 19.1303 1.34298 -3.6
      vertex 0.96996 1.27247 -3.6
    endloop
  endfacet
  facet normal 0 0 -1
    outer loop
      vertex 0.764351 1.40562 -3.6
      vertex 19.3455 1.46001 -3.6
      vertex 19.1303 1.34298 -3.6
    endloop
  endfacet
  facet normal 0 0 1
    outer loop
      vertex 0.764351 1.40562 0
      vertex 0.96996 1.27247 0
      vertex 19.1303 1.34298 0
    endloop
  endfacet
  facet normal 0 0 1
    outer loop
      vertex 0.764351 1.40562 0
      vertex 19.1303 1.34298 0
      vertex 19.3455 1.46001 0
    endloop
  endfacet
  facet normal -0.665341 0.746539 0
    outer loop
      vertex 0.96996 -1.27247 -3.6
      vertex 0.96996 -1.27247 0
      vertex 1.15283 -1.10949 -3.6
    endloop
  endfacet
  facet normal 0 0 -1
    outer loop
      vertex 0.96996 -1.27247 -3.6
      vertex 1.15283 -1.10949 -3.6
      vertex 18.9355 -1.19448 -3.6
    endloop
  endfacet
  facet normal 0 0 -1
    outer loop
      vertex 0.96996 -1.27247 -3.6
      vertex 18.9355 -1.19448 -3.6
      vertex 19.1303 -1.34298 -3.6
    endloop
  endfacet
  facet normal -0.665341 0.746539 0
    outer loop
      vertex 0.96996 -1.27247 0
      vertex 1.15283 -1.10949 0
      vertex 1.15283 -1.10949 -3.6
    endloop
  endfacet
  facet normal 0 0 1
    outer loop
      vertex 0.96996 -1.27247 0
      vertex 18.9355 -1.19448 0
      vertex 1.15283 -1.10949 0
    endloop
  endfacet
  facet normal 0 0 1
    outer loop
      vertex 0.96996 -1.27247 0
      vertex 19.1303 -1.34298 0
      vertex 18.9355 -1.19448 0
    endloop
  endfacet
  facet normal -0.665341 -0.746539 0
    outer loop
      vertex 0.96996 1.27247 -3.6
      vertex 1.15283 1.10949 -3.6
      vertex 1.15283 1.10949 0
    endloop
  endfacet
  facet normal -0.665341 -0.746539 0
    outer loop
      vertex 0.96996 1.27247 -3.6
      vertex 1.15283 1.10949 0
      vertex 0.96996 1.27247 0
    endloop
  endfacet
  facet normal 0 0 -1
    outer loop
      vertex 0.96996 1.27247 -3.6
      vertex 18.9355 1.19448 -3.6
      vertex 1.15283 1.10949 -3.6
    endloop
  endfacet
  facet normal 0 0 -1
    outer loop
      vertex 0.96996 1.27247 -3.6
      vertex 19.1303 1.34298 -3.6
      vertex 18.9355 1.19448 -3.6
    endloop
  endfacet
  facet normal 0 0 1
    outer loop
      vertex 0.96996 1.27247 0
      vertex 1.15283 1.10949 0
      vertex 18.9355 1.19448 0
    endloop
  endfacet
  facet normal 0 0 1
    outer loop
      vertex 0.96996 1.27247 0
      vertex 18.9355 1.19448 0
      vertex 19.1303 1.34298 0
    endloop
  endfacet
  facet normal -0.771472 0.636263 0
    outer loop
      vertex 1.15283 -1.10949 -3.6
      vertex 1.15283 -1.10949 0
      vertex 1.30869 -0.920509 0
    endloop
  endfacet
  facet normal 0 0 -1
    outer loop
      vertex 1.15283 -1.10949 -3.6
      vertex 1.30869 -0.920509 -3.6
      vertex 18.7656 -1.01799 -3.6
    endloop
  endfacet
  facet normal -0.771472 0.636263 0
    outer loop
      vertex 1.15283 -1.10949 -3.6
      vertex 1.30869 -0.920509 0
      vertex 1.30869 -0.920509 -3.6
    endloop
  endfacet
  facet normal 0 0 -1
    outer loop
      vertex 1.15283 -1.10949 -3.6
      vertex 18.7656 -1.01799 -3.6
      vertex 18.9355 -1.19448 -3.6
    endloop
  endfacet
  facet normal 0 0 1
    outer loop
      vertex 1.15283 -1.10949 0
      vertex 18.7656 -1.01799 0
      vertex 1.30869 -0.920509 0
    endloop
  endfacet
  facet normal 0 0 1
    outer loop
      vertex 1.15283 -1.10949 0
      vertex 18.9355 -1.19448 0
      vertex 18.7656 -1.01799 0
    endloop
  endfacet
  facet normal -0.771472 -0.636263 0
    outer loop
      vertex 1.15283 1.10949 -3.6
      vertex 1.30869 0.920509 -3.6
      vertex 1.15283 1.10949 0
    endloop
  endfacet
  facet normal 0 0 -1
    outer loop
      vertex 1.15283 1.10949 -3.6
      vertex 18.7656 1.01799 -3.6
      vertex 1.30869 0.920509 -3.6
    endloop
  endfacet
  facet normal 0 0 -1
    outer loop
      vertex 1.15283 1.10949 -3.6
      vertex 18.9355 1.19448 -3.6
      vertex 18.7656 1.01799 -3.6
    endloop
  endfacet
  facet normal -0.771472 -0.636263 0
    outer loop
      vertex 1.15283 1.10949 0
      vertex 1.30869 0.920509 -3.6
      vertex 1.30869 0.920509 0
    endloop
  endfacet
  facet normal 0 0 1
    outer loop
      vertex 1.15283 1.10949 0
      vertex 1.30869 0.920509 0
      vertex 18.7656 1.01799 0
    endloop
  endfacet
  facet normal 0 0 1
    outer loop
      vertex 1.15283 1.10949 0
      vertex 18.7656 1.01799 0
      vertex 18.9355 1.19448 0
    endloop
  endfacet
  facet normal -0.859584 0.510995 0
    outer loop
      vertex 1.30869 -0.920509 -3.6
      vertex 1.30869 -0.920509 0
      vertex 1.43386 -0.709951 0
    endloop
  endfacet
  facet normal 0 0 -1
    outer loop
      vertex 1.30869 -0.920509 -3.6
      vertex 1.43386 -0.709951 -3.6
      vertex 18.6247 -0.81763 -3.6
    endloop
  endfacet
  facet normal -0.859584 0.510995 0
    outer loop
      vertex 1.30869 -0.920509 -3.6
      vertex 1.43386 -0.709951 0
      vertex 1.43386 -0.709951 -3.6
    endloop
  endfacet
  facet normal 0 0 -1
    outer loop
      vertex 1.30869 -0.920509 -3.6
      vertex 18.6247 -0.81763 -3.6
      vertex 18.7656 -1.01799 -3.6
    endloop
  endfacet
  facet normal 0 0 1
    outer loop
      vertex 1.30869 -0.920509 0
      vertex 18.6247 -0.81763 0
      vertex 1.43386 -0.709951 0
    endloop
  endfacet
  facet normal 0 0 1
    outer loop
      vertex 1.30869 -0.920509 0
      vertex 18.7656 -1.01799 0
      vertex 18.6247 -0.81763 0
    endloop
  endfacet
  facet normal -0.859584 -0.510995 0
    outer loop
      vertex 1.30869 0.920509 -3.6
      vertex 1.43386 0.709951 -3.6
      vertex 1.30869 0.920509 0
    endloop
  endfacet
  facet normal 0 0 -1
    outer loop
      vertex 1.30869 0.920509 -3.6
      vertex 18.6247 0.81763 -3.6
      vertex 1.43386 0.709951 -3.6
    endloop
  endfacet
  facet normal 0 0 -1
    outer loop
      vertex 1.30869 0.920509 -3.6
      vertex 18.7656 1.01799 -3.6
      vertex 18.6247 0.81763 -3.6
    endloop
  endfacet
  facet normal -0.859584 -0.510995 0
    outer loop
      vertex 1.30869 0.920509 0
      vertex 1.43386 0.709951 -3.6
      vertex 1.43386 0.709951 0
    endloop
  endfacet
  facet normal 0 0 1
    outer loop
      vertex 1.30869 0.920509 0
      vertex 1.43386 0.709951 0
      vertex 18.6247 0.81763 0
    endloop
  endfacet
  facet normal 0 0 1
    outer loop
      vertex 1.30869 0.920509 0
      vertex 18.6247 0.81763 0
      vertex 18.7656 1.01799 0
    endloop
  endfacet
  facet normal -0.927501 0.373821 0
    outer loop
      vertex 1.43386 -0.709951 -3.6
      vertex 1.43386 -0.709951 0
      vertex 1.52543 -0.482753 0
    endloop
  endfacet
  facet normal 0 0 -1
    outer loop
      vertex 1.43386 -0.709951 -3.6
      vertex 1.52543 -0.482753 -3.6
      vertex 18.516 -0.598106 -3.6
    endloop
  endfacet
  facet normal -0.927501 0.373821 0
    outer loop
      vertex 1.43386 -0.709951 -3.6
      vertex 1.52543 -0.482753 0
      vertex 1.52543 -0.482753 -3.6
    endloop
  endfacet
  facet normal 0 0 -1
    outer loop
      vertex 1.43386 -0.709951 -3.6
      vertex 18.516 -0.598106 -3.6
      vertex 18.6247 -0.81763 -3.6
    endloop
  endfacet
  facet normal 0 0 1
    outer loop
      vertex 1.43386 -0.709951 0
      vertex 18.516 -0.598106 0
      vertex 1.52543 -0.482753 0
    endloop
  endfacet
  facet normal 0 0 1
    outer loop
      vertex 1.43386 -0.709951 0
      vertex 18.6247 -0.81763 0
      vertex 18.516 -0.598106 0
    endloop
  endfacet
  facet normal -0.927501 -0.373821 0
    outer loop
      vertex 1.43386 0.709951 -3.6
      vertex 1.52543 0.482753 -3.6
      vertex 1.43386 0.709951 0
    endloop
  endfacet
  facet normal 0 0 -1
    outer loop
      vertex 1.43386 0.709951 -3.6
      vertex 18.516 0.598106 -3.6
      vertex 1.52543 0.482753 -3.6
    endloop
  endfacet
  facet normal 0 0 -1
    outer loop
      vertex 1.43386 0.709951 -3.6
      vertex 18.6247 0.81763 -3.6
      vertex 18.516 0.598106 -3.6
    endloop
  endfacet
  facet normal -0.927501 -0.373821 0
    outer loop
      vertex 1.43386 0.709951 0
      vertex 1.52543 0.482753 -3.6
      vertex 1.52543 0.482753 0
    endloop
  endfacet
  facet normal 0 0 1
    outer loop
      vertex 1.43386 0.709951 0
      vertex 1.52543 0.482753 0
      vertex 18.516 0.598106 0
    endloop
  endfacet
  facet normal 0 0 1
    outer loop
      vertex 1.43386 0.709951 0
      vertex 18.516 0.598106 0
      vertex 18.6247 0.81763 0
    endloop
  endfacet
  facet normal -0.97369 0.227875 0
    outer loop
      vertex 1.52543 -0.482753 -3.6
      vertex 1.52543 -0.482753 0
      vertex 1.58125 -0.244239 0
    endloop
  endfacet
  facet normal 0 0 -1
    outer loop
      vertex 1.52543 -0.482753 -3.6
      vertex 1.58125 -0.244239 -3.6
      vertex 18.4421 -0.364565 -3.6
    endloop
  endfacet
  facet normal -0.97369 0.227875 0
    outer loop
      vertex 1.52543 -0.482753 -3.6
      vertex 1.58125 -0.244239 0
      vertex 1.58125 -0.244239 -3.6
    endloop
  endfacet
  facet normal 0 0 -1
    outer loop
      vertex 1.52543 -0.482753 -3.6
      vertex 18.4421 -0.364565 -3.6
      vertex 18.516 -0.598106 -3.6
    endloop
  endfacet
  facet normal 0 0 1
    outer loop
      vertex 1.52543 -0.482753 0
      vertex 18.4421 -0.364565 0
      vertex 1.58125 -0.244239 0
    endloop
  endfacet
  facet normal 0 0 1
    outer loop
      vertex 1.52543 -0.482753 0
      vertex 18.516 -0.598106 0
      vertex 18.4421 -0.364565 0
    endloop
  endfacet
  facet normal -0.97369 -0.227875 0
    outer loop
      vertex 1.52543 0.482753 -3.6
      vertex 1.58125 0.244239 -3.6
      vertex 1.52543 0.482753 0
    endloop
  endfacet
  facet normal 0 0 -1
    outer loop
      vertex 1.52543 0.482753 -3.6
      vertex 18.4421 0.364565 -3.6
      vertex 1.58125 0.244239 -3.6
    endloop
  endfacet
  facet normal 0 0 -1
    outer loop
      vertex 1.52543 0.482753 -3.6
      vertex 18.516 0.598106 -3.6
      vertex 18.4421 0.364565 -3.6
    endloop
  endfacet
  facet normal -0.97369 -0.227875 0
    outer loop
      vertex 1.52543 0.482753 0
      vertex 1.58125 0.244239 -3.6
      vertex 1.58125 0.244239 0
    endloop
  endfacet
  facet normal 0 0 1
    outer loop
      vertex 1.52543 0.482753 0
      vertex 1.58125 0.244239 0
      vertex 18.4421 0.364565 0
    endloop
  endfacet
  facet normal 0 0 1
    outer loop
      vertex 1.52543 0.482753 0
      vertex 18.4421 0.364565 0
      vertex 18.516 0.598106 0
    endloop
  endfacet
  facet normal -0.997066 0.0765438 0
    outer loop
      vertex 1.58125 -0.244239 -3.6
      vertex 1.58125 -0.244239 0
      vertex 1.6 0 0
    endloop
  endfacet
  facet normal 0 0 -1
    outer loop
      vertex 1.58125 -0.244239 -3.6
      vertex 1.6 0 -3.6
      vertex 18.4047 -0.122478 -3.6
    endloop
  endfacet
  facet normal -0.997066 0.0765438 0
    outer loop
      vertex 1.58125 -0.244239 -3.6
      vertex 1.6 0 0
      vertex 1.6 0 -3.6
    endloop
  endfacet
  facet normal 0 0 -1
    outer loop
      vertex 1.58125 -0.244239 -3.6
      vertex 18.4047 -0.122478 -3.6
      vertex 18.4421 -0.364565 -3.6
    endloop
  endfacet
  facet normal 0 0 1
    outer loop
      vertex 1.58125 -0.244239 0
      vertex 18.4047 -0.122478 0
      vertex 1.6 0 0
    endloop
  endfacet
  facet normal 0 0 1
    outer loop
      vertex 1.58125 -0.244239 0
      vertex 18.4421 -0.364565 0
      vertex 18.4047 -0.122478 0
    endloop
  endfacet
  facet normal -0.997066 -0.0765438 0
    outer loop
      vertex 1.58125 0.244239 -3.6
      vertex 1.6 0 -3.6
      vertex 1.58125 0.244239 0
    endloop
  endfacet
  facet normal 0 0 -1
    outer loop
      vertex 1.58125 0.244239 -3.6
      vertex 18.4047 0.122478 -3.6
      vertex 1.6 0 -3.6
    endloop
  endfacet
  facet normal 0 0 -1
    outer loop
      vertex 1.58125 0.244239 -3.6
      vertex 18.4421 0.364565 -3.6
      vertex 18.4047 0.122478 -3.6
    endloop
  endfacet
  facet normal -0.997066 -0.0765438 0
    outer loop
      vertex 1.58125 0.244239 0
      vertex 1.6 0 -3.6
      vertex 1.6 0 0
    endloop
  endfacet
  facet normal 0 0 1
    outer loop
      vertex 1.58125 0.244239 0
      vertex 1.6 0 0
      vertex 18.4047 0.122478 0
    endloop
  endfacet
  facet normal 0 0 1
    outer loop
      vertex 1.58125 0.244239 0
      vertex 18.4047 0.122478 0
      vertex 18.4421 0.364565 0
    endloop
  endfacet
  facet normal 0 0 -1
    outer loop
      vertex 1.6 0 -3.6
      vertex 18.4047 0.122478 -3.6
      vertex 18.4047 -0.122478 -3.6
    endloop
  endfacet
  facet normal 0 0 1
    outer loop
      vertex 1.6 0 0
      vertex 18.4047 -0.122478 0
      vertex 18.4047 0.122478 0
    endloop
  endfacet
  facet normal 0.988276 0.152679 0
    outer loop
      vertex 18.4047 -0.122478 -3.6
      vertex 18.4047 -0.122478 0
      vertex 18.4421 -0.364565 0
    endloop
  endfacet
  facet normal 1 0 0
    outer loop
      vertex 18.4047 -0.122478 -3.6
      vertex 18.4047 0.122478 -3.6
      vertex 18.4047 -0.122478 0
    endloop
  endfacet
  facet normal 0.988276 0.152679 0
    outer loop
      vertex 18.4047 -0.122478 -3.6
      vertex 18.4421 -0.364565 0
      vertex 18.4421 -0.364565 -3.6
    endloop
  endfacet
  facet normal 1 0 0
    outer loop
      vertex 18.4047 -0.122478 0
      vertex 18.4047 0.122478 -3.6
      vertex 18.4047 0.122478 0
    endloop
  endfacet
  facet normal 0.988276 -0.152679 0
    outer loop
      vertex 18.4047 0.122478 -3.6
      vertex 18.4421 0.364565 -3.6
      vertex 18.4047 0.122478 0
    endloop
  endfacet
  facet normal 0.988276 -0.152679 0
    outer loop
      vertex 18.4047 0.122478 0
      vertex 18.4421 0.364565 -3.6
      vertex 18.4421 0.364565 0
    endloop
  endfacet
  facet normal 0.953406 0.301689 0
    outer loop
      vertex 18.4421 -0.364565 -3.6
      vertex 18.4421 -0.364565 0
      vertex 18.516 -0.598106 0
    endloop
  endfacet
  facet normal 0.953406 0.301689 0
    outer loop
      vertex 18.4421 -0.364565 -3.6
      vertex 18.516 -0.598106 0
      vertex 18.516 -0.598106 -3.6
    endloop
  endfacet
  facet normal 0.953406 -0.301689 0
    outer loop
      vertex 18.4421 0.364565 -3.6
      vertex 18.516 0.598106 -3.6
      vertex 18.4421 0.364565 0
    endloop
  endfacet
  facet normal 0.953406 -0.301689 0
    outer loop
      vertex 18.4421 0.364565 0
      vertex 18.516 0.598106 -3.6
      vertex 18.516 0.598106 0
    endloop
  endfacet
  facet normal 0.896155 0.443742 0
    outer loop
      vertex 18.516 -0.598106 -3.6
      vertex 18.516 -0.598106 0
      vertex 18.6247 -0.81763 0
    endloop
  endfacet
  facet normal 0.896155 0.443742 0
    outer loop
      vertex 18.516 -0.598106 -3.6
      vertex 18.6247 -0.81763 0
      vertex 18.6247 -0.81763 -3.6
    endloop
  endfacet
  facet normal 0.896155 -0.443742 0
    outer loop
      vertex 18.516 0.598106 -3.6
      vertex 18.6247 0.81763 -3.6
      vertex 18.516 0.598106 0
    endloop
  endfacet
  facet normal 0.896155 -0.443742 0
    outer loop
      vertex 18.516 0.598106 0
      vertex 18.6247 0.81763 -3.6
      vertex 18.6247 0.81763 0
    endloop
  endfacet
  facet normal 0.817987 0.575237 0
    outer loop
      vertex 18.6247 -0.81763 -3.6
      vertex 18.6247 -0.81763 0
      vertex 18.7656 -1.01799 0
    endloop
  endfacet
  facet normal 0.817987 0.575237 0
    outer loop
      vertex 18.6247 -0.81763 -3.6
      vertex 18.7656 -1.01799 0
      vertex 18.7656 -1.01799 -3.6
    endloop
  endfacet
  facet normal 0.817987 -0.575237 0
    outer loop
      vertex 18.6247 0.81763 -3.6
      vertex 18.7656 1.01799 -3.6
      vertex 18.6247 0.81763 0
    endloop
  endfacet
  facet normal 0.817987 -0.575237 0
    outer loop
      vertex 18.6247 0.81763 0
      vertex 18.7656 1.01799 -3.6
      vertex 18.7656 1.01799 0
    endloop
  endfacet
  facet normal 0.720429 0.693529 0
    outer loop
      vertex 18.7656 -1.01799 -3.6
      vertex 18.7656 -1.01799 0
      vertex 18.9355 -1.19448 0
    endloop
  endfacet
  facet normal 0.720429 0.693529 0
    outer loop
      vertex 18.7656 -1.01799 -3.6
      vertex 18.9355 -1.19448 0
      vertex 18.9355 -1.19448 -3.6
    endloop
  endfacet
  facet normal 0.720429 -0.693529 0
    outer loop
      vertex 18.7656 1.01799 -3.6
      vertex 18.9355 1.19448 -3.6
      vertex 18.7656 1.01799 0
    endloop
  endfacet
  facet normal 0.720429 -0.693529 0
    outer loop
      vertex 18.7656 1.01799 0
      vertex 18.9355 1.19448 -3.6
      vertex 18.9355 1.19448 0
    endloop
  endfacet
  facet normal 0.606252 0.795272 0
    outer loop
      vertex 18.9355 -1.19448 -3.6
      vertex 18.9355 -1.19448 0
      vertex 19.1303 -1.34298 -3.6
    endloop
  endfacet
  facet normal 0.606252 0.795272 0
    outer loop
      vertex 18.9355 -1.19448 0
      vertex 19.1303 -1.34298 0
      vertex 19.1303 -1.34298 -3.6
    endloop
  endfacet
  facet normal 0.606252 -0.795272 0
    outer loop
      vertex 18.9355 1.19448 -3.6
      vertex 19.1303 1.34298 -3.6
      vertex 19.1303 1.34298 0
    endloop
  endfacet
  facet normal 0.606252 -0.795272 0
    outer loop
      vertex 18.9355 1.19448 -3.6
      vertex 19.1303 1.34298 0
      vertex 18.9355 1.19448 0
    endloop
  endfacet
  facet normal 0.477745 0.878499 0
    outer loop
      vertex 19.1303 -1.34298 -3.6
      vertex 19.1303 -1.34298 0
      vertex 19.3455 -1.46001 -3.6
    endloop
  endfacet
  facet normal 0.477745 0.878499 0
    outer loop
      vertex 19.1303 -1.34298 0
      vertex 19.3455 -1.46001 0
      vertex 19.3455 -1.46001 -3.6
    endloop
  endfacet
  facet normal 0.477745 -0.878499 0
    outer loop
      vertex 19.1303 1.34298 -3.6
      vertex 19.3455 1.46001 -3.6
      vertex 19.3455 1.46001 0
    endloop
  endfacet
  facet normal 0.477745 -0.878499 0
    outer loop
      vertex 19.1303 1.34298 -3.6
      vertex 19.3455 1.46001 0
      vertex 19.1303 1.34298 0
    endloop
  endfacet
  facet normal 0.338033 0.941134 0
    outer loop
      vertex 19.3455 -1.46001 -3.6
      vertex 19.3455 -1.46001 0
      vertex 19.576 -1.5428 -3.6
    endloop
  endfacet
  facet normal 0.338033 0.941134 0
    outer loop
      vertex 19.3455 -1.46001 0
      vertex 19.576 -1.5428 0
      vertex 19.576 -1.5428 -3.6
    endloop
  endfacet
  facet normal 0.338033 -0.941134 0
    outer loop
      vertex 19.3455 1.46001 -3.6
      vertex 19.576 1.5428 -3.6
      vertex 19.576 1.5428 0
    endloop
  endfacet
  facet normal 0.338033 -0.941134 0
    outer loop
      vertex 19.3455 1.46001 -3.6
      vertex 19.576 1.5428 0
      vertex 19.3455 1.46001 0
    endloop
  endfacet
  facet normal 0.190382 0.98171 0
    outer loop
      vertex 19.576 -1.5428 -3.6
      vertex 19.576 -1.5428 0
      vertex 19.8165 -1.58944 -3.6
    endloop
  endfacet
  facet normal 0.190382 0.98171 0
    outer loop
      vertex 19.576 -1.5428 0
      vertex 19.8165 -1.58944 0
      vertex 19.8165 -1.58944 -3.6
    endloop
  endfacet
  facet normal 0 0 1
    outer loop
      vertex 19.576 -1.5428 0
      vertex 29.5 -7 0
      vertex 19.8165 -1.58944 0
    endloop
  endfacet
  facet normal 0.190382 -0.98171 0
    outer loop
      vertex 19.576 1.5428 -3.6
      vertex 19.8165 1.58944 -3.6
      vertex 19.8165 1.58944 0
    endloop
  endfacet
  facet normal 0.190382 -0.98171 0
    outer loop
      vertex 19.576 1.5428 -3.6
      vertex 19.8165 1.58944 0
      vertex 19.576 1.5428 0
    endloop
  endfacet
  facet normal 0 0 1
    outer loop
      vertex 19.576 1.5428 0
      vertex 19.8165 1.58944 0
      vertex 29.5 7 0
    endloop
  endfacet
  facet normal 0.0383297 0.999265 0
    outer loop
      vertex 19.8165 -1.58944 -3.6
      vertex 19.8165 -1.58944 0
      vertex 20.0613 -1.59883 -3.6
    endloop
  endfacet
  facet normal 0 0 -1
    outer loop
      vertex 19.8165 -1.58944 -3.6
      vertex 20.0613 -1.59883 -3.6
      vertex 29.5 -3.72107 -3.6
    endloop
  endfacet
  facet normal 0.0383297 0.999265 0
    outer loop
      vertex 19.8165 -1.58944 0
      vertex 20.0613 -1.59883 0
      vertex 20.0613 -1.59883 -3.6
    endloop
  endfacet
  facet normal 0 0 1
    outer loop
      vertex 19.8165 -1.58944 0
      vertex 29.5 -7 0
      vertex 20.0613 -1.59883 0
    endloop
  endfacet
  facet normal 0.0383297 -0.999265 0
    outer loop
      vertex 19.8165 1.58944 -3.6
      vertex 20.0613 1.59883 -3.6
      vertex 20.0613 1.59883 0
    endloop
  endfacet
  facet normal 0.0383297 -0.999265 0
    outer loop
      vertex 19.8165 1.58944 -3.6
      vertex 20.0613 1.59883 0
      vertex 19.8165 1.58944 0
    endloop
  endfacet
  facet normal 0 0 -1
    outer loop
      vertex 19.8165 1.58944 -3.6
      vertex 29.5 3.72107 -3.6
      vertex 20.0613 1.59883 -3.6
    endloop
  endfacet
  facet normal 0 0 1
    outer loop
      vertex 19.8165 1.58944 0
      vertex 20.0613 1.59883 0
      vertex 29.5 7 0
    endloop
  endfacet
  facet normal -0.114733 0.993396 0
    outer loop
      vertex 20.0613 -1.59883 -3.6
      vertex 20.0613 -1.59883 0
      vertex 20.3046 -1.57073 -3.6
    endloop
  endfacet
  facet normal 0 0 -1
    outer loop
      vertex 20.0613 -1.59883 -3.6
      vertex 20.3046 -1.57073 -3.6
      vertex 29.5 -3.72107 -3.6
    endloop
  endfacet
  facet normal -0.114733 0.993396 0
    outer loop
      vertex 20.0613 -1.59883 0
      vertex 20.3046 -1.57073 0
      vertex 20.3046 -1.57073 -3.6
    endloop
  endfacet
  facet normal 0 0 1
    outer loop
      vertex 20.0613 -1.59883 0
      vertex 29.5 -7 0
      vertex 20.3046 -1.57073 0
    endloop
  endfacet
  facet normal -0.114733 -0.993396 0
    outer loop
      vertex 20.0613 1.59883 -3.6
      vertex 20.3046 1.57073 -3.6
      vertex 20.3046 1.57073 0
    endloop
  endfacet
  facet normal -0.114733 -0.993396 0
    outer loop
      vertex 20.0613 1.59883 -3.6
      vertex 20.3046 1.57073 0
      vertex 20.0613 1.59883 0
    endloop
  endfacet
  facet normal 0 0 -1
    outer loop
      vertex 20.0613 1.59883 -3.6
      vertex 29.5 3.72107 -3.6
      vertex 20.3046 1.57073 -3.6
    endloop
  endfacet
  facet normal 0 0 1
    outer loop
      vertex 20.0613 1.59883 0
      vertex 20.3046 1.57073 0
      vertex 29.5 7 0
    endloop
  endfacet
  facet normal -0.264986 0.964252 0
    outer loop
      vertex 20.3046 -1.57073 -3.6
      vertex 20.3046 -1.57073 0
      vertex 20.5408 -1.50582 -3.6
    endloop
  endfacet
  facet normal 0 0 -1
    outer loop
      vertex 20.3046 -1.57073 -3.6
      vertex 20.5408 -1.50582 -3.6
      vertex 29.5 -3.72107 -3.6
    endloop
  endfacet
  facet normal -0.264986 0.964252 0
    outer loop
      vertex 20.3046 -1.57073 0
      vertex 20.5408 -1.50582 0
      vertex 20.5408 -1.50582 -3.6
    endloop
  endfacet
  facet normal 0 0 1
    outer loop
      vertex 20.3046 -1.57073 0
      vertex 29.5 -7 0
      vertex 20.5408 -1.50582 0
    endloop
  endfacet
  facet normal -0.264986 -0.964252 0
    outer loop
      vertex 20.3046 1.57073 -3.6
      vertex 20.5408 1.50582 -3.6
      vertex 20.5408 1.50582 0
    endloop
  endfacet
  facet normal -0.264986 -0.964252 0
    outer loop
      vertex 20.3046 1.57073 -3.6
      vertex 20.5408 1.50582 0
      vertex 20.3046 1.57073 0
    endloop
  endfacet
  facet normal 0 0 -1
    outer loop
      vertex 20.3046 1.57073 -3.6
      vertex 29.5 3.72107 -3.6
      vertex 20.5408 1.50582 -3.6
    endloop
  endfacet
  facet normal 0 0 1
    outer loop
      vertex 20.3046 1.57073 0
      vertex 20.5408 1.50582 0
      vertex 29.5 7 0
    endloop
  endfacet
  facet normal -0.408939 0.912562 0
    outer loop
      vertex 20.5408 -1.50582 -3.6
      vertex 20.5408 -1.50582 0
      vertex 20.7644 -1.40562 -3.6
    endloop
  endfacet
  facet normal 0 0 -1
    outer loop
      vertex 20.5408 -1.50582 -3.6
      vertex 20.7644 -1.40562 -3.6
      vertex 29.5 -3.72107 -3.6
    endloop
  endfacet
  facet normal -0.408939 0.912562 0
    outer loop
      vertex 20.5408 -1.50582 0
      vertex 20.7644 -1.40562 0
      vertex 20.7644 -1.40562 -3.6
    endloop
  endfacet
  facet normal 0 0 1
    outer loop
      vertex 20.5408 -1.50582 0
      vertex 29.5 -7 0
      vertex 20.7644 -1.40562 0
    endloop
  endfacet
  facet normal -0.408939 -0.912562 0
    outer loop
      vertex 20.5408 1.50582 -3.6
      vertex 20.7644 1.40562 -3.6
      vertex 20.7644 1.40562 0
    endloop
  endfacet
  facet normal -0.408939 -0.912562 0
    outer loop
      vertex 20.5408 1.50582 -3.6
      vertex 20.7644 1.40562 0
      vertex 20.5408 1.50582 0
    endloop
  endfacet
  facet normal 0 0 -1
    outer loop
      vertex 20.5408 1.50582 -3.6
      vertex 29.5 3.72107 -3.6
      vertex 20.7644 1.40562 -3.6
    endloop
  endfacet
  facet normal 0 0 1
    outer loop
      vertex 20.5408 1.50582 0
      vertex 20.7644 1.40562 0
      vertex 29.5 7 0
    endloop
  endfacet
  facet normal -0.543581 0.839357 0
    outer loop
      vertex 20.7644 -1.40562 -3.6
      vertex 20.7644 -1.40562 0
      vertex 20.97 -1.27247 -3.6
    endloop
  endfacet
  facet normal 0 0 -1
    outer loop
      vertex 20.7644 -1.40562 -3.6
      vertex 20.97 -1.27247 -3.6
      vertex 29.5 -3.72107 -3.6
    endloop
  endfacet
  facet normal -0.543581 0.839357 0
    outer loop
      vertex 20.7644 -1.40562 0
      vertex 20.97 -1.27247 0
      vertex 20.97 -1.27247 -3.6
    endloop
  endfacet
  facet normal 0 0 1
    outer loop
      vertex 20.7644 -1.40562 0
      vertex 29.5 -7 0
      vertex 20.97 -1.27247 0
    endloop
  endfacet
  facet normal -0.543581 -0.839357 0
    outer loop
      vertex 20.7644 1.40562 -3.6
      vertex 20.97 1.27247 -3.6
      vertex 20.97 1.27247 0
    endloop
  endfacet
  facet normal -0.543581 -0.839357 0
    outer loop
      vertex 20.7644 1.40562 -3.6
      vertex 20.97 1.27247 0
      vertex 20.7644 1.40562 0
    endloop
  endfacet
  facet normal 0 0 -1
    outer loop
      vertex 20.7644 1.40562 -3.6
      vertex 29.5 3.72107 -3.6
      vertex 20.97 1.27247 -3.6
    endloop
  endfacet
  facet normal 0 0 1
    outer loop
      vertex 20.7644 1.40562 0
      vertex 20.97 1.27247 0
      vertex 29.5 7 0
    endloop
  endfacet
  facet normal -0.665483 0.746413 0
    outer loop
      vertex 20.97 -1.27247 -3.6
      vertex 20.97 -1.27247 0
      vertex 21.1528 -1.10949 -3.6
    endloop
  endfacet
  facet normal 0 0 -1
    outer loop
      vertex 20.97 -1.27247 -3.6
      vertex 21.1528 -1.10949 -3.6
      vertex 29.5 -3.72107 -3.6
    endloop
  endfacet
  facet normal -0.665483 0.746413 0
    outer loop
      vertex 20.97 -1.27247 0
      vertex 21.1528 -1.10949 0
      vertex 21.1528 -1.10949 -3.6
    endloop
  endfacet
  facet normal 0 0 1
    outer loop
      vertex 20.97 -1.27247 0
      vertex 29.5 -7 0
      vertex 21.1528 -1.10949 0
    endloop
  endfacet
  facet normal -0.665483 -0.746413 0
    outer loop
      vertex 20.97 1.27247 -3.6
      vertex 21.1528 1.10949 -3.6
      vertex 21.1528 1.10949 0
    endloop
  endfacet
  facet normal -0.665483 -0.746413 0
    outer loop
      vertex 20.97 1.27247 -3.6
      vertex 21.1528 1.10949 0
      vertex 20.97 1.27247 0
    endloop
  endfacet
  facet normal 0 0 -1
    outer loop
      vertex 20.97 1.27247 -3.6
      vertex 29.5 3.72107 -3.6
      vertex 21.1528 1.10949 -3.6
    endloop
  endfacet
  facet normal 0 0 1
    outer loop
      vertex 20.97 1.27247 0
      vertex 21.1528 1.10949 0
      vertex 29.5 7 0
    endloop
  endfacet
  facet normal -0.771392 0.63636 0
    outer loop
      vertex 21.1528 -1.10949 -3.6
      vertex 21.1528 -1.10949 0
      vertex 21.3087 -0.920509 0
    endloop
  endfacet
  facet normal 0 0 -1
    outer loop
      vertex 21.1528 -1.10949 -3.6
      vertex 21.3087 -0.920509 -3.6
      vertex 29.5 -3.72107 -3.6
    endloop
  endfacet
  facet normal -0.771392 0.63636 0
    outer loop
      vertex 21.1528 -1.10949 -3.6
      vertex 21.3087 -0.920509 0
      vertex 21.3087 -0.920509 -3.6
    endloop
  endfacet
  facet normal 0 0 1
    outer loop
      vertex 21.1528 -1.10949 0
      vertex 29.5 -7 0
      vertex 21.3087 -0.920509 0
    endloop
  endfacet
  facet normal -0.771392 -0.63636 0
    outer loop
      vertex 21.1528 1.10949 -3.6
      vertex 21.3087 0.920509 -3.6
      vertex 21.1528 1.10949 0
    endloop
  endfacet
  facet normal 0 0 -1
    outer loop
      vertex 21.1528 1.10949 -3.6
      vertex 29.5 3.72107 -3.6
      vertex 21.3087 0.920509 -3.6
    endloop
  endfacet
  facet normal -0.771392 -0.63636 0
    outer loop
      vertex 21.1528 1.10949 0
      vertex 21.3087 0.920509 -3.6
      vertex 21.3087 0.920509 0
    endloop
  endfacet
  facet normal 0 0 1
    outer loop
      vertex 21.1528 1.10949 0
      vertex 21.3087 0.920509 0
      vertex 29.5 7 0
    endloop
  endfacet
  facet normal -0.85953 0.511086 0
    outer loop
      vertex 21.3087 -0.920509 -3.6
      vertex 21.3087 -0.920509 0
      vertex 21.4339 -0.709951 0
    endloop
  endfacet
  facet normal 0 0 -1
    outer loop
      vertex 21.3087 -0.920509 -3.6
      vertex 21.4339 -0.709951 -3.6
      vertex 29.5 -3.72107 -3.6
    endloop
  endfacet
  facet normal -0.85953 0.511086 0
    outer loop
      vertex 21.3087 -0.920509 -3.6
      vertex 21.4339 -0.709951 0
      vertex 21.4339 -0.709951 -3.6
    endloop
  endfacet
  facet normal 0 0 1
    outer loop
      vertex 21.3087 -0.920509 0
      vertex 29.5 -7 0
      vertex 21.4339 -0.709951 0
    endloop
  endfacet
  facet normal -0.85953 -0.511086 0
    outer loop
      vertex 21.3087 0.920509 -3.6
      vertex 21.4339 0.709951 -3.6
      vertex 21.3087 0.920509 0
    endloop
  endfacet
  facet normal 0 0 -1
    outer loop
      vertex 21.3087 0.920509 -3.6
      vertex 29.5 3.72107 -3.6
      vertex 21.4339 0.709951 -3.6
    endloop
  endfacet
  facet normal -0.85953 -0.511086 0
    outer loop
      vertex 21.3087 0.920509 0
      vertex 21.4339 0.709951 -3.6
      vertex 21.4339 0.709951 0
    endloop
  endfacet
  facet normal 0 0 1
    outer loop
      vertex 21.3087 0.920509 0
      vertex 21.4339 0.709951 0
      vertex 29.5 7 0
    endloop
  endfacet
  facet normal -0.9276 0.373575 0
    outer loop
      vertex 21.4339 -0.709951 -3.6
      vertex 21.4339 -0.709951 0
      vertex 21.5254 -0.482753 0
    endloop
  endfacet
  facet normal 0 0 -1
    outer loop
      vertex 21.4339 -0.709951 -3.6
      vertex 21.5254 -0.482753 -3.6
      vertex 29.5 -3.72107 -3.6
    endloop
  endfacet
  facet normal -0.9276 0.373575 0
    outer loop
      vertex 21.4339 -0.709951 -3.6
      vertex 21.5254 -0.482753 0
      vertex 21.5254 -0.482753 -3.6
    endloop
  endfacet
  facet normal 0 0 1
    outer loop
      vertex 21.4339 -0.709951 0
      vertex 29.5 -7 0
      vertex 21.5254 -0.482753 0
    endloop
  endfacet
  facet normal -0.9276 -0.373575 0
    outer loop
      vertex 21.4339 0.709951 -3.6
      vertex 21.5254 0.482753 -3.6
      vertex 21.4339 0.709951 0
    endloop
  endfacet
  facet normal 0 0 -1
    outer loop
      vertex 21.4339 0.709951 -3.6
      vertex 29.5 3.72107 -3.6
      vertex 21.5254 0.482753 -3.6
    endloop
  endfacet
  facet normal -0.9276 -0.373575 0
    outer loop
      vertex 21.4339 0.709951 0
      vertex 21.5254 0.482753 -3.6
      vertex 21.5254 0.482753 0
    endloop
  endfacet
  facet normal 0 0 1
    outer loop
      vertex 21.4339 0.709951 0
      vertex 21.5254 0.482753 0
      vertex 29.5 7 0
    endloop
  endfacet
  facet normal -0.973708 0.227798 0
    outer loop
      vertex 21.5254 -0.482753 -3.6
      vertex 21.5254 -0.482753 0
      vertex 21.5812 -0.244239 0
    endloop
  endfacet
  facet normal 0 0 -1
    outer loop
      vertex 21.5254 -0.482753 -3.6
      vertex 21.5812 -0.244239 -3.6
      vertex 29.5 -3.72107 -3.6
    endloop
  endfacet
  facet normal -0.973708 0.227798 0
    outer loop
      vertex 21.5254 -0.482753 -3.6
      vertex 21.5812 -0.244239 0
      vertex 21.5812 -0.244239 -3.6
    endloop
  endfacet
  facet normal 0 0 1
    outer loop
      vertex 21.5254 -0.482753 0
      vertex 29.5 -7 0
      vertex 21.5812 -0.244239 0
    endloop
  endfacet
  facet normal -0.973708 -0.227798 0
    outer loop
      vertex 21.5254 0.482753 -3.6
      vertex 21.5812 0.244239 -3.6
      vertex 21.5254 0.482753 0
    endloop
  endfacet
  facet normal 0 0 -1
    outer loop
      vertex 21.5254 0.482753 -3.6
      vertex 29.5 3.72107 -3.6
      vertex 21.5812 0.244239 -3.6
    endloop
  endfacet
  facet normal -0.973708 -0.227798 0
    outer loop
      vertex 21.5254 0.482753 0
      vertex 21.5812 0.244239 -3.6
      vertex 21.5812 0.244239 0
    endloop
  endfacet
  facet normal 0 0 1
    outer loop
      vertex 21.5254 0.482753 0
      vertex 21.5812 0.244239 0
      vertex 29.5 7 0
    endloop
  endfacet
  facet normal -0.997051 0.0767468 0
    outer loop
      vertex 21.5812 -0.244239 -3.6
      vertex 21.5812 -0.244239 0
      vertex 21.6 0 0
    endloop
  endfacet
  facet normal 0 0 -1
    outer loop
      vertex 21.5812 -0.244239 -3.6
      vertex 21.6 0 -3.6
      vertex 29.5 -3.72107 -3.6
    endloop
  endfacet
  facet normal -0.997051 0.0767468 0
    outer loop
      vertex 21.5812 -0.244239 -3.6
      vertex 21.6 0 0
      vertex 21.6 0 -3.6
    endloop
  endfacet
  facet normal 0 0 1
    outer loop
      vertex 21.5812 -0.244239 0
      vertex 29.5 -7 0
      vertex 21.6 0 0
    endloop
  endfacet
  facet normal -0.997051 -0.0767468 0
    outer loop
      vertex 21.5812 0.244239 -3.6
      vertex 21.6 0 -3.6
      vertex 21.5812 0.244239 0
    endloop
  endfacet
  facet normal 0 0 -1
    outer loop
      vertex 21.5812 0.244239 -3.6
      vertex 29.5 3.72107 -3.6
      vertex 21.6 0 -3.6
    endloop
  endfacet
  facet normal -0.997051 -0.0767468 0
    outer loop
      vertex 21.5812 0.244239 0
      vertex 21.6 0 -3.6
      vertex 21.6 0 0
    endloop
  endfacet
  facet normal 0 0 1
    outer loop
      vertex 21.5812 0.244239 0
      vertex 21.6 0 0
      vertex 29.5 7 0
    endloop
  endfacet
  facet normal 0 0 -1
    outer loop
      vertex 21.6 0 -3.6
      vertex 29.5 3.72107 -3.6
      vertex 29.5 -3.72107 -3.6
    endloop
  endfacet
  facet normal 0 0 1
    outer loop
      vertex 21.6 0 0
      vertex 29.5 -7 0
      vertex 29.5 7 0
    endloop
  endfacet
  facet normal 1 0 0
    outer loop
      vertex 29.5 -4.62107 -2.7
      vertex 29.5 -3.72107 -3.6
      vertex 29.5 3.72107 -3.6
    endloop
  endfacet
  facet normal 1 0 0
    outer loop
      vertex 29.5 -4.62107 -2.7
      vertex 29.5 3.72107 -3.6
      vertex 29.5 4.61594 -2.70512
    endloop
  endfacet
  facet normal 1 0 0
    outer loop
      vertex 29.5 -4.62107 -2.7
      vertex 29.5 4.61594 -2.70512
      vertex 29.5 7 0
    endloop
  endfacet
  facet normal 1 0 0
    outer loop
      vertex 29.5 -7 -2.7
      vertex 29.5 -4.62107 -2.7
      vertex 29.5 -7 0
    endloop
  endfacet
  facet normal 1 0 0
    outer loop
      vertex 29.5 -7 0
      vertex 29.5 -4.62107 -2.7
      vertex 29.5 7 0
    endloop
  endfacet
  facet normal 1 0 0
    outer loop
      vertex 29.5 4.61594 -2.70512
      vertex 29.5 7 -2.70512
      vertex 29.5 7 0
    endloop
  endfacet
endsolid OpenSCAD_Model
