solid OpenSCAD_Model
  facet normal 0 0 -1
    outer loop
      vertex -2.3 -7.5 -29.5
      vertex -2.3 -4.621068 -29.5
      vertex 0 -4.5999994 -29.5
    endloop
  endfacet
  facet normal -1 0 0
    outer loop
      vertex -2.3 -7.5 -29.5
      vertex -2.3 -4.621068 29.5
      vertex -2.3 -4.621068 -29.5
    endloop
  endfacet
  facet normal -1 0 0
    outer loop
      vertex -2.3 -7.5 -29.5
      vertex -2.3 -7.5 29.5
      vertex -2.3 -4.621068 29.5
    endloop
  endfacet
  facet normal 0 0 -1
    outer loop
      vertex -2.3 -7.5 -29.5
      vertex 0 -4.5999994 -29.5
      vertex 1.5999994 -7.5 -29.5
    endloop
  endfacet
  facet normal 0 -1 0
    outer loop
      vertex -2.3 -7.5 -29.5
      vertex 1.5999994 -7.5 -29.5
      vertex 1.5999994 -7.5 29.5
    endloop
  endfacet
  facet normal 0 -1 0
    outer loop
      vertex -2.3 -7.5 -29.5
      vertex 1.5999994 -7.5 29.5
      vertex -2.3 -7.5 29.5
    endloop
  endfacet
  facet normal 0 0 1
    outer loop
      vertex -2.3 -7.5 29.5
      vertex 0 -4.5999994 29.5
      vertex -2.3 -4.621068 29.5
    endloop
  endfacet
  facet normal 0 0 1
    outer loop
      vertex -2.3 -7.5 29.5
      vertex 1.5999994 -7.5 29.5
      vertex 0 -4.5999994 29.5
    endloop
  endfacet
  facet normal -1 0 0
    outer loop
      vertex -2.305124 4.615944 -29.5
      vertex -2.305124 4.615944 29.5
      vertex -2.305124 7.5 29.5
    endloop
  endfacet
  facet normal 0 0 -1
    outer loop
      vertex -2.305124 4.615944 -29.5
      vertex -2.305124 7.5 -29.5
      vertex 0 4.5999994 -29.5
    endloop
  endfacet
  facet normal -1 0 0
    outer loop
      vertex -2.305124 4.615944 -29.5
      vertex -2.305124 7.5 29.5
      vertex -2.305124 7.5 -29.5
    endloop
  endfacet
  facet normal 0 0 1
    outer loop
      vertex -2.305124 4.615944 29.5
      vertex 0 4.5999994 29.5
      vertex -2.305124 7.5 29.5
    endloop
  endfacet
  facet normal 0 1 0
    outer loop
      vertex -2.305124 7.5 -29.5
      vertex -2.305124 7.5 29.5
      vertex 1.5999994 7.5 -29.5
    endloop
  endfacet
  facet normal 0 0 -1
    outer loop
      vertex -2.305124 7.5 -29.5
      vertex 1.5999994 7.5 -29.5
      vertex 0 4.5999994 -29.5
    endloop
  endfacet
  facet normal 0 0 1
    outer loop
      vertex -2.305124 7.5 29.5
      vertex 0 4.5999994 29.5
      vertex 1.5999994 7.5 29.5
    endloop
  endfacet
  facet normal 0 1 0
    outer loop
      vertex -2.305124 7.5 29.5
      vertex 1.5999994 7.5 29.5
      vertex 1.5999994 7.5 -29.5
    endloop
  endfacet
  facet normal -1 0 0
    outer loop
      vertex -3 -0.122478485 -18.404694
      vertex -3 0 -1.5999994
      vertex -3 0.122478485 -18.404694
    endloop
  endfacet
  facet normal 0 0 -1
    outer loop
      vertex -3 -0.122478485 -18.404694
      vertex -3 0.122478485 -18.404694
      vertex 0 0.122478485 -18.404694
    endloop
  endfacet
  facet normal 0 0 -1
    outer loop
      vertex -3 -0.122478485 -18.404694
      vertex 0 0.122478485 -18.404694
      vertex 0 -0.122478485 -18.404694
    endloop
  endfacet
  facet normal -1 0 0
    outer loop
      vertex -3 -0.122478485 1.5953045
      vertex -3 0 18.4
      vertex -3 0.122478485 1.5953045
    endloop
  endfacet
  facet normal 0 0 -1
    outer loop
      vertex -3 -0.122478485 1.5953045
      vertex -3 0.122478485 1.5953045
      vertex 0 0.122478485 1.5953045
    endloop
  endfacet
  facet normal 0 0 -1
    outer loop
      vertex -3 -0.122478485 1.5953045
      vertex 0 0.122478485 1.5953045
      vertex 0 -0.122478485 1.5953045
    endloop
  endfacet
  facet normal 0 0 -1
    outer loop
      vertex -3 -0.122478485 21.595304
      vertex -3 0.122478485 21.595304
      vertex 0 0.122478485 21.595304
    endloop
  endfacet
  facet normal -1 0 0
    outer loop
      vertex -3 -0.122478485 21.595304
      vertex -3 3.921068 29.5
      vertex -3 0.122478485 21.595304
    endloop
  endfacet
  facet normal 0 0 -1
    outer loop
      vertex -3 -0.122478485 21.595304
      vertex 0 0.122478485 21.595304
      vertex 0 -0.122478485 21.595304
    endloop
  endfacet
  facet normal -1 0 0
    outer loop
      vertex -3 -0.24423885 -1.5812483
      vertex -3 0 -1.5999994
      vertex -3 -0.122478485 -18.404694
    endloop
  endfacet
  facet normal 0 0.07654853 0.99706584
    outer loop
      vertex -3 -0.24423885 -1.5812483
      vertex 0 -0.24423885 -1.5812483
      vertex -3 0 -1.5999994
    endloop
  endfacet
  facet normal 0 0.22785479 0.9736951
    outer loop
      vertex -3 -0.24423885 -1.5812483
      vertex 0 -0.4827528 -1.5254335
      vertex 0 -0.24423885 -1.5812483
    endloop
  endfacet
  facet normal 0 0.07654079 0.99706644
    outer loop
      vertex -3 -0.24423885 -21.58125
      vertex 0 -0.24423885 -21.58125
      vertex -3 0 -21.599998
    endloop
  endfacet
  facet normal 0 0.22786216 0.9736934
    outer loop
      vertex -3 -0.24423885 -21.58125
      vertex 0 -0.4827528 -21.525433
      vertex 0 -0.24423885 -21.58125
    endloop
  endfacet
  facet normal -1 0 0
    outer loop
      vertex -3 -0.24423885 18.41875
      vertex -3 0 18.4
      vertex -3 -0.122478485 1.5953045
    endloop
  endfacet
  facet normal 0 0.07654853 0.99706584
    outer loop
      vertex -3 -0.24423885 18.41875
      vertex 0 -0.24423885 18.41875
      vertex -3 0 18.4
    endloop
  endfacet
  facet normal 0 0.22785479 0.9736951
    outer loop
      vertex -3 -0.24423885 18.41875
      vertex 0 -0.4827528 18.474566
      vertex 0 -0.24423885 18.41875
    endloop
  endfacet
  facet normal 0 0.15265338 -0.9882798
    outer loop
      vertex -3 -0.3645649 -18.442087
      vertex -3 -0.122478485 -18.404694
      vertex 0 -0.122478485 -18.404694
    endloop
  endfacet
  facet normal -1 0 0
    outer loop
      vertex -3 -0.3645649 -18.442087
      vertex -3 -0.24423885 -1.5812483
      vertex -3 -0.122478485 -18.404694
    endloop
  endfacet
  facet normal 0 0.15265338 -0.9882798
    outer loop
      vertex -3 -0.3645649 -18.442087
      vertex 0 -0.122478485 -18.404694
      vertex 0 -0.3645649 -18.442087
    endloop
  endfacet
  facet normal 0 0.15264958 -0.98828036
    outer loop
      vertex -3 -0.3645649 1.5579119
      vertex -3 -0.122478485 1.5953045
      vertex 0 -0.122478485 1.5953045
    endloop
  endfacet
  facet normal -1 0 0
    outer loop
      vertex -3 -0.3645649 1.5579119
      vertex -3 -0.24423885 18.41875
      vertex -3 -0.122478485 1.5953045
    endloop
  endfacet
  facet normal 0 0.15264958 -0.98828036
    outer loop
      vertex -3 -0.3645649 1.5579119
      vertex 0 -0.122478485 1.5953045
      vertex 0 -0.3645649 1.5579119
    endloop
  endfacet
  facet normal 0 0.15265338 -0.9882798
    outer loop
      vertex -3 -0.3645649 21.55791
      vertex -3 -0.122478485 21.595304
      vertex 0 -0.122478485 21.595304
    endloop
  endfacet
  facet normal 0 0.15265338 -0.9882798
    outer loop
      vertex -3 -0.3645649 21.55791
      vertex 0 -0.122478485 21.595304
      vertex 0 -0.3645649 21.55791
    endloop
  endfacet
  facet normal -1 0 0
    outer loop
      vertex -3 -0.4827528 -1.5254335
      vertex -3 -0.24423885 -1.5812483
      vertex -3 -0.3645649 -18.442087
    endloop
  endfacet
  facet normal 0 0.22785479 0.9736951
    outer loop
      vertex -3 -0.4827528 -1.5254335
      vertex 0 -0.4827528 -1.5254335
      vertex -3 -0.24423885 -1.5812483
    endloop
  endfacet
  facet normal 0 0.37381595 0.9275029
    outer loop
      vertex -3 -0.4827528 -1.5254335
      vertex 0 -0.7099514 -1.4338646
      vertex 0 -0.4827528 -1.5254335
    endloop
  endfacet
  facet normal 0 0.22786216 0.9736934
    outer loop
      vertex -3 -0.4827528 -21.525433
      vertex 0 -0.4827528 -21.525433
      vertex -3 -0.24423885 -21.58125
    endloop
  endfacet
  facet normal 0 0.37381262 0.92750424
    outer loop
      vertex -3 -0.4827528 -21.525433
      vertex 0 -0.7099514 -21.433865
      vertex 0 -0.4827528 -21.525433
    endloop
  endfacet
  facet normal -1 0 0
    outer loop
      vertex -3 -0.4827528 18.474566
      vertex -3 -0.24423885 18.41875
      vertex -3 -0.3645649 1.5579119
    endloop
  endfacet
  facet normal 0 0.22785479 0.9736951
    outer loop
      vertex -3 -0.4827528 18.474566
      vertex 0 -0.4827528 18.474566
      vertex -3 -0.24423885 18.41875
    endloop
  endfacet
  facet normal 0 0.37381932 0.92750156
    outer loop
      vertex -3 -0.4827528 18.474566
      vertex 0 -0.7099514 18.566135
      vertex 0 -0.4827528 18.474566
    endloop
  endfacet
  facet normal 0 0.3017175 -0.9533974
    outer loop
      vertex -3 -0.5981064 -18.515995
      vertex -3 -0.3645649 -18.442087
      vertex 0 -0.3645649 -18.442087
    endloop
  endfacet
  facet normal -1 0 0
    outer loop
      vertex -3 -0.5981064 -18.515995
      vertex -3 -0.4827528 -1.5254335
      vertex -3 -0.3645649 -18.442087
    endloop
  endfacet
  facet normal 0 0.3017175 -0.9533974
    outer loop
      vertex -3 -0.5981064 -18.515995
      vertex 0 -0.3645649 -18.442087
      vertex 0 -0.5981064 -18.515995
    endloop
  endfacet
  facet normal 0 0.30172104 -0.95339626
    outer loop
      vertex -3 -0.5981064 1.4840031
      vertex -3 -0.3645649 1.5579119
      vertex 0 -0.3645649 1.5579119
    endloop
  endfacet
  facet normal -1 0 0
    outer loop
      vertex -3 -0.5981064 1.4840031
      vertex -3 -0.4827528 18.474566
      vertex -3 -0.3645649 1.5579119
    endloop
  endfacet
  facet normal 0 0.30172104 -0.95339626
    outer loop
      vertex -3 -0.5981064 1.4840031
      vertex 0 -0.3645649 1.5579119
      vertex 0 -0.5981064 1.4840031
    endloop
  endfacet
  facet normal 0 0.3017175 -0.9533974
    outer loop
      vertex -3 -0.5981064 21.484003
      vertex -3 -0.3645649 21.55791
      vertex 0 -0.3645649 21.55791
    endloop
  endfacet
  facet normal 0 0.3017175 -0.9533974
    outer loop
      vertex -3 -0.5981064 21.484003
      vertex 0 -0.3645649 21.55791
      vertex 0 -0.5981064 21.484003
    endloop
  endfacet
  facet normal -1 0 0
    outer loop
      vertex -3 -0.7099514 -1.4338646
      vertex -3 -0.4827528 -1.5254335
      vertex -3 -0.5981064 -18.515995
    endloop
  endfacet
  facet normal 0 0.37381595 0.9275029
    outer loop
      vertex -3 -0.7099514 -1.4338646
      vertex 0 -0.7099514 -1.4338646
      vertex -3 -0.4827528 -1.5254335
    endloop
  endfacet
  facet normal 0 0.5110203 0.85956866
    outer loop
      vertex -3 -0.7099514 -1.4338646
      vertex 0 -0.92050934 -1.3086863
      vertex 0 -0.7099514 -1.4338646
    endloop
  endfacet
  facet normal 0 0.37381262 0.92750424
    outer loop
      vertex -3 -0.7099514 -21.433865
      vertex 0 -0.7099514 -21.433865
      vertex -3 -0.4827528 -21.525433
    endloop
  endfacet
  facet normal 0 0.51102316 0.8595669
    outer loop
      vertex -3 -0.7099514 -21.433865
      vertex 0 -0.92050934 -21.308685
      vertex 0 -0.7099514 -21.433865
    endloop
  endfacet
  facet normal -1 0 0
    outer loop
      vertex -3 -0.7099514 18.566135
      vertex -3 -0.4827528 18.474566
      vertex -3 -0.5981064 1.4840031
    endloop
  endfacet
  facet normal 0 0.37381932 0.92750156
    outer loop
      vertex -3 -0.7099514 18.566135
      vertex 0 -0.7099514 18.566135
      vertex -3 -0.4827528 18.474566
    endloop
  endfacet
  facet normal 0 0.5110174 0.8595704
    outer loop
      vertex -3 -0.7099514 18.566135
      vertex 0 -0.92050934 18.691313
      vertex 0 -0.7099514 18.566135
    endloop
  endfacet
  facet normal 0 0.44371718 -0.89616686
    outer loop
      vertex -3 -0.8176298 -18.624687
      vertex -3 -0.5981064 -18.515995
      vertex 0 -0.5981064 -18.515995
    endloop
  endfacet
  facet normal -1 0 0
    outer loop
      vertex -3 -0.8176298 -18.624687
      vertex -3 -0.7099514 -1.4338646
      vertex -3 -0.5981064 -18.515995
    endloop
  endfacet
  facet normal 0 0.44371718 -0.89616686
    outer loop
      vertex -3 -0.8176298 -18.624687
      vertex 0 -0.5981064 -18.515995
      vertex 0 -0.8176298 -18.624687
    endloop
  endfacet
  facet normal 0 0.44371718 -0.89616686
    outer loop
      vertex -3 -0.8176298 1.3753109
      vertex -3 -0.5981064 1.4840031
      vertex 0 -0.5981064 1.4840031
    endloop
  endfacet
  facet normal -1 0 0
    outer loop
      vertex -3 -0.8176298 1.3753109
      vertex -3 -0.7099514 18.566135
      vertex -3 -0.5981064 1.4840031
    endloop
  endfacet
  facet normal 0 0.44371718 -0.89616686
    outer loop
      vertex -3 -0.8176298 1.3753109
      vertex 0 -0.5981064 1.4840031
      vertex 0 -0.8176298 1.3753109
    endloop
  endfacet
  facet normal 0 0.44371718 -0.89616686
    outer loop
      vertex -3 -0.8176298 21.37531
      vertex -3 -0.5981064 21.484003
      vertex 0 -0.5981064 21.484003
    endloop
  endfacet
  facet normal 0 0.44371718 -0.89616686
    outer loop
      vertex -3 -0.8176298 21.37531
      vertex 0 -0.5981064 21.484003
      vertex 0 -0.8176298 21.37531
    endloop
  endfacet
  facet normal -1 0 0
    outer loop
      vertex -3 -0.92050934 -1.3086863
      vertex -3 -0.7099514 -1.4338646
      vertex -3 -0.8176298 -18.624687
    endloop
  endfacet
  facet normal 0 0.5110203 0.85956866
    outer loop
      vertex -3 -0.92050934 -1.3086863
      vertex 0 -0.92050934 -1.3086863
      vertex -3 -0.7099514 -1.4338646
    endloop
  endfacet
  facet normal 0 0.63624245 0.7714892
    outer loop
      vertex -3 -0.92050934 -1.3086863
      vertex 0 -1.1094913 -1.1528339
      vertex 0 -0.92050934 -1.3086863
    endloop
  endfacet
  facet normal 0 0.51102316 0.8595669
    outer loop
      vertex -3 -0.92050934 -21.308685
      vertex 0 -0.92050934 -21.308685
      vertex -3 -0.7099514 -21.433865
    endloop
  endfacet
  facet normal 0 0.6362401 0.7714911
    outer loop
      vertex -3 -0.92050934 -21.308685
      vertex 0 -1.1094913 -21.152834
      vertex 0 -0.92050934 -21.308685
    endloop
  endfacet
  facet normal -1 0 0
    outer loop
      vertex -3 -0.92050934 18.691313
      vertex -3 -0.7099514 18.566135
      vertex -3 -0.8176298 1.3753109
    endloop
  endfacet
  facet normal 0 0.5110174 0.8595704
    outer loop
      vertex -3 -0.92050934 18.691313
      vertex 0 -0.92050934 18.691313
      vertex -3 -0.7099514 18.566135
    endloop
  endfacet
  facet normal 0 0.6362401 0.7714911
    outer loop
      vertex -3 -0.92050934 18.691313
      vertex 0 -1.1094913 18.847164
      vertex 0 -0.92050934 18.691313
    endloop
  endfacet
  facet normal 0 0.5753239 -0.8179257
    outer loop
      vertex -3 -1.0179873 -18.765617
      vertex -3 -0.8176298 -18.624687
      vertex 0 -0.8176298 -18.624687
    endloop
  endfacet
  facet normal -1 0 0
    outer loop
      vertex -3 -1.0179873 -18.765617
      vertex -3 -0.92050934 -1.3086863
      vertex -3 -0.8176298 -18.624687
    endloop
  endfacet
  facet normal 0 0.5753239 -0.8179257
    outer loop
      vertex -3 -1.0179873 -18.765617
      vertex 0 -0.8176298 -18.624687
      vertex 0 -1.0179873 -18.765617
    endloop
  endfacet
  facet normal 0 0.57531863 -0.8179294
    outer loop
      vertex -3 -1.0179873 1.2343826
      vertex -3 -0.8176298 1.3753109
      vertex 0 -0.8176298 1.3753109
    endloop
  endfacet
  facet normal -1 0 0
    outer loop
      vertex -3 -1.0179873 1.2343826
      vertex -3 -0.92050934 18.691313
      vertex -3 -0.8176298 1.3753109
    endloop
  endfacet
  facet normal 0 0.57531863 -0.8179294
    outer loop
      vertex -3 -1.0179873 1.2343826
      vertex 0 -0.8176298 1.3753109
      vertex 0 -1.0179873 1.2343826
    endloop
  endfacet
  facet normal 0 0.57531863 -0.8179294
    outer loop
      vertex -3 -1.0179873 21.234383
      vertex -3 -0.8176298 21.37531
      vertex 0 -0.8176298 21.37531
    endloop
  endfacet
  facet normal 0 0.57531863 -0.8179294
    outer loop
      vertex -3 -1.0179873 21.234383
      vertex 0 -0.8176298 21.37531
      vertex 0 -1.0179873 21.234383
    endloop
  endfacet
  facet normal -1 0 0
    outer loop
      vertex -3 -1.1094913 -1.1528339
      vertex -3 -0.92050934 -1.3086863
      vertex -3 -1.0179873 -18.765617
    endloop
  endfacet
  facet normal 0 0.63624245 0.7714892
    outer loop
      vertex -3 -1.1094913 -1.1528339
      vertex 0 -1.1094913 -1.1528339
      vertex -3 -0.92050934 -1.3086863
    endloop
  endfacet
  facet normal 0 0.6362401 0.7714911
    outer loop
      vertex -3 -1.1094913 -21.152834
      vertex 0 -1.1094913 -21.152834
      vertex -3 -0.92050934 -21.308685
    endloop
  endfacet
  facet normal -1 0 0
    outer loop
      vertex -3 -1.1094913 18.847164
      vertex -3 -0.92050934 18.691313
      vertex -3 -1.0179873 1.2343826
    endloop
  endfacet
  facet normal 0 0.6362401 0.7714911
    outer loop
      vertex -3 -1.1094913 18.847164
      vertex 0 -1.1094913 18.847164
      vertex -3 -0.92050934 18.691313
    endloop
  endfacet
  facet normal 0 0.69343054 -0.7205235
    outer loop
      vertex -3 -1.1944847 -18.935478
      vertex -3 -1.0179873 -18.765617
      vertex 0 -1.0179873 -18.765617
    endloop
  endfacet
  facet normal -1 0 0
    outer loop
      vertex -3 -1.1944847 -18.935478
      vertex -3 -1.1094913 -1.1528339
      vertex -3 -1.0179873 -18.765617
    endloop
  endfacet
  facet normal 0 0.69343054 -0.7205235
    outer loop
      vertex -3 -1.1944847 -18.935478
      vertex 0 -1.0179873 -18.765617
      vertex 0 -1.1944847 -18.935478
    endloop
  endfacet
  facet normal 0 0.79529256 -0.60622585
    outer loop
      vertex -3 -1.1944847 -18.935478
      vertex 0 -1.1944847 -18.935478
      vertex 0 -1.3429842 -19.130291
    endloop
  endfacet
  facet normal 0 0.69343257 -0.72052157
    outer loop
      vertex -3 -1.1944847 1.0645208
      vertex -3 -1.0179873 1.2343826
      vertex 0 -1.0179873 1.2343826
    endloop
  endfacet
  facet normal -1 0 0
    outer loop
      vertex -3 -1.1944847 1.0645208
      vertex -3 -1.1094913 18.847164
      vertex -3 -1.0179873 1.2343826
    endloop
  endfacet
  facet normal 0 0.69343257 -0.72052157
    outer loop
      vertex -3 -1.1944847 1.0645208
      vertex 0 -1.0179873 1.2343826
      vertex 0 -1.1944847 1.0645208
    endloop
  endfacet
  facet normal 0 0.79529256 -0.60622585
    outer loop
      vertex -3 -1.1944847 1.0645208
      vertex 0 -1.1944847 1.0645208
      vertex 0 -1.3429842 0.86970806
    endloop
  endfacet
  facet normal 0 0.69343054 -0.7205235
    outer loop
      vertex -3 -1.1944847 21.064522
      vertex -3 -1.0179873 21.234383
      vertex 0 -1.0179873 21.234383
    endloop
  endfacet
  facet normal 0 0.69343054 -0.7205235
    outer loop
      vertex -3 -1.1944847 21.064522
      vertex 0 -1.0179873 21.234383
      vertex 0 -1.1944847 21.064522
    endloop
  endfacet
  facet normal 0 0.79529256 -0.60622585
    outer loop
      vertex -3 -1.1944847 21.064522
      vertex 0 -1.1944847 21.064522
      vertex 0 -1.3429842 20.869709
    endloop
  endfacet
  facet normal -1 0 0
    outer loop
      vertex -3 -1.2724686 -0.9699602
      vertex -3 -1.1094913 -1.1528339
      vertex -3 -1.1944847 -18.935478
    endloop
  endfacet
  facet normal 0 0.74655163 0.6653275
    outer loop
      vertex -3 -1.2724686 -0.9699602
      vertex 0 -1.1094913 -1.1528339
      vertex -3 -1.1094913 -1.1528339
    endloop
  endfacet
  facet normal 0 0.74655163 0.6653275
    outer loop
      vertex -3 -1.2724686 -0.9699602
      vertex 0 -1.2724686 -0.9699602
      vertex 0 -1.1094913 -1.1528339
    endloop
  endfacet
  facet normal 0 0.74655336 0.6653255
    outer loop
      vertex -3 -1.2724686 -20.96996
      vertex 0 -1.1094913 -21.152834
      vertex -3 -1.1094913 -21.152834
    endloop
  endfacet
  facet normal 0 0.74655336 0.6653255
    outer loop
      vertex -3 -1.2724686 -20.96996
      vertex 0 -1.2724686 -20.96996
      vertex 0 -1.1094913 -21.152834
    endloop
  endfacet
  facet normal -1 0 0
    outer loop
      vertex -3 -1.2724686 19.030039
      vertex -3 -1.1094913 18.847164
      vertex -3 -1.1944847 1.0645208
    endloop
  endfacet
  facet normal 0 0.74655336 0.6653255
    outer loop
      vertex -3 -1.2724686 19.030039
      vertex 0 -1.1094913 18.847164
      vertex -3 -1.1094913 18.847164
    endloop
  endfacet
  facet normal 0 0.74655336 0.6653255
    outer loop
      vertex -3 -1.2724686 19.030039
      vertex 0 -1.2724686 19.030039
      vertex 0 -1.1094913 18.847164
    endloop
  endfacet
  facet normal 0 0.79529256 -0.60622585
    outer loop
      vertex -3 -1.3429842 -19.130291
      vertex -3 -1.1944847 -18.935478
      vertex 0 -1.3429842 -19.130291
    endloop
  endfacet
  facet normal -1 0 0
    outer loop
      vertex -3 -1.3429842 -19.130291
      vertex -3 -1.2724686 -0.9699602
      vertex -3 -1.1944847 -18.935478
    endloop
  endfacet
  facet normal 0 0.8785117 -0.47772083
    outer loop
      vertex -3 -1.3429842 -19.130291
      vertex 0 -1.3429842 -19.130291
      vertex 0 -1.4600058 -19.34549
    endloop
  endfacet
  facet normal 0 0.79529256 -0.60622585
    outer loop
      vertex -3 -1.3429842 0.86970806
      vertex -3 -1.1944847 1.0645208
      vertex 0 -1.3429842 0.86970806
    endloop
  endfacet
  facet normal -1 0 0
    outer loop
      vertex -3 -1.3429842 0.86970806
      vertex -3 -1.2724686 19.030039
      vertex -3 -1.1944847 1.0645208
    endloop
  endfacet
  facet normal 0 0.8785117 -0.47772083
    outer loop
      vertex -3 -1.3429842 0.86970806
      vertex 0 -1.3429842 0.86970806
      vertex 0 -1.4600058 0.65450954
    endloop
  endfacet
  facet normal 0 0.79529256 -0.60622585
    outer loop
      vertex -3 -1.3429842 20.869709
      vertex -3 -1.1944847 21.064522
      vertex 0 -1.3429842 20.869709
    endloop
  endfacet
  facet normal 0 0.8785117 -0.47772083
    outer loop
      vertex -3 -1.3429842 20.869709
      vertex 0 -1.3429842 20.869709
      vertex 0 -1.4600058 20.65451
    endloop
  endfacet
  facet normal -1 0 0
    outer loop
      vertex -3 -1.4056187 -0.7643509
      vertex -3 -1.2724686 -0.9699602
      vertex -3 -1.3429842 -19.130291
    endloop
  endfacet
  facet normal 0 0.83936757 0.54356426
    outer loop
      vertex -3 -1.4056187 -0.7643509
      vertex 0 -1.2724686 -0.9699602
      vertex -3 -1.2724686 -0.9699602
    endloop
  endfacet
  facet normal 0 0.83936757 0.54356426
    outer loop
      vertex -3 -1.4056187 -0.7643509
      vertex 0 -1.4056187 -0.7643509
      vertex 0 -1.2724686 -0.9699602
    endloop
  endfacet
  facet normal 0 0.83936644 0.54356605
    outer loop
      vertex -3 -1.4056187 -20.76435
      vertex 0 -1.2724686 -20.96996
      vertex -3 -1.2724686 -20.96996
    endloop
  endfacet
  facet normal 0 0.83936644 0.54356605
    outer loop
      vertex -3 -1.4056187 -20.76435
      vertex 0 -1.4056187 -20.76435
      vertex 0 -1.2724686 -20.96996
    endloop
  endfacet
  facet normal -1 0 0
    outer loop
      vertex -3 -1.4056187 19.23565
      vertex -3 -1.2724686 19.030039
      vertex -3 -1.3429842 0.86970806
    endloop
  endfacet
  facet normal 0 0.8393687 0.5435625
    outer loop
      vertex -3 -1.4056187 19.23565
      vertex 0 -1.2724686 19.030039
      vertex -3 -1.2724686 19.030039
    endloop
  endfacet
  facet normal 0 0.8393687 0.5435625
    outer loop
      vertex -3 -1.4056187 19.23565
      vertex 0 -1.4056187 19.23565
      vertex 0 -1.2724686 19.030039
    endloop
  endfacet
  facet normal 0 0.8785117 -0.47772083
    outer loop
      vertex -3 -1.4600058 -19.34549
      vertex -3 -1.3429842 -19.130291
      vertex 0 -1.4600058 -19.34549
    endloop
  endfacet
  facet normal -1 0 0
    outer loop
      vertex -3 -1.4600058 -19.34549
      vertex -3 -1.4056187 -0.7643509
      vertex -3 -1.3429842 -19.130291
    endloop
  endfacet
  facet normal 0 0.9411411 -0.33801395
    outer loop
      vertex -3 -1.4600058 -19.34549
      vertex 0 -1.4600058 -19.34549
      vertex 0 -1.5428047 -19.576029
    endloop
  endfacet
  facet normal 0 0.8785117 -0.47772083
    outer loop
      vertex -3 -1.4600058 0.65450954
      vertex -3 -1.3429842 0.86970806
      vertex 0 -1.4600058 0.65450954
    endloop
  endfacet
  facet normal -1 0 0
    outer loop
      vertex -3 -1.4600058 0.65450954
      vertex -3 -1.4056187 19.23565
      vertex -3 -1.3429842 0.86970806
    endloop
  endfacet
  facet normal 0 0.9411411 -0.33801395
    outer loop
      vertex -3 -1.4600058 0.65450954
      vertex 0 -1.4600058 0.65450954
      vertex 0 -1.5428047 0.42397022
    endloop
  endfacet
  facet normal 0 0.8785117 -0.47772083
    outer loop
      vertex -3 -1.4600058 20.65451
      vertex -3 -1.3429842 20.869709
      vertex 0 -1.4600058 20.65451
    endloop
  endfacet
  facet normal 0 0.941142 -0.33801144
    outer loop
      vertex -3 -1.4600058 20.65451
      vertex 0 -1.4600058 20.65451
      vertex 0 -1.5428047 20.42397
    endloop
  endfacet
  facet normal -1 0 0
    outer loop
      vertex -3 -1.5058231 -0.5408268
      vertex -3 -1.4056187 -0.7643509
      vertex -3 -1.4600058 -19.34549
    endloop
  endfacet
  facet normal 0 0.9125032 0.40906954
    outer loop
      vertex -3 -1.5058231 -0.5408268
      vertex 0 -1.4056187 -0.7643509
      vertex -3 -1.4056187 -0.7643509
    endloop
  endfacet
  facet normal 0 0.9125032 0.40906954
    outer loop
      vertex -3 -1.5058231 -0.5408268
      vertex 0 -1.5058231 -0.5408268
      vertex 0 -1.4056187 -0.7643509
    endloop
  endfacet
  facet normal 0 0.9125032 0.40906954
    outer loop
      vertex -3 -1.5058231 -20.540827
      vertex 0 -1.4056187 -20.76435
      vertex -3 -1.4056187 -20.76435
    endloop
  endfacet
  facet normal 0 0.9125032 0.40906954
    outer loop
      vertex -3 -1.5058231 -20.540827
      vertex 0 -1.5058231 -20.540827
      vertex 0 -1.4056187 -20.76435
    endloop
  endfacet
  facet normal -1 0 0
    outer loop
      vertex -3 -1.5058231 19.459171
      vertex -3 -1.4056187 19.23565
      vertex -3 -1.4600058 0.65450954
    endloop
  endfacet
  facet normal 0 0.91250193 0.40907246
    outer loop
      vertex -3 -1.5058231 19.459171
      vertex 0 -1.4056187 19.23565
      vertex -3 -1.4056187 19.23565
    endloop
  endfacet
  facet normal 0 0.91250193 0.40907246
    outer loop
      vertex -3 -1.5058231 19.459171
      vertex 0 -1.5058231 19.459171
      vertex 0 -1.4056187 19.23565
    endloop
  endfacet
  facet normal 0 0.9411411 -0.33801395
    outer loop
      vertex -3 -1.5428047 -19.576029
      vertex -3 -1.4600058 -19.34549
      vertex 0 -1.5428047 -19.576029
    endloop
  endfacet
  facet normal -1 0 0
    outer loop
      vertex -3 -1.5428047 -19.576029
      vertex -3 -1.5058231 -0.5408268
      vertex -3 -1.4600058 -19.34549
    endloop
  endfacet
  facet normal 0 0.9817077 -0.19039425
    outer loop
      vertex -3 -1.5428047 -19.576029
      vertex 0 -1.5428047 -19.576029
      vertex 0 -1.5894432 -19.816505
    endloop
  endfacet
  facet normal 0 0.9411411 -0.33801395
    outer loop
      vertex -3 -1.5428047 0.42397022
      vertex -3 -1.4600058 0.65450954
      vertex 0 -1.5428047 0.42397022
    endloop
  endfacet
  facet normal -1 0 0
    outer loop
      vertex -3 -1.5428047 0.42397022
      vertex -3 -1.5058231 19.459171
      vertex -3 -1.4600058 0.65450954
    endloop
  endfacet
  facet normal 0 0.9817079 -0.19039352
    outer loop
      vertex -3 -1.5428047 0.42397022
      vertex 0 -1.5428047 0.42397022
      vertex 0 -1.5894432 0.18349266
    endloop
  endfacet
  facet normal 0 0.941142 -0.33801144
    outer loop
      vertex -3 -1.5428047 20.42397
      vertex -3 -1.4600058 20.65451
      vertex 0 -1.5428047 20.42397
    endloop
  endfacet
  facet normal 0 0.9817077 -0.19039425
    outer loop
      vertex -3 -1.5428047 20.42397
      vertex 0 -1.5428047 20.42397
      vertex 0 -1.5894432 20.183493
    endloop
  endfacet
  facet normal -1 0 0
    outer loop
      vertex -3 -1.5707331 -0.3046255
      vertex -3 -1.5058231 -0.5408268
      vertex -3 -1.5428047 -19.576029
    endloop
  endfacet
  facet normal 0 0.96425277 0.2649841
    outer loop
      vertex -3 -1.5707331 -0.3046255
      vertex 0 -1.5058231 -0.5408268
      vertex -3 -1.5058231 -0.5408268
    endloop
  endfacet
  facet normal 0 0.96425277 0.2649841
    outer loop
      vertex -3 -1.5707331 -0.3046255
      vertex 0 -1.5707331 -0.3046255
      vertex 0 -1.5058231 -0.5408268
    endloop
  endfacet
  facet normal 0 0.96425253 0.26498508
    outer loop
      vertex -3 -1.5707331 -20.304626
      vertex 0 -1.5058231 -20.540827
      vertex -3 -1.5058231 -20.540827
    endloop
  endfacet
  facet normal 0 0.96425253 0.26498508
    outer loop
      vertex -3 -1.5707331 -20.304626
      vertex 0 -1.5707331 -20.304626
      vertex 0 -1.5058231 -20.540827
    endloop
  endfacet
  facet normal -1 0 0
    outer loop
      vertex -3 -1.5707331 19.695374
      vertex -3 -1.5058231 19.459171
      vertex -3 -1.5428047 0.42397022
    endloop
  endfacet
  facet normal 0 0.96425307 0.26498312
    outer loop
      vertex -3 -1.5707331 19.695374
      vertex 0 -1.5058231 19.459171
      vertex -3 -1.5058231 19.459171
    endloop
  endfacet
  facet normal 0 0.96425307 0.26498312
    outer loop
      vertex -3 -1.5707331 19.695374
      vertex 0 -1.5707331 19.695374
      vertex 0 -1.5058231 19.459171
    endloop
  endfacet
  facet normal 0 0.9817077 -0.19039425
    outer loop
      vertex -3 -1.5894432 -19.816505
      vertex -3 -1.5428047 -19.576029
      vertex 0 -1.5894432 -19.816505
    endloop
  endfacet
  facet normal -1 0 0
    outer loop
      vertex -3 -1.5894432 -19.816505
      vertex -3 -1.5707331 -0.3046255
      vertex -3 -1.5428047 -19.576029
    endloop
  endfacet
  facet normal 0 0.9992662 -0.038301546
    outer loop
      vertex -3 -1.5894432 -19.816505
      vertex 0 -1.5894432 -19.816505
      vertex 0 -1.5988255 -20.061283
    endloop
  endfacet
  facet normal 0 0.9817079 -0.19039352
    outer loop
      vertex -3 -1.5894432 0.18349266
      vertex -3 -1.5428047 0.42397022
      vertex 0 -1.5894432 0.18349266
    endloop
  endfacet
  facet normal -1 0 0
    outer loop
      vertex -3 -1.5894432 0.18349266
      vertex -3 -1.5707331 19.695374
      vertex -3 -1.5428047 0.42397022
    endloop
  endfacet
  facet normal 0 0.9992662 -0.038301695
    outer loop
      vertex -3 -1.5894432 0.18349266
      vertex 0 -1.5894432 0.18349266
      vertex 0 -1.5988255 -0.061284065
    endloop
  endfacet
  facet normal 0 0.9817077 -0.19039425
    outer loop
      vertex -3 -1.5894432 20.183493
      vertex -3 -1.5428047 20.42397
      vertex 0 -1.5894432 20.183493
    endloop
  endfacet
  facet normal 0 0.9992662 -0.038301546
    outer loop
      vertex -3 -1.5894432 20.183493
      vertex 0 -1.5894432 20.183493
      vertex 0 -1.5988255 19.938715
    endloop
  endfacet
  facet normal 0 0.9992662 -0.038301695
    outer loop
      vertex -3 -1.5988255 -0.061284065
      vertex -3 -1.5894432 0.18349266
      vertex 0 -1.5988255 -0.061284065
    endloop
  endfacet
  facet normal 0 0.9934022 0.11468262
    outer loop
      vertex -3 -1.5988255 -0.061284065
      vertex 0 -1.5707331 -0.3046255
      vertex -3 -1.5707331 -0.3046255
    endloop
  endfacet
  facet normal 0 0.9934022 0.11468262
    outer loop
      vertex -3 -1.5988255 -0.061284065
      vertex 0 -1.5988255 -0.061284065
      vertex 0 -1.5707331 -0.3046255
    endloop
  endfacet
  facet normal 0 0.9992662 -0.038301546
    outer loop
      vertex -3 -1.5988255 -20.061283
      vertex -3 -1.5894432 -19.816505
      vertex 0 -1.5988255 -20.061283
    endloop
  endfacet
  facet normal 0 0.9934023 0.114681736
    outer loop
      vertex -3 -1.5988255 -20.061283
      vertex 0 -1.5707331 -20.304626
      vertex -3 -1.5707331 -20.304626
    endloop
  endfacet
  facet normal 0 0.9934023 0.114681736
    outer loop
      vertex -3 -1.5988255 -20.061283
      vertex 0 -1.5988255 -20.061283
      vertex 0 -1.5707331 -20.304626
    endloop
  endfacet
  facet normal 0 0.9992662 -0.038301546
    outer loop
      vertex -3 -1.5988255 19.938715
      vertex -3 -1.5894432 20.183493
      vertex 0 -1.5988255 19.938715
    endloop
  endfacet
  facet normal 0 0.9934022 0.11468262
    outer loop
      vertex -3 -1.5988255 19.938715
      vertex 0 -1.5707331 19.695374
      vertex -3 -1.5707331 19.695374
    endloop
  endfacet
  facet normal 0 0.9934022 0.11468262
    outer loop
      vertex -3 -1.5988255 19.938715
      vertex 0 -1.5988255 19.938715
      vertex 0 -1.5707331 19.695374
    endloop
  endfacet
  facet normal -0.70710677 -0.70710677 0
    outer loop
      vertex -3 -3.921068 -29.5
      vertex -2.3 -4.621068 -29.5
      vertex -3 -3.921068 29.5
    endloop
  endfacet
  facet normal -1 0 0
    outer loop
      vertex -3 -3.921068 -29.5
      vertex -3 -0.24423885 -21.58125
      vertex -3 0 -21.599998
    endloop
  endfacet
  facet normal -1 0 0
    outer loop
      vertex -3 -3.921068 -29.5
      vertex -3 -0.4827528 -21.525433
      vertex -3 -0.24423885 -21.58125
    endloop
  endfacet
  facet normal -1 0 0
    outer loop
      vertex -3 -3.921068 -29.5
      vertex -3 -0.7099514 -21.433865
      vertex -3 -0.4827528 -21.525433
    endloop
  endfacet
  facet normal -1 0 0
    outer loop
      vertex -3 -3.921068 -29.5
      vertex -3 -0.92050934 -21.308685
      vertex -3 -0.7099514 -21.433865
    endloop
  endfacet
  facet normal -1 0 0
    outer loop
      vertex -3 -3.921068 -29.5
      vertex -3 -1.1094913 -21.152834
      vertex -3 -0.92050934 -21.308685
    endloop
  endfacet
  facet normal -1 0 0
    outer loop
      vertex -3 -3.921068 -29.5
      vertex -3 -1.2724686 -20.96996
      vertex -3 -1.1094913 -21.152834
    endloop
  endfacet
  facet normal -1 0 0
    outer loop
      vertex -3 -3.921068 -29.5
      vertex -3 -1.4056187 -20.76435
      vertex -3 -1.2724686 -20.96996
    endloop
  endfacet
  facet normal -1 0 0
    outer loop
      vertex -3 -3.921068 -29.5
      vertex -3 -1.5058231 -20.540827
      vertex -3 -1.4056187 -20.76435
    endloop
  endfacet
  facet normal -1 0 0
    outer loop
      vertex -3 -3.921068 -29.5
      vertex -3 -1.5707331 -0.3046255
      vertex -3 -1.5894432 -19.816505
    endloop
  endfacet
  facet normal -1 0 0
    outer loop
      vertex -3 -3.921068 -29.5
      vertex -3 -1.5707331 -20.304626
      vertex -3 -1.5058231 -20.540827
    endloop
  endfacet
  facet normal -1 0 0
    outer loop
      vertex -3 -3.921068 -29.5
      vertex -3 -1.5894432 -19.816505
      vertex -3 -1.5988255 -20.061283
    endloop
  endfacet
  facet normal -1 0 0
    outer loop
      vertex -3 -3.921068 -29.5
      vertex -3 -1.5988255 -0.061284065
      vertex -3 -1.5707331 -0.3046255
    endloop
  endfacet
  facet normal -1 0 0
    outer loop
      vertex -3 -3.921068 -29.5
      vertex -3 -1.5988255 -20.061283
      vertex -3 -1.5707331 -20.304626
    endloop
  endfacet
  facet normal -1 0 0
    outer loop
      vertex -3 -3.921068 -29.5
      vertex -3 -3.921068 29.5
      vertex -3 -1.5988255 -0.061284065
    endloop
  endfacet
  facet normal -1 0 0
    outer loop
      vertex -3 -3.921068 -29.5
      vertex -3 0 -21.599998
      vertex -3 3.921068 -29.5
    endloop
  endfacet
  facet normal 0 0 -1
    outer loop
      vertex -3 -3.921068 -29.5
      vertex -3 3.921068 -29.5
      vertex 0 4.5999994 -29.5
    endloop
  endfacet
  facet normal 0 0 -1
    outer loop
      vertex -3 -3.921068 -29.5
      vertex 0 -4.5999994 -29.5
      vertex -2.3 -4.621068 -29.5
    endloop
  endfacet
  facet normal 0 0 -1
    outer loop
      vertex -3 -3.921068 -29.5
      vertex 0 4.5999994 -29.5
      vertex 0 -4.5999994 -29.5
    endloop
  endfacet
  facet normal -0.70710677 -0.70710677 0
    outer loop
      vertex -3 -3.921068 29.5
      vertex -2.3 -4.621068 -29.5
      vertex -2.3 -4.621068 29.5
    endloop
  endfacet
  facet normal 0 0 1
    outer loop
      vertex -3 -3.921068 29.5
      vertex -2.3 -4.621068 29.5
      vertex 0 -4.5999994 29.5
    endloop
  endfacet
  facet normal -1 0 0
    outer loop
      vertex -3 -3.921068 29.5
      vertex -3 -0.122478485 21.595304
      vertex -3 -0.3645649 21.55791
    endloop
  endfacet
  facet normal -1 0 0
    outer loop
      vertex -3 -3.921068 29.5
      vertex -3 -0.3645649 21.55791
      vertex -3 -0.5981064 21.484003
    endloop
  endfacet
  facet normal -1 0 0
    outer loop
      vertex -3 -3.921068 29.5
      vertex -3 -0.5981064 21.484003
      vertex -3 -0.8176298 21.37531
    endloop
  endfacet
  facet normal -1 0 0
    outer loop
      vertex -3 -3.921068 29.5
      vertex -3 -0.8176298 21.37531
      vertex -3 -1.0179873 21.234383
    endloop
  endfacet
  facet normal -1 0 0
    outer loop
      vertex -3 -3.921068 29.5
      vertex -3 -1.0179873 21.234383
      vertex -3 -1.1944847 21.064522
    endloop
  endfacet
  facet normal -1 0 0
    outer loop
      vertex -3 -3.921068 29.5
      vertex -3 -1.1944847 21.064522
      vertex -3 -1.3429842 20.869709
    endloop
  endfacet
  facet normal -1 0 0
    outer loop
      vertex -3 -3.921068 29.5
      vertex -3 -1.3429842 20.869709
      vertex -3 -1.4600058 20.65451
    endloop
  endfacet
  facet normal -1 0 0
    outer loop
      vertex -3 -3.921068 29.5
      vertex -3 -1.4600058 20.65451
      vertex -3 -1.5428047 20.42397
    endloop
  endfacet
  facet normal -1 0 0
    outer loop
      vertex -3 -3.921068 29.5
      vertex -3 -1.5428047 20.42397
      vertex -3 -1.5894432 20.183493
    endloop
  endfacet
  facet normal -1 0 0
    outer loop
      vertex -3 -3.921068 29.5
      vertex -3 -1.5707331 19.695374
      vertex -3 -1.5894432 0.18349266
    endloop
  endfacet
  facet normal -1 0 0
    outer loop
      vertex -3 -3.921068 29.5
      vertex -3 -1.5894432 0.18349266
      vertex -3 -1.5988255 -0.061284065
    endloop
  endfacet
  facet normal -1 0 0
    outer loop
      vertex -3 -3.921068 29.5
      vertex -3 -1.5894432 20.183493
      vertex -3 -1.5988255 19.938715
    endloop
  endfacet
  facet normal -1 0 0
    outer loop
      vertex -3 -3.921068 29.5
      vertex -3 -1.5988255 19.938715
      vertex -3 -1.5707331 19.695374
    endloop
  endfacet
  facet normal -1 0 0
    outer loop
      vertex -3 -3.921068 29.5
      vertex -3 3.921068 29.5
      vertex -3 -0.122478485 21.595304
    endloop
  endfacet
  facet normal 0 0 1
    outer loop
      vertex -3 -3.921068 29.5
      vertex 0 -4.5999994 29.5
      vertex 0 4.5999994 29.5
    endloop
  endfacet
  facet normal 0 0 1
    outer loop
      vertex -3 -3.921068 29.5
      vertex 0 4.5999994 29.5
      vertex -3 3.921068 29.5
    endloop
  endfacet
  facet normal -1 0 0
    outer loop
      vertex -3 0 -1.5999994
      vertex -3 0.24423885 -1.5812483
      vertex -3 0.122478485 -18.404694
    endloop
  endfacet
  facet normal 0 0.07654853 0.99706584
    outer loop
      vertex -3 0 -1.5999994
      vertex 0 -0.24423885 -1.5812483
      vertex 0 0 -1.5999994
    endloop
  endfacet
  facet normal 0 -0.07654853 0.99706584
    outer loop
      vertex -3 0 -1.5999994
      vertex 0 0 -1.5999994
      vertex -3 0.24423885 -1.5812483
    endloop
  endfacet
  facet normal -1 0 0
    outer loop
      vertex -3 0 -21.599998
      vertex -3 0.24423885 -21.58125
      vertex -3 3.921068 -29.5
    endloop
  endfacet
  facet normal 0 0.07654079 0.99706644
    outer loop
      vertex -3 0 -21.599998
      vertex 0 -0.24423885 -21.58125
      vertex 0 0 -21.599998
    endloop
  endfacet
  facet normal 0 -0.07654079 0.99706644
    outer loop
      vertex -3 0 -21.599998
      vertex 0 0 -21.599998
      vertex -3 0.24423885 -21.58125
    endloop
  endfacet
  facet normal -1 0 0
    outer loop
      vertex -3 0 18.4
      vertex -3 0.24423885 18.41875
      vertex -3 0.122478485 1.5953045
    endloop
  endfacet
  facet normal 0 0.07654853 0.99706584
    outer loop
      vertex -3 0 18.4
      vertex 0 -0.24423885 18.41875
      vertex 0 0 18.4
    endloop
  endfacet
  facet normal 0 -0.07654853 0.99706584
    outer loop
      vertex -3 0 18.4
      vertex 0 0 18.4
      vertex -3 0.24423885 18.41875
    endloop
  endfacet
  facet normal -1 0 0
    outer loop
      vertex -3 0.122478485 -18.404694
      vertex -3 0.24423885 -1.5812483
      vertex -3 0.3645649 -18.442087
    endloop
  endfacet
  facet normal 0 -0.15265338 -0.9882798
    outer loop
      vertex -3 0.122478485 -18.404694
      vertex -3 0.3645649 -18.442087
      vertex 0 0.3645649 -18.442087
    endloop
  endfacet
  facet normal 0 -0.15265338 -0.9882798
    outer loop
      vertex -3 0.122478485 -18.404694
      vertex 0 0.3645649 -18.442087
      vertex 0 0.122478485 -18.404694
    endloop
  endfacet
  facet normal -1 0 0
    outer loop
      vertex -3 0.122478485 1.5953045
      vertex -3 0.24423885 18.41875
      vertex -3 0.3645649 1.5579119
    endloop
  endfacet
  facet normal 0 -0.15264958 -0.98828036
    outer loop
      vertex -3 0.122478485 1.5953045
      vertex -3 0.3645649 1.5579119
      vertex 0 0.3645649 1.5579119
    endloop
  endfacet
  facet normal 0 -0.15264958 -0.98828036
    outer loop
      vertex -3 0.122478485 1.5953045
      vertex 0 0.3645649 1.5579119
      vertex 0 0.122478485 1.5953045
    endloop
  endfacet
  facet normal 0 -0.15265338 -0.9882798
    outer loop
      vertex -3 0.122478485 21.595304
      vertex -3 0.3645649 21.55791
      vertex 0 0.3645649 21.55791
    endloop
  endfacet
  facet normal -1 0 0
    outer loop
      vertex -3 0.122478485 21.595304
      vertex -3 3.921068 29.5
      vertex -3 0.3645649 21.55791
    endloop
  endfacet
  facet normal 0 -0.15265338 -0.9882798
    outer loop
      vertex -3 0.122478485 21.595304
      vertex 0 0.3645649 21.55791
      vertex 0 0.122478485 21.595304
    endloop
  endfacet
  facet normal -1 0 0
    outer loop
      vertex -3 0.24423885 -1.5812483
      vertex -3 0.4827528 -1.5254335
      vertex -3 0.3645649 -18.442087
    endloop
  endfacet
  facet normal 0 -0.07654853 0.99706584
    outer loop
      vertex -3 0.24423885 -1.5812483
      vertex 0 0 -1.5999994
      vertex 0 0.24423885 -1.5812483
    endloop
  endfacet
  facet normal 0 -0.22785479 0.9736951
    outer loop
      vertex -3 0.24423885 -1.5812483
      vertex 0 0.24423885 -1.5812483
      vertex -3 0.4827528 -1.5254335
    endloop
  endfacet
  facet normal -1 0 0
    outer loop
      vertex -3 0.24423885 -21.58125
      vertex -3 0.4827528 -21.525433
      vertex -3 3.921068 -29.5
    endloop
  endfacet
  facet normal 0 -0.07654079 0.99706644
    outer loop
      vertex -3 0.24423885 -21.58125
      vertex 0 0 -21.599998
      vertex 0 0.24423885 -21.58125
    endloop
  endfacet
  facet normal 0 -0.22786216 0.9736934
    outer loop
      vertex -3 0.24423885 -21.58125
      vertex 0 0.24423885 -21.58125
      vertex -3 0.4827528 -21.525433
    endloop
  endfacet
  facet normal -1 0 0
    outer loop
      vertex -3 0.24423885 18.41875
      vertex -3 0.4827528 18.474566
      vertex -3 0.3645649 1.5579119
    endloop
  endfacet
  facet normal 0 -0.07654853 0.99706584
    outer loop
      vertex -3 0.24423885 18.41875
      vertex 0 0 18.4
      vertex 0 0.24423885 18.41875
    endloop
  endfacet
  facet normal 0 -0.22785479 0.9736951
    outer loop
      vertex -3 0.24423885 18.41875
      vertex 0 0.24423885 18.41875
      vertex -3 0.4827528 18.474566
    endloop
  endfacet
  facet normal -1 0 0
    outer loop
      vertex -3 0.3645649 -18.442087
      vertex -3 0.4827528 -1.5254335
      vertex -3 0.5981064 -18.515995
    endloop
  endfacet
  facet normal 0 -0.3017175 -0.9533974
    outer loop
      vertex -3 0.3645649 -18.442087
      vertex -3 0.5981064 -18.515995
      vertex 0 0.5981064 -18.515995
    endloop
  endfacet
  facet normal 0 -0.3017175 -0.9533974
    outer loop
      vertex -3 0.3645649 -18.442087
      vertex 0 0.5981064 -18.515995
      vertex 0 0.3645649 -18.442087
    endloop
  endfacet
  facet normal -1 0 0
    outer loop
      vertex -3 0.3645649 1.5579119
      vertex -3 0.4827528 18.474566
      vertex -3 0.5981064 1.4840031
    endloop
  endfacet
  facet normal 0 -0.30172104 -0.95339626
    outer loop
      vertex -3 0.3645649 1.5579119
      vertex -3 0.5981064 1.4840031
      vertex 0 0.5981064 1.4840031
    endloop
  endfacet
  facet normal 0 -0.30172104 -0.95339626
    outer loop
      vertex -3 0.3645649 1.5579119
      vertex 0 0.5981064 1.4840031
      vertex 0 0.3645649 1.5579119
    endloop
  endfacet
  facet normal 0 -0.3017175 -0.9533974
    outer loop
      vertex -3 0.3645649 21.55791
      vertex -3 0.5981064 21.484003
      vertex 0 0.5981064 21.484003
    endloop
  endfacet
  facet normal -1 0 0
    outer loop
      vertex -3 0.3645649 21.55791
      vertex -3 3.921068 29.5
      vertex -3 0.5981064 21.484003
    endloop
  endfacet
  facet normal 0 -0.3017175 -0.9533974
    outer loop
      vertex -3 0.3645649 21.55791
      vertex 0 0.5981064 21.484003
      vertex 0 0.3645649 21.55791
    endloop
  endfacet
  facet normal -1 0 0
    outer loop
      vertex -3 0.4827528 -1.5254335
      vertex -3 0.7099514 -1.4338646
      vertex -3 0.5981064 -18.515995
    endloop
  endfacet
  facet normal 0 -0.22785479 0.9736951
    outer loop
      vertex -3 0.4827528 -1.5254335
      vertex 0 0.24423885 -1.5812483
      vertex 0 0.4827528 -1.5254335
    endloop
  endfacet
  facet normal 0 -0.37381595 0.9275029
    outer loop
      vertex -3 0.4827528 -1.5254335
      vertex 0 0.4827528 -1.5254335
      vertex -3 0.7099514 -1.4338646
    endloop
  endfacet
  facet normal -1 0 0
    outer loop
      vertex -3 0.4827528 -21.525433
      vertex -3 0.7099514 -21.433865
      vertex -3 3.921068 -29.5
    endloop
  endfacet
  facet normal 0 -0.22786216 0.9736934
    outer loop
      vertex -3 0.4827528 -21.525433
      vertex 0 0.24423885 -21.58125
      vertex 0 0.4827528 -21.525433
    endloop
  endfacet
  facet normal 0 -0.37381262 0.92750424
    outer loop
      vertex -3 0.4827528 -21.525433
      vertex 0 0.4827528 -21.525433
      vertex -3 0.7099514 -21.433865
    endloop
  endfacet
  facet normal -1 0 0
    outer loop
      vertex -3 0.4827528 18.474566
      vertex -3 0.7099514 18.566135
      vertex -3 0.5981064 1.4840031
    endloop
  endfacet
  facet normal 0 -0.22785479 0.9736951
    outer loop
      vertex -3 0.4827528 18.474566
      vertex 0 0.24423885 18.41875
      vertex 0 0.4827528 18.474566
    endloop
  endfacet
  facet normal 0 -0.37381932 0.92750156
    outer loop
      vertex -3 0.4827528 18.474566
      vertex 0 0.4827528 18.474566
      vertex -3 0.7099514 18.566135
    endloop
  endfacet
  facet normal -1 0 0
    outer loop
      vertex -3 0.5981064 -18.515995
      vertex -3 0.7099514 -1.4338646
      vertex -3 0.8176298 -18.624687
    endloop
  endfacet
  facet normal 0 -0.44371718 -0.89616686
    outer loop
      vertex -3 0.5981064 -18.515995
      vertex -3 0.8176298 -18.624687
      vertex 0 0.8176298 -18.624687
    endloop
  endfacet
  facet normal 0 -0.44371718 -0.89616686
    outer loop
      vertex -3 0.5981064 -18.515995
      vertex 0 0.8176298 -18.624687
      vertex 0 0.5981064 -18.515995
    endloop
  endfacet
  facet normal -1 0 0
    outer loop
      vertex -3 0.5981064 1.4840031
      vertex -3 0.7099514 18.566135
      vertex -3 0.8176298 1.3753109
    endloop
  endfacet
  facet normal 0 -0.44371718 -0.89616686
    outer loop
      vertex -3 0.5981064 1.4840031
      vertex -3 0.8176298 1.3753109
      vertex 0 0.8176298 1.3753109
    endloop
  endfacet
  facet normal 0 -0.44371718 -0.89616686
    outer loop
      vertex -3 0.5981064 1.4840031
      vertex 0 0.8176298 1.3753109
      vertex 0 0.5981064 1.4840031
    endloop
  endfacet
  facet normal 0 -0.44371718 -0.89616686
    outer loop
      vertex -3 0.5981064 21.484003
      vertex -3 0.8176298 21.37531
      vertex 0 0.8176298 21.37531
    endloop
  endfacet
  facet normal -1 0 0
    outer loop
      vertex -3 0.5981064 21.484003
      vertex -3 3.921068 29.5
      vertex -3 0.8176298 21.37531
    endloop
  endfacet
  facet normal 0 -0.44371718 -0.89616686
    outer loop
      vertex -3 0.5981064 21.484003
      vertex 0 0.8176298 21.37531
      vertex 0 0.5981064 21.484003
    endloop
  endfacet
  facet normal -1 0 0
    outer loop
      vertex -3 0.7099514 -1.4338646
      vertex -3 0.92050934 -1.3086863
      vertex -3 0.8176298 -18.624687
    endloop
  endfacet
  facet normal 0 -0.37381595 0.9275029
    outer loop
      vertex -3 0.7099514 -1.4338646
      vertex 0 0.4827528 -1.5254335
      vertex 0 0.7099514 -1.4338646
    endloop
  endfacet
  facet normal 0 -0.5110203 0.85956866
    outer loop
      vertex -3 0.7099514 -1.4338646
      vertex 0 0.7099514 -1.4338646
      vertex -3 0.92050934 -1.3086863
    endloop
  endfacet
  facet normal -1 0 0
    outer loop
      vertex -3 0.7099514 -21.433865
      vertex -3 0.92050934 -21.308685
      vertex -3 3.921068 -29.5
    endloop
  endfacet
  facet normal 0 -0.37381262 0.92750424
    outer loop
      vertex -3 0.7099514 -21.433865
      vertex 0 0.4827528 -21.525433
      vertex 0 0.7099514 -21.433865
    endloop
  endfacet
  facet normal 0 -0.51102316 0.8595669
    outer loop
      vertex -3 0.7099514 -21.433865
      vertex 0 0.7099514 -21.433865
      vertex -3 0.92050934 -21.308685
    endloop
  endfacet
  facet normal -1 0 0
    outer loop
      vertex -3 0.7099514 18.566135
      vertex -3 0.92050934 18.691313
      vertex -3 0.8176298 1.3753109
    endloop
  endfacet
  facet normal 0 -0.37381932 0.92750156
    outer loop
      vertex -3 0.7099514 18.566135
      vertex 0 0.4827528 18.474566
      vertex 0 0.7099514 18.566135
    endloop
  endfacet
  facet normal 0 -0.5110174 0.8595704
    outer loop
      vertex -3 0.7099514 18.566135
      vertex 0 0.7099514 18.566135
      vertex -3 0.92050934 18.691313
    endloop
  endfacet
  facet normal -1 0 0
    outer loop
      vertex -3 0.8176298 -18.624687
      vertex -3 0.92050934 -1.3086863
      vertex -3 1.0179873 -18.765617
    endloop
  endfacet
  facet normal 0 -0.5753239 -0.8179257
    outer loop
      vertex -3 0.8176298 -18.624687
      vertex -3 1.0179873 -18.765617
      vertex 0 1.0179873 -18.765617
    endloop
  endfacet
  facet normal 0 -0.5753239 -0.8179257
    outer loop
      vertex -3 0.8176298 -18.624687
      vertex 0 1.0179873 -18.765617
      vertex 0 0.8176298 -18.624687
    endloop
  endfacet
  facet normal -1 0 0
    outer loop
      vertex -3 0.8176298 1.3753109
      vertex -3 0.92050934 18.691313
      vertex -3 1.0179873 1.2343826
    endloop
  endfacet
  facet normal 0 -0.57531863 -0.8179294
    outer loop
      vertex -3 0.8176298 1.3753109
      vertex -3 1.0179873 1.2343826
      vertex 0 1.0179873 1.2343826
    endloop
  endfacet
  facet normal 0 -0.57531863 -0.8179294
    outer loop
      vertex -3 0.8176298 1.3753109
      vertex 0 1.0179873 1.2343826
      vertex 0 0.8176298 1.3753109
    endloop
  endfacet
  facet normal 0 -0.57531863 -0.8179294
    outer loop
      vertex -3 0.8176298 21.37531
      vertex -3 1.0179873 21.234383
      vertex 0 1.0179873 21.234383
    endloop
  endfacet
  facet normal -1 0 0
    outer loop
      vertex -3 0.8176298 21.37531
      vertex -3 3.921068 29.5
      vertex -3 1.0179873 21.234383
    endloop
  endfacet
  facet normal 0 -0.57531863 -0.8179294
    outer loop
      vertex -3 0.8176298 21.37531
      vertex 0 1.0179873 21.234383
      vertex 0 0.8176298 21.37531
    endloop
  endfacet
  facet normal -1 0 0
    outer loop
      vertex -3 0.92050934 -1.3086863
      vertex -3 1.1094913 -1.1528339
      vertex -3 1.0179873 -18.765617
    endloop
  endfacet
  facet normal 0 -0.5110203 0.85956866
    outer loop
      vertex -3 0.92050934 -1.3086863
      vertex 0 0.7099514 -1.4338646
      vertex 0 0.92050934 -1.3086863
    endloop
  endfacet
  facet normal 0 -0.63624245 0.7714892
    outer loop
      vertex -3 0.92050934 -1.3086863
      vertex 0 0.92050934 -1.3086863
      vertex -3 1.1094913 -1.1528339
    endloop
  endfacet
  facet normal -1 0 0
    outer loop
      vertex -3 0.92050934 -21.308685
      vertex -3 1.1094913 -21.152834
      vertex -3 3.921068 -29.5
    endloop
  endfacet
  facet normal 0 -0.51102316 0.8595669
    outer loop
      vertex -3 0.92050934 -21.308685
      vertex 0 0.7099514 -21.433865
      vertex 0 0.92050934 -21.308685
    endloop
  endfacet
  facet normal 0 -0.6362401 0.7714911
    outer loop
      vertex -3 0.92050934 -21.308685
      vertex 0 0.92050934 -21.308685
      vertex -3 1.1094913 -21.152834
    endloop
  endfacet
  facet normal -1 0 0
    outer loop
      vertex -3 0.92050934 18.691313
      vertex -3 1.1094913 18.847164
      vertex -3 1.0179873 1.2343826
    endloop
  endfacet
  facet normal 0 -0.5110174 0.8595704
    outer loop
      vertex -3 0.92050934 18.691313
      vertex 0 0.7099514 18.566135
      vertex 0 0.92050934 18.691313
    endloop
  endfacet
  facet normal 0 -0.6362401 0.7714911
    outer loop
      vertex -3 0.92050934 18.691313
      vertex 0 0.92050934 18.691313
      vertex -3 1.1094913 18.847164
    endloop
  endfacet
  facet normal -1 0 0
    outer loop
      vertex -3 1.0179873 -18.765617
      vertex -3 1.1094913 -1.1528339
      vertex -3 1.1944847 -18.935478
    endloop
  endfacet
  facet normal 0 -0.69343054 -0.7205235
    outer loop
      vertex -3 1.0179873 -18.765617
      vertex -3 1.1944847 -18.935478
      vertex 0 1.1944847 -18.935478
    endloop
  endfacet
  facet normal 0 -0.69343054 -0.7205235
    outer loop
      vertex -3 1.0179873 -18.765617
      vertex 0 1.1944847 -18.935478
      vertex 0 1.0179873 -18.765617
    endloop
  endfacet
  facet normal -1 0 0
    outer loop
      vertex -3 1.0179873 1.2343826
      vertex -3 1.1094913 18.847164
      vertex -3 1.1944847 1.0645208
    endloop
  endfacet
  facet normal 0 -0.69343257 -0.72052157
    outer loop
      vertex -3 1.0179873 1.2343826
      vertex -3 1.1944847 1.0645208
      vertex 0 1.1944847 1.0645208
    endloop
  endfacet
  facet normal 0 -0.69343257 -0.72052157
    outer loop
      vertex -3 1.0179873 1.2343826
      vertex 0 1.1944847 1.0645208
      vertex 0 1.0179873 1.2343826
    endloop
  endfacet
  facet normal 0 -0.69343054 -0.7205235
    outer loop
      vertex -3 1.0179873 21.234383
      vertex -3 1.1944847 21.064522
      vertex 0 1.1944847 21.064522
    endloop
  endfacet
  facet normal -1 0 0
    outer loop
      vertex -3 1.0179873 21.234383
      vertex -3 3.921068 29.5
      vertex -3 1.1944847 21.064522
    endloop
  endfacet
  facet normal 0 -0.69343054 -0.7205235
    outer loop
      vertex -3 1.0179873 21.234383
      vertex 0 1.1944847 21.064522
      vertex 0 1.0179873 21.234383
    endloop
  endfacet
  facet normal -1 0 0
    outer loop
      vertex -3 1.1094913 -1.1528339
      vertex -3 1.2724686 -0.9699602
      vertex -3 1.1944847 -18.935478
    endloop
  endfacet
  facet normal 0 -0.63624245 0.7714892
    outer loop
      vertex -3 1.1094913 -1.1528339
      vertex 0 0.92050934 -1.3086863
      vertex 0 1.1094913 -1.1528339
    endloop
  endfacet
  facet normal 0 -0.74655163 0.6653275
    outer loop
      vertex -3 1.1094913 -1.1528339
      vertex 0 1.1094913 -1.1528339
      vertex 0 1.2724686 -0.9699602
    endloop
  endfacet
  facet normal 0 -0.74655163 0.6653275
    outer loop
      vertex -3 1.1094913 -1.1528339
      vertex 0 1.2724686 -0.9699602
      vertex -3 1.2724686 -0.9699602
    endloop
  endfacet
  facet normal -1 0 0
    outer loop
      vertex -3 1.1094913 -21.152834
      vertex -3 1.2724686 -20.96996
      vertex -3 3.921068 -29.5
    endloop
  endfacet
  facet normal 0 -0.6362401 0.7714911
    outer loop
      vertex -3 1.1094913 -21.152834
      vertex 0 0.92050934 -21.308685
      vertex 0 1.1094913 -21.152834
    endloop
  endfacet
  facet normal 0 -0.74655336 0.6653255
    outer loop
      vertex -3 1.1094913 -21.152834
      vertex 0 1.1094913 -21.152834
      vertex 0 1.2724686 -20.96996
    endloop
  endfacet
  facet normal 0 -0.74655336 0.6653255
    outer loop
      vertex -3 1.1094913 -21.152834
      vertex 0 1.2724686 -20.96996
      vertex -3 1.2724686 -20.96996
    endloop
  endfacet
  facet normal -1 0 0
    outer loop
      vertex -3 1.1094913 18.847164
      vertex -3 1.2724686 19.030039
      vertex -3 1.1944847 1.0645208
    endloop
  endfacet
  facet normal 0 -0.6362401 0.7714911
    outer loop
      vertex -3 1.1094913 18.847164
      vertex 0 0.92050934 18.691313
      vertex 0 1.1094913 18.847164
    endloop
  endfacet
  facet normal 0 -0.74655336 0.6653255
    outer loop
      vertex -3 1.1094913 18.847164
      vertex 0 1.1094913 18.847164
      vertex 0 1.2724686 19.030039
    endloop
  endfacet
  facet normal 0 -0.74655336 0.6653255
    outer loop
      vertex -3 1.1094913 18.847164
      vertex 0 1.2724686 19.030039
      vertex -3 1.2724686 19.030039
    endloop
  endfacet
  facet normal -1 0 0
    outer loop
      vertex -3 1.1944847 -18.935478
      vertex -3 1.2724686 -0.9699602
      vertex -3 1.3429842 -19.130291
    endloop
  endfacet
  facet normal 0 -0.79529256 -0.60622585
    outer loop
      vertex -3 1.1944847 -18.935478
      vertex -3 1.3429842 -19.130291
      vertex 0 1.1944847 -18.935478
    endloop
  endfacet
  facet normal -1 0 0
    outer loop
      vertex -3 1.1944847 1.0645208
      vertex -3 1.2724686 19.030039
      vertex -3 1.3429842 0.86970806
    endloop
  endfacet
  facet normal 0 -0.79529256 -0.60622585
    outer loop
      vertex -3 1.1944847 1.0645208
      vertex -3 1.3429842 0.86970806
      vertex 0 1.1944847 1.0645208
    endloop
  endfacet
  facet normal 0 -0.79529256 -0.60622585
    outer loop
      vertex -3 1.1944847 21.064522
      vertex -3 1.3429842 20.869709
      vertex 0 1.1944847 21.064522
    endloop
  endfacet
  facet normal -1 0 0
    outer loop
      vertex -3 1.1944847 21.064522
      vertex -3 3.921068 29.5
      vertex -3 1.3429842 20.869709
    endloop
  endfacet
  facet normal -1 0 0
    outer loop
      vertex -3 1.2724686 -0.9699602
      vertex -3 1.4056187 -0.7643509
      vertex -3 1.3429842 -19.130291
    endloop
  endfacet
  facet normal 0 -0.83936757 0.54356426
    outer loop
      vertex -3 1.2724686 -0.9699602
      vertex 0 1.2724686 -0.9699602
      vertex 0 1.4056187 -0.7643509
    endloop
  endfacet
  facet normal 0 -0.83936757 0.54356426
    outer loop
      vertex -3 1.2724686 -0.9699602
      vertex 0 1.4056187 -0.7643509
      vertex -3 1.4056187 -0.7643509
    endloop
  endfacet
  facet normal -1 0 0
    outer loop
      vertex -3 1.2724686 -20.96996
      vertex -3 1.4056187 -20.76435
      vertex -3 3.921068 -29.5
    endloop
  endfacet
  facet normal 0 -0.83936644 0.54356605
    outer loop
      vertex -3 1.2724686 -20.96996
      vertex 0 1.2724686 -20.96996
      vertex 0 1.4056187 -20.76435
    endloop
  endfacet
  facet normal 0 -0.83936644 0.54356605
    outer loop
      vertex -3 1.2724686 -20.96996
      vertex 0 1.4056187 -20.76435
      vertex -3 1.4056187 -20.76435
    endloop
  endfacet
  facet normal -1 0 0
    outer loop
      vertex -3 1.2724686 19.030039
      vertex -3 1.4056187 19.23565
      vertex -3 1.3429842 0.86970806
    endloop
  endfacet
  facet normal 0 -0.8393687 0.5435625
    outer loop
      vertex -3 1.2724686 19.030039
      vertex 0 1.2724686 19.030039
      vertex 0 1.4056187 19.23565
    endloop
  endfacet
  facet normal 0 -0.8393687 0.5435625
    outer loop
      vertex -3 1.2724686 19.030039
      vertex 0 1.4056187 19.23565
      vertex -3 1.4056187 19.23565
    endloop
  endfacet
  facet normal -1 0 0
    outer loop
      vertex -3 1.3429842 -19.130291
      vertex -3 1.4056187 -0.7643509
      vertex -3 1.4600058 -19.34549
    endloop
  endfacet
  facet normal 0 -0.8785117 -0.47772083
    outer loop
      vertex -3 1.3429842 -19.130291
      vertex -3 1.4600058 -19.34549
      vertex 0 1.3429842 -19.130291
    endloop
  endfacet
  facet normal 0 -0.79529256 -0.60622585
    outer loop
      vertex -3 1.3429842 -19.130291
      vertex 0 1.3429842 -19.130291
      vertex 0 1.1944847 -18.935478
    endloop
  endfacet
  facet normal -1 0 0
    outer loop
      vertex -3 1.3429842 0.86970806
      vertex -3 1.4056187 19.23565
      vertex -3 1.4600058 0.65450954
    endloop
  endfacet
  facet normal 0 -0.8785117 -0.47772083
    outer loop
      vertex -3 1.3429842 0.86970806
      vertex -3 1.4600058 0.65450954
      vertex 0 1.3429842 0.86970806
    endloop
  endfacet
  facet normal 0 -0.79529256 -0.60622585
    outer loop
      vertex -3 1.3429842 0.86970806
      vertex 0 1.3429842 0.86970806
      vertex 0 1.1944847 1.0645208
    endloop
  endfacet
  facet normal 0 -0.8785117 -0.47772083
    outer loop
      vertex -3 1.3429842 20.869709
      vertex -3 1.4600058 20.65451
      vertex 0 1.3429842 20.869709
    endloop
  endfacet
  facet normal -1 0 0
    outer loop
      vertex -3 1.3429842 20.869709
      vertex -3 3.921068 29.5
      vertex -3 1.4600058 20.65451
    endloop
  endfacet
  facet normal 0 -0.79529256 -0.60622585
    outer loop
      vertex -3 1.3429842 20.869709
      vertex 0 1.3429842 20.869709
      vertex 0 1.1944847 21.064522
    endloop
  endfacet
  facet normal -1 0 0
    outer loop
      vertex -3 1.4056187 -0.7643509
      vertex -3 1.5058231 -0.5408268
      vertex -3 1.4600058 -19.34549
    endloop
  endfacet
  facet normal 0 -0.9125032 0.40906954
    outer loop
      vertex -3 1.4056187 -0.7643509
      vertex 0 1.4056187 -0.7643509
      vertex 0 1.5058231 -0.5408268
    endloop
  endfacet
  facet normal 0 -0.9125032 0.40906954
    outer loop
      vertex -3 1.4056187 -0.7643509
      vertex 0 1.5058231 -0.5408268
      vertex -3 1.5058231 -0.5408268
    endloop
  endfacet
  facet normal -1 0 0
    outer loop
      vertex -3 1.4056187 -20.76435
      vertex -3 1.5058231 -20.540827
      vertex -3 3.921068 -29.5
    endloop
  endfacet
  facet normal 0 -0.9125032 0.40906954
    outer loop
      vertex -3 1.4056187 -20.76435
      vertex 0 1.4056187 -20.76435
      vertex 0 1.5058231 -20.540827
    endloop
  endfacet
  facet normal 0 -0.9125032 0.40906954
    outer loop
      vertex -3 1.4056187 -20.76435
      vertex 0 1.5058231 -20.540827
      vertex -3 1.5058231 -20.540827
    endloop
  endfacet
  facet normal -1 0 0
    outer loop
      vertex -3 1.4056187 19.23565
      vertex -3 1.5058231 19.459171
      vertex -3 1.4600058 0.65450954
    endloop
  endfacet
  facet normal 0 -0.91250193 0.40907246
    outer loop
      vertex -3 1.4056187 19.23565
      vertex 0 1.4056187 19.23565
      vertex 0 1.5058231 19.459171
    endloop
  endfacet
  facet normal 0 -0.91250193 0.40907246
    outer loop
      vertex -3 1.4056187 19.23565
      vertex 0 1.5058231 19.459171
      vertex -3 1.5058231 19.459171
    endloop
  endfacet
  facet normal -1 0 0
    outer loop
      vertex -3 1.4600058 -19.34549
      vertex -3 1.5058231 -0.5408268
      vertex -3 1.5428047 -19.576029
    endloop
  endfacet
  facet normal 0 -0.9411411 -0.33801395
    outer loop
      vertex -3 1.4600058 -19.34549
      vertex -3 1.5428047 -19.576029
      vertex 0 1.4600058 -19.34549
    endloop
  endfacet
  facet normal 0 -0.8785117 -0.47772083
    outer loop
      vertex -3 1.4600058 -19.34549
      vertex 0 1.4600058 -19.34549
      vertex 0 1.3429842 -19.130291
    endloop
  endfacet
  facet normal -1 0 0
    outer loop
      vertex -3 1.4600058 0.65450954
      vertex -3 1.5058231 19.459171
      vertex -3 1.5428047 0.42397022
    endloop
  endfacet
  facet normal 0 -0.9411411 -0.33801395
    outer loop
      vertex -3 1.4600058 0.65450954
      vertex -3 1.5428047 0.42397022
      vertex 0 1.4600058 0.65450954
    endloop
  endfacet
  facet normal 0 -0.8785117 -0.47772083
    outer loop
      vertex -3 1.4600058 0.65450954
      vertex 0 1.4600058 0.65450954
      vertex 0 1.3429842 0.86970806
    endloop
  endfacet
  facet normal 0 -0.941142 -0.33801144
    outer loop
      vertex -3 1.4600058 20.65451
      vertex -3 1.5428047 20.42397
      vertex 0 1.4600058 20.65451
    endloop
  endfacet
  facet normal -1 0 0
    outer loop
      vertex -3 1.4600058 20.65451
      vertex -3 3.921068 29.5
      vertex -3 1.5428047 20.42397
    endloop
  endfacet
  facet normal 0 -0.8785117 -0.47772083
    outer loop
      vertex -3 1.4600058 20.65451
      vertex 0 1.4600058 20.65451
      vertex 0 1.3429842 20.869709
    endloop
  endfacet
  facet normal -1 0 0
    outer loop
      vertex -3 1.5058231 -0.5408268
      vertex -3 1.5707331 -0.3046255
      vertex -3 1.5428047 -19.576029
    endloop
  endfacet
  facet normal 0 -0.96425277 0.2649841
    outer loop
      vertex -3 1.5058231 -0.5408268
      vertex 0 1.5058231 -0.5408268
      vertex 0 1.5707331 -0.3046255
    endloop
  endfacet
  facet normal 0 -0.96425277 0.2649841
    outer loop
      vertex -3 1.5058231 -0.5408268
      vertex 0 1.5707331 -0.3046255
      vertex -3 1.5707331 -0.3046255
    endloop
  endfacet
  facet normal -1 0 0
    outer loop
      vertex -3 1.5058231 -20.540827
      vertex -3 1.5707331 -20.304626
      vertex -3 3.921068 -29.5
    endloop
  endfacet
  facet normal 0 -0.96425253 0.26498508
    outer loop
      vertex -3 1.5058231 -20.540827
      vertex 0 1.5058231 -20.540827
      vertex 0 1.5707331 -20.304626
    endloop
  endfacet
  facet normal 0 -0.96425253 0.26498508
    outer loop
      vertex -3 1.5058231 -20.540827
      vertex 0 1.5707331 -20.304626
      vertex -3 1.5707331 -20.304626
    endloop
  endfacet
  facet normal -1 0 0
    outer loop
      vertex -3 1.5058231 19.459171
      vertex -3 1.5707331 19.695374
      vertex -3 1.5428047 0.42397022
    endloop
  endfacet
  facet normal 0 -0.96425307 0.26498312
    outer loop
      vertex -3 1.5058231 19.459171
      vertex 0 1.5058231 19.459171
      vertex 0 1.5707331 19.695374
    endloop
  endfacet
  facet normal 0 -0.96425307 0.26498312
    outer loop
      vertex -3 1.5058231 19.459171
      vertex 0 1.5707331 19.695374
      vertex -3 1.5707331 19.695374
    endloop
  endfacet
  facet normal -1 0 0
    outer loop
      vertex -3 1.5428047 -19.576029
      vertex -3 1.5707331 -0.3046255
      vertex -3 1.5894432 -19.816505
    endloop
  endfacet
  facet normal 0 -0.9817077 -0.19039425
    outer loop
      vertex -3 1.5428047 -19.576029
      vertex -3 1.5894432 -19.816505
      vertex 0 1.5428047 -19.576029
    endloop
  endfacet
  facet normal 0 -0.9411411 -0.33801395
    outer loop
      vertex -3 1.5428047 -19.576029
      vertex 0 1.5428047 -19.576029
      vertex 0 1.4600058 -19.34549
    endloop
  endfacet
  facet normal -1 0 0
    outer loop
      vertex -3 1.5428047 0.42397022
      vertex -3 1.5707331 19.695374
      vertex -3 1.5894432 0.18349266
    endloop
  endfacet
  facet normal 0 -0.9817079 -0.19039352
    outer loop
      vertex -3 1.5428047 0.42397022
      vertex -3 1.5894432 0.18349266
      vertex 0 1.5428047 0.42397022
    endloop
  endfacet
  facet normal 0 -0.9411411 -0.33801395
    outer loop
      vertex -3 1.5428047 0.42397022
      vertex 0 1.5428047 0.42397022
      vertex 0 1.4600058 0.65450954
    endloop
  endfacet
  facet normal 0 -0.9817077 -0.19039425
    outer loop
      vertex -3 1.5428047 20.42397
      vertex -3 1.5894432 20.183493
      vertex 0 1.5428047 20.42397
    endloop
  endfacet
  facet normal -1 0 0
    outer loop
      vertex -3 1.5428047 20.42397
      vertex -3 3.921068 29.5
      vertex -3 1.5894432 20.183493
    endloop
  endfacet
  facet normal 0 -0.941142 -0.33801144
    outer loop
      vertex -3 1.5428047 20.42397
      vertex 0 1.5428047 20.42397
      vertex 0 1.4600058 20.65451
    endloop
  endfacet
  facet normal -1 0 0
    outer loop
      vertex -3 1.5707331 -0.3046255
      vertex -3 1.5988255 -0.061284065
      vertex -3 3.921068 -29.5
    endloop
  endfacet
  facet normal -1 0 0
    outer loop
      vertex -3 1.5707331 -0.3046255
      vertex -3 3.921068 -29.5
      vertex -3 1.5894432 -19.816505
    endloop
  endfacet
  facet normal 0 -0.9934022 0.11468262
    outer loop
      vertex -3 1.5707331 -0.3046255
      vertex 0 1.5707331 -0.3046255
      vertex 0 1.5988255 -0.061284065
    endloop
  endfacet
  facet normal 0 -0.9934022 0.11468262
    outer loop
      vertex -3 1.5707331 -0.3046255
      vertex 0 1.5988255 -0.061284065
      vertex -3 1.5988255 -0.061284065
    endloop
  endfacet
  facet normal -1 0 0
    outer loop
      vertex -3 1.5707331 -20.304626
      vertex -3 1.5988255 -20.061283
      vertex -3 3.921068 -29.5
    endloop
  endfacet
  facet normal 0 -0.9934023 0.114681736
    outer loop
      vertex -3 1.5707331 -20.304626
      vertex 0 1.5707331 -20.304626
      vertex 0 1.5988255 -20.061283
    endloop
  endfacet
  facet normal 0 -0.9934023 0.114681736
    outer loop
      vertex -3 1.5707331 -20.304626
      vertex 0 1.5988255 -20.061283
      vertex -3 1.5988255 -20.061283
    endloop
  endfacet
  facet normal -1 0 0
    outer loop
      vertex -3 1.5707331 19.695374
      vertex -3 1.5988255 19.938715
      vertex -3 3.921068 29.5
    endloop
  endfacet
  facet normal -1 0 0
    outer loop
      vertex -3 1.5707331 19.695374
      vertex -3 3.921068 29.5
      vertex -3 1.5894432 0.18349266
    endloop
  endfacet
  facet normal 0 -0.9934022 0.11468262
    outer loop
      vertex -3 1.5707331 19.695374
      vertex 0 1.5707331 19.695374
      vertex 0 1.5988255 19.938715
    endloop
  endfacet
  facet normal 0 -0.9934022 0.11468262
    outer loop
      vertex -3 1.5707331 19.695374
      vertex 0 1.5988255 19.938715
      vertex -3 1.5988255 19.938715
    endloop
  endfacet
  facet normal 0 -0.9992662 -0.038301546
    outer loop
      vertex -3 1.5894432 -19.816505
      vertex -3 1.5988255 -20.061283
      vertex 0 1.5894432 -19.816505
    endloop
  endfacet
  facet normal -1 0 0
    outer loop
      vertex -3 1.5894432 -19.816505
      vertex -3 3.921068 -29.5
      vertex -3 1.5988255 -20.061283
    endloop
  endfacet
  facet normal 0 -0.9817077 -0.19039425
    outer loop
      vertex -3 1.5894432 -19.816505
      vertex 0 1.5894432 -19.816505
      vertex 0 1.5428047 -19.576029
    endloop
  endfacet
  facet normal 0 -0.9992662 -0.038301695
    outer loop
      vertex -3 1.5894432 0.18349266
      vertex -3 1.5988255 -0.061284065
      vertex 0 1.5894432 0.18349266
    endloop
  endfacet
  facet normal -1 0 0
    outer loop
      vertex -3 1.5894432 0.18349266
      vertex -3 3.921068 29.5
      vertex -3 1.5988255 -0.061284065
    endloop
  endfacet
  facet normal 0 -0.9817079 -0.19039352
    outer loop
      vertex -3 1.5894432 0.18349266
      vertex 0 1.5894432 0.18349266
      vertex 0 1.5428047 0.42397022
    endloop
  endfacet
  facet normal 0 -0.9992662 -0.038301546
    outer loop
      vertex -3 1.5894432 20.183493
      vertex -3 1.5988255 19.938715
      vertex 0 1.5894432 20.183493
    endloop
  endfacet
  facet normal -1 0 0
    outer loop
      vertex -3 1.5894432 20.183493
      vertex -3 3.921068 29.5
      vertex -3 1.5988255 19.938715
    endloop
  endfacet
  facet normal 0 -0.9817077 -0.19039425
    outer loop
      vertex -3 1.5894432 20.183493
      vertex 0 1.5894432 20.183493
      vertex 0 1.5428047 20.42397
    endloop
  endfacet
  facet normal -1 0 0
    outer loop
      vertex -3 1.5988255 -0.061284065
      vertex -3 3.921068 29.5
      vertex -3 3.921068 -29.5
    endloop
  endfacet
  facet normal 0 -0.9992662 -0.038301695
    outer loop
      vertex -3 1.5988255 -0.061284065
      vertex 0 1.5988255 -0.061284065
      vertex 0 1.5894432 0.18349266
    endloop
  endfacet
  facet normal 0 -0.9992662 -0.038301546
    outer loop
      vertex -3 1.5988255 -20.061283
      vertex 0 1.5988255 -20.061283
      vertex 0 1.5894432 -19.816505
    endloop
  endfacet
  facet normal 0 -0.9992662 -0.038301546
    outer loop
      vertex -3 1.5988255 19.938715
      vertex 0 1.5988255 19.938715
      vertex 0 1.5894432 20.183493
    endloop
  endfacet
  facet normal 0 0 -1
    outer loop
      vertex -3 3.921068 -29.5
      vertex -2.305124 4.615944 -29.5
      vertex 0 4.5999994 -29.5
    endloop
  endfacet
  facet normal -0.70710677 0.70710677 0
    outer loop
      vertex -3 3.921068 -29.5
      vertex -2.305124 4.615944 29.5
      vertex -2.305124 4.615944 -29.5
    endloop
  endfacet
  facet normal -0.70710677 0.70710677 0
    outer loop
      vertex -3 3.921068 -29.5
      vertex -3 3.921068 29.5
      vertex -2.305124 4.615944 29.5
    endloop
  endfacet
  facet normal 0 0 1
    outer loop
      vertex -3 3.921068 29.5
      vertex 0 4.5999994 29.5
      vertex -2.305124 4.615944 29.5
    endloop
  endfacet
  facet normal 1 0 0
    outer loop
      vertex 0 -0.122478485 -18.404694
      vertex 0 0.122478485 -18.404694
      vertex 0 0 -1.5999994
    endloop
  endfacet
  facet normal 1 0 0
    outer loop
      vertex 0 -0.122478485 1.5953045
      vertex 0 0.122478485 1.5953045
      vertex 0 0 18.4
    endloop
  endfacet
  facet normal 1 0 0
    outer loop
      vertex 0 -0.122478485 21.595304
      vertex 0 0.122478485 21.595304
      vertex 0 4.5999994 29.5
    endloop
  endfacet
  facet normal 1 0 0
    outer loop
      vertex 0 -0.24423885 -1.5812483
      vertex 0 -0.122478485 -18.404694
      vertex 0 0 -1.5999994
    endloop
  endfacet
  facet normal 1 0 0
    outer loop
      vertex 0 -0.24423885 18.41875
      vertex 0 -0.122478485 1.5953045
      vertex 0 0 18.4
    endloop
  endfacet
  facet normal 1 0 0
    outer loop
      vertex 0 -0.3645649 -18.442087
      vertex 0 -0.122478485 -18.404694
      vertex 0 -0.24423885 -1.5812483
    endloop
  endfacet
  facet normal 1 0 0
    outer loop
      vertex 0 -0.3645649 1.5579119
      vertex 0 -0.122478485 1.5953045
      vertex 0 -0.24423885 18.41875
    endloop
  endfacet
  facet normal 1 0 0
    outer loop
      vertex 0 -0.4827528 -1.5254335
      vertex 0 -0.3645649 -18.442087
      vertex 0 -0.24423885 -1.5812483
    endloop
  endfacet
  facet normal 1 0 0
    outer loop
      vertex 0 -0.4827528 18.474566
      vertex 0 -0.3645649 1.5579119
      vertex 0 -0.24423885 18.41875
    endloop
  endfacet
  facet normal 1 0 0
    outer loop
      vertex 0 -0.5981064 -18.515995
      vertex 0 -0.3645649 -18.442087
      vertex 0 -0.4827528 -1.5254335
    endloop
  endfacet
  facet normal 1 0 0
    outer loop
      vertex 0 -0.5981064 1.4840031
      vertex 0 -0.3645649 1.5579119
      vertex 0 -0.4827528 18.474566
    endloop
  endfacet
  facet normal 1 0 0
    outer loop
      vertex 0 -0.7099514 -1.4338646
      vertex 0 -0.5981064 -18.515995
      vertex 0 -0.4827528 -1.5254335
    endloop
  endfacet
  facet normal 1 0 0
    outer loop
      vertex 0 -0.7099514 18.566135
      vertex 0 -0.5981064 1.4840031
      vertex 0 -0.4827528 18.474566
    endloop
  endfacet
  facet normal 1 0 0
    outer loop
      vertex 0 -0.8176298 -18.624687
      vertex 0 -0.5981064 -18.515995
      vertex 0 -0.7099514 -1.4338646
    endloop
  endfacet
  facet normal 1 0 0
    outer loop
      vertex 0 -0.8176298 1.3753109
      vertex 0 -0.5981064 1.4840031
      vertex 0 -0.7099514 18.566135
    endloop
  endfacet
  facet normal 1 0 0
    outer loop
      vertex 0 -0.92050934 -1.3086863
      vertex 0 -0.8176298 -18.624687
      vertex 0 -0.7099514 -1.4338646
    endloop
  endfacet
  facet normal 1 0 0
    outer loop
      vertex 0 -0.92050934 18.691313
      vertex 0 -0.8176298 1.3753109
      vertex 0 -0.7099514 18.566135
    endloop
  endfacet
  facet normal 1 0 0
    outer loop
      vertex 0 -1.0179873 -18.765617
      vertex 0 -0.8176298 -18.624687
      vertex 0 -0.92050934 -1.3086863
    endloop
  endfacet
  facet normal 1 0 0
    outer loop
      vertex 0 -1.0179873 1.2343826
      vertex 0 -0.8176298 1.3753109
      vertex 0 -0.92050934 18.691313
    endloop
  endfacet
  facet normal 1 0 0
    outer loop
      vertex 0 -1.1094913 -1.1528339
      vertex 0 -1.0179873 -18.765617
      vertex 0 -0.92050934 -1.3086863
    endloop
  endfacet
  facet normal 1 0 0
    outer loop
      vertex 0 -1.1094913 18.847164
      vertex 0 -1.0179873 1.2343826
      vertex 0 -0.92050934 18.691313
    endloop
  endfacet
  facet normal 1 0 0
    outer loop
      vertex 0 -1.1944847 -18.935478
      vertex 0 -1.0179873 -18.765617
      vertex 0 -1.1094913 -1.1528339
    endloop
  endfacet
  facet normal 1 0 0
    outer loop
      vertex 0 -1.1944847 1.0645208
      vertex 0 -1.0179873 1.2343826
      vertex 0 -1.1094913 18.847164
    endloop
  endfacet
  facet normal 1 0 0
    outer loop
      vertex 0 -1.2724686 -0.9699602
      vertex 0 -1.1944847 -18.935478
      vertex 0 -1.1094913 -1.1528339
    endloop
  endfacet
  facet normal 1 0 0
    outer loop
      vertex 0 -1.2724686 19.030039
      vertex 0 -1.1944847 1.0645208
      vertex 0 -1.1094913 18.847164
    endloop
  endfacet
  facet normal 1 0 0
    outer loop
      vertex 0 -1.3429842 -19.130291
      vertex 0 -1.1944847 -18.935478
      vertex 0 -1.2724686 -0.9699602
    endloop
  endfacet
  facet normal 1 0 0
    outer loop
      vertex 0 -1.3429842 0.86970806
      vertex 0 -1.1944847 1.0645208
      vertex 0 -1.2724686 19.030039
    endloop
  endfacet
  facet normal 1 0 0
    outer loop
      vertex 0 -1.4056187 -0.7643509
      vertex 0 -1.3429842 -19.130291
      vertex 0 -1.2724686 -0.9699602
    endloop
  endfacet
  facet normal 1 0 0
    outer loop
      vertex 0 -1.4056187 19.23565
      vertex 0 -1.3429842 0.86970806
      vertex 0 -1.2724686 19.030039
    endloop
  endfacet
  facet normal 1 0 0
    outer loop
      vertex 0 -1.4600058 -19.34549
      vertex 0 -1.3429842 -19.130291
      vertex 0 -1.4056187 -0.7643509
    endloop
  endfacet
  facet normal 1 0 0
    outer loop
      vertex 0 -1.4600058 0.65450954
      vertex 0 -1.3429842 0.86970806
      vertex 0 -1.4056187 19.23565
    endloop
  endfacet
  facet normal 1 0 0
    outer loop
      vertex 0 -1.5058231 -0.5408268
      vertex 0 -1.4600058 -19.34549
      vertex 0 -1.4056187 -0.7643509
    endloop
  endfacet
  facet normal 1 0 0
    outer loop
      vertex 0 -1.5058231 19.459171
      vertex 0 -1.4600058 0.65450954
      vertex 0 -1.4056187 19.23565
    endloop
  endfacet
  facet normal 1 0 0
    outer loop
      vertex 0 -1.5428047 -19.576029
      vertex 0 -1.4600058 -19.34549
      vertex 0 -1.5058231 -0.5408268
    endloop
  endfacet
  facet normal 1 0 0
    outer loop
      vertex 0 -1.5428047 0.42397022
      vertex 0 -1.4600058 0.65450954
      vertex 0 -1.5058231 19.459171
    endloop
  endfacet
  facet normal 1 0 0
    outer loop
      vertex 0 -1.5707331 -0.3046255
      vertex 0 -1.5428047 -19.576029
      vertex 0 -1.5058231 -0.5408268
    endloop
  endfacet
  facet normal 1 0 0
    outer loop
      vertex 0 -1.5707331 19.695374
      vertex 0 -1.5428047 0.42397022
      vertex 0 -1.5058231 19.459171
    endloop
  endfacet
  facet normal 1 0 0
    outer loop
      vertex 0 -1.5894432 -19.816505
      vertex 0 -1.5428047 -19.576029
      vertex 0 -1.5707331 -0.3046255
    endloop
  endfacet
  facet normal 1 0 0
    outer loop
      vertex 0 -1.5894432 0.18349266
      vertex 0 -1.5428047 0.42397022
      vertex 0 -1.5707331 19.695374
    endloop
  endfacet
  facet normal 1 0 0
    outer loop
      vertex 0 -4.5999994 -29.5
      vertex 0 -0.24423885 -21.58125
      vertex 0 -0.4827528 -21.525433
    endloop
  endfacet
  facet normal 1 0 0
    outer loop
      vertex 0 -4.5999994 -29.5
      vertex 0 -0.4827528 -21.525433
      vertex 0 -0.7099514 -21.433865
    endloop
  endfacet
  facet normal 1 0 0
    outer loop
      vertex 0 -4.5999994 -29.5
      vertex 0 -0.7099514 -21.433865
      vertex 0 -0.92050934 -21.308685
    endloop
  endfacet
  facet normal 1 0 0
    outer loop
      vertex 0 -4.5999994 -29.5
      vertex 0 -0.92050934 -21.308685
      vertex 0 -1.1094913 -21.152834
    endloop
  endfacet
  facet normal 1 0 0
    outer loop
      vertex 0 -4.5999994 -29.5
      vertex 0 -1.1094913 -21.152834
      vertex 0 -1.2724686 -20.96996
    endloop
  endfacet
  facet normal 1 0 0
    outer loop
      vertex 0 -4.5999994 -29.5
      vertex 0 -1.2724686 -20.96996
      vertex 0 -1.4056187 -20.76435
    endloop
  endfacet
  facet normal 1 0 0
    outer loop
      vertex 0 -4.5999994 -29.5
      vertex 0 -1.4056187 -20.76435
      vertex 0 -1.5058231 -20.540827
    endloop
  endfacet
  facet normal 1 0 0
    outer loop
      vertex 0 -4.5999994 -29.5
      vertex 0 -1.5058231 -20.540827
      vertex 0 -1.5707331 -20.304626
    endloop
  endfacet
  facet normal 1 0 0
    outer loop
      vertex 0 -4.5999994 -29.5
      vertex 0 -1.5707331 -0.3046255
      vertex 0 -1.5988255 -0.061284065
    endloop
  endfacet
  facet normal 1 0 0
    outer loop
      vertex 0 -4.5999994 -29.5
      vertex 0 -1.5707331 -20.304626
      vertex 0 -1.5988255 -20.061283
    endloop
  endfacet
  facet normal 1 0 0
    outer loop
      vertex 0 -4.5999994 -29.5
      vertex 0 -1.5894432 -19.816505
      vertex 0 -1.5707331 -0.3046255
    endloop
  endfacet
  facet normal 1 0 0
    outer loop
      vertex 0 -4.5999994 -29.5
      vertex 0 -1.5988255 -0.061284065
      vertex 0 -4.5999994 29.5
    endloop
  endfacet
  facet normal 1 0 0
    outer loop
      vertex 0 -4.5999994 -29.5
      vertex 0 -1.5988255 -20.061283
      vertex 0 -1.5894432 -19.816505
    endloop
  endfacet
  facet normal 0 1 0
    outer loop
      vertex 0 -4.5999994 -29.5
      vertex 0 -4.5999994 29.5
      vertex 1.5999994 -4.5999994 -29.5
    endloop
  endfacet
  facet normal 1 0 0
    outer loop
      vertex 0 -4.5999994 -29.5
      vertex 0 0 -21.599998
      vertex 0 -0.24423885 -21.58125
    endloop
  endfacet
  facet normal 1 0 0
    outer loop
      vertex 0 -4.5999994 -29.5
      vertex 0 4.5999994 -29.5
      vertex 0 0 -21.599998
    endloop
  endfacet
  facet normal 0 0 -1
    outer loop
      vertex 0 -4.5999994 -29.5
      vertex 1.5999994 -4.5999994 -29.5
      vertex 1.5999994 -7.5 -29.5
    endloop
  endfacet
  facet normal 1 0 0
    outer loop
      vertex 0 -4.5999994 29.5
      vertex 0 -0.122478485 21.595304
      vertex 0 4.5999994 29.5
    endloop
  endfacet
  facet normal 1 0 0
    outer loop
      vertex 0 -4.5999994 29.5
      vertex 0 -0.3645649 21.55791
      vertex 0 -0.122478485 21.595304
    endloop
  endfacet
  facet normal 1 0 0
    outer loop
      vertex 0 -4.5999994 29.5
      vertex 0 -0.5981064 21.484003
      vertex 0 -0.3645649 21.55791
    endloop
  endfacet
  facet normal 1 0 0
    outer loop
      vertex 0 -4.5999994 29.5
      vertex 0 -0.8176298 21.37531
      vertex 0 -0.5981064 21.484003
    endloop
  endfacet
  facet normal 1 0 0
    outer loop
      vertex 0 -4.5999994 29.5
      vertex 0 -1.0179873 21.234383
      vertex 0 -0.8176298 21.37531
    endloop
  endfacet
  facet normal 1 0 0
    outer loop
      vertex 0 -4.5999994 29.5
      vertex 0 -1.1944847 21.064522
      vertex 0 -1.0179873 21.234383
    endloop
  endfacet
  facet normal 1 0 0
    outer loop
      vertex 0 -4.5999994 29.5
      vertex 0 -1.3429842 20.869709
      vertex 0 -1.1944847 21.064522
    endloop
  endfacet
  facet normal 1 0 0
    outer loop
      vertex 0 -4.5999994 29.5
      vertex 0 -1.4600058 20.65451
      vertex 0 -1.3429842 20.869709
    endloop
  endfacet
  facet normal 1 0 0
    outer loop
      vertex 0 -4.5999994 29.5
      vertex 0 -1.5428047 20.42397
      vertex 0 -1.4600058 20.65451
    endloop
  endfacet
  facet normal 1 0 0
    outer loop
      vertex 0 -4.5999994 29.5
      vertex 0 -1.5707331 19.695374
      vertex 0 -1.5988255 19.938715
    endloop
  endfacet
  facet normal 1 0 0
    outer loop
      vertex 0 -4.5999994 29.5
      vertex 0 -1.5894432 0.18349266
      vertex 0 -1.5707331 19.695374
    endloop
  endfacet
  facet normal 1 0 0
    outer loop
      vertex 0 -4.5999994 29.5
      vertex 0 -1.5894432 20.183493
      vertex 0 -1.5428047 20.42397
    endloop
  endfacet
  facet normal 1 0 0
    outer loop
      vertex 0 -4.5999994 29.5
      vertex 0 -1.5988255 -0.061284065
      vertex 0 -1.5894432 0.18349266
    endloop
  endfacet
  facet normal 1 0 0
    outer loop
      vertex 0 -4.5999994 29.5
      vertex 0 -1.5988255 19.938715
      vertex 0 -1.5894432 20.183493
    endloop
  endfacet
  facet normal 0 1 0
    outer loop
      vertex 0 -4.5999994 29.5
      vertex 1.5999994 -4.5999994 29.5
      vertex 1.5999994 -4.5999994 -29.5
    endloop
  endfacet
  facet normal 0 0 1
    outer loop
      vertex 0 -4.5999994 29.5
      vertex 1.5999994 -7.5 29.5
      vertex 1.5999994 -4.5999994 29.5
    endloop
  endfacet
  facet normal 1 0 0
    outer loop
      vertex 0 0 -1.5999994
      vertex 0 0.122478485 -18.404694
      vertex 0 0.24423885 -1.5812483
    endloop
  endfacet
  facet normal 1 0 0
    outer loop
      vertex 0 0 -21.599998
      vertex 0 4.5999994 -29.5
      vertex 0 0.24423885 -21.58125
    endloop
  endfacet
  facet normal 1 0 0
    outer loop
      vertex 0 0 18.4
      vertex 0 0.122478485 1.5953045
      vertex 0 0.24423885 18.41875
    endloop
  endfacet
  facet normal 1 0 0
    outer loop
      vertex 0 0.122478485 -18.404694
      vertex 0 0.3645649 -18.442087
      vertex 0 0.24423885 -1.5812483
    endloop
  endfacet
  facet normal 1 0 0
    outer loop
      vertex 0 0.122478485 1.5953045
      vertex 0 0.3645649 1.5579119
      vertex 0 0.24423885 18.41875
    endloop
  endfacet
  facet normal 1 0 0
    outer loop
      vertex 0 0.122478485 21.595304
      vertex 0 0.3645649 21.55791
      vertex 0 4.5999994 29.5
    endloop
  endfacet
  facet normal 1 0 0
    outer loop
      vertex 0 0.24423885 -1.5812483
      vertex 0 0.3645649 -18.442087
      vertex 0 0.4827528 -1.5254335
    endloop
  endfacet
  facet normal 1 0 0
    outer loop
      vertex 0 0.24423885 -21.58125
      vertex 0 4.5999994 -29.5
      vertex 0 0.4827528 -21.525433
    endloop
  endfacet
  facet normal 1 0 0
    outer loop
      vertex 0 0.24423885 18.41875
      vertex 0 0.3645649 1.5579119
      vertex 0 0.4827528 18.474566
    endloop
  endfacet
  facet normal 1 0 0
    outer loop
      vertex 0 0.3645649 -18.442087
      vertex 0 0.5981064 -18.515995
      vertex 0 0.4827528 -1.5254335
    endloop
  endfacet
  facet normal 1 0 0
    outer loop
      vertex 0 0.3645649 1.5579119
      vertex 0 0.5981064 1.4840031
      vertex 0 0.4827528 18.474566
    endloop
  endfacet
  facet normal 1 0 0
    outer loop
      vertex 0 0.3645649 21.55791
      vertex 0 0.5981064 21.484003
      vertex 0 4.5999994 29.5
    endloop
  endfacet
  facet normal 1 0 0
    outer loop
      vertex 0 0.4827528 -1.5254335
      vertex 0 0.5981064 -18.515995
      vertex 0 0.7099514 -1.4338646
    endloop
  endfacet
  facet normal 1 0 0
    outer loop
      vertex 0 0.4827528 -21.525433
      vertex 0 4.5999994 -29.5
      vertex 0 0.7099514 -21.433865
    endloop
  endfacet
  facet normal 1 0 0
    outer loop
      vertex 0 0.4827528 18.474566
      vertex 0 0.5981064 1.4840031
      vertex 0 0.7099514 18.566135
    endloop
  endfacet
  facet normal 1 0 0
    outer loop
      vertex 0 0.5981064 -18.515995
      vertex 0 0.8176298 -18.624687
      vertex 0 0.7099514 -1.4338646
    endloop
  endfacet
  facet normal 1 0 0
    outer loop
      vertex 0 0.5981064 1.4840031
      vertex 0 0.8176298 1.3753109
      vertex 0 0.7099514 18.566135
    endloop
  endfacet
  facet normal 1 0 0
    outer loop
      vertex 0 0.5981064 21.484003
      vertex 0 0.8176298 21.37531
      vertex 0 4.5999994 29.5
    endloop
  endfacet
  facet normal 1 0 0
    outer loop
      vertex 0 0.7099514 -1.4338646
      vertex 0 0.8176298 -18.624687
      vertex 0 0.92050934 -1.3086863
    endloop
  endfacet
  facet normal 1 0 0
    outer loop
      vertex 0 0.7099514 -21.433865
      vertex 0 4.5999994 -29.5
      vertex 0 0.92050934 -21.308685
    endloop
  endfacet
  facet normal 1 0 0
    outer loop
      vertex 0 0.7099514 18.566135
      vertex 0 0.8176298 1.3753109
      vertex 0 0.92050934 18.691313
    endloop
  endfacet
  facet normal 1 0 0
    outer loop
      vertex 0 0.8176298 -18.624687
      vertex 0 1.0179873 -18.765617
      vertex 0 0.92050934 -1.3086863
    endloop
  endfacet
  facet normal 1 0 0
    outer loop
      vertex 0 0.8176298 1.3753109
      vertex 0 1.0179873 1.2343826
      vertex 0 0.92050934 18.691313
    endloop
  endfacet
  facet normal 1 0 0
    outer loop
      vertex 0 0.8176298 21.37531
      vertex 0 1.0179873 21.234383
      vertex 0 4.5999994 29.5
    endloop
  endfacet
  facet normal 1 0 0
    outer loop
      vertex 0 0.92050934 -1.3086863
      vertex 0 1.0179873 -18.765617
      vertex 0 1.1094913 -1.1528339
    endloop
  endfacet
  facet normal 1 0 0
    outer loop
      vertex 0 0.92050934 -21.308685
      vertex 0 4.5999994 -29.5
      vertex 0 1.1094913 -21.152834
    endloop
  endfacet
  facet normal 1 0 0
    outer loop
      vertex 0 0.92050934 18.691313
      vertex 0 1.0179873 1.2343826
      vertex 0 1.1094913 18.847164
    endloop
  endfacet
  facet normal 1 0 0
    outer loop
      vertex 0 1.0179873 -18.765617
      vertex 0 1.1944847 -18.935478
      vertex 0 1.1094913 -1.1528339
    endloop
  endfacet
  facet normal 1 0 0
    outer loop
      vertex 0 1.0179873 1.2343826
      vertex 0 1.1944847 1.0645208
      vertex 0 1.1094913 18.847164
    endloop
  endfacet
  facet normal 1 0 0
    outer loop
      vertex 0 1.0179873 21.234383
      vertex 0 1.1944847 21.064522
      vertex 0 4.5999994 29.5
    endloop
  endfacet
  facet normal 1 0 0
    outer loop
      vertex 0 1.1094913 -1.1528339
      vertex 0 1.1944847 -18.935478
      vertex 0 1.2724686 -0.9699602
    endloop
  endfacet
  facet normal 1 0 0
    outer loop
      vertex 0 1.1094913 -21.152834
      vertex 0 4.5999994 -29.5
      vertex 0 1.2724686 -20.96996
    endloop
  endfacet
  facet normal 1 0 0
    outer loop
      vertex 0 1.1094913 18.847164
      vertex 0 1.1944847 1.0645208
      vertex 0 1.2724686 19.030039
    endloop
  endfacet
  facet normal 1 0 0
    outer loop
      vertex 0 1.1944847 -18.935478
      vertex 0 1.3429842 -19.130291
      vertex 0 1.2724686 -0.9699602
    endloop
  endfacet
  facet normal 1 0 0
    outer loop
      vertex 0 1.1944847 1.0645208
      vertex 0 1.3429842 0.86970806
      vertex 0 1.2724686 19.030039
    endloop
  endfacet
  facet normal 1 0 0
    outer loop
      vertex 0 1.1944847 21.064522
      vertex 0 1.3429842 20.869709
      vertex 0 4.5999994 29.5
    endloop
  endfacet
  facet normal 1 0 0
    outer loop
      vertex 0 1.2724686 -0.9699602
      vertex 0 1.3429842 -19.130291
      vertex 0 1.4056187 -0.7643509
    endloop
  endfacet
  facet normal 1 0 0
    outer loop
      vertex 0 1.2724686 -20.96996
      vertex 0 4.5999994 -29.5
      vertex 0 1.4056187 -20.76435
    endloop
  endfacet
  facet normal 1 0 0
    outer loop
      vertex 0 1.2724686 19.030039
      vertex 0 1.3429842 0.86970806
      vertex 0 1.4056187 19.23565
    endloop
  endfacet
  facet normal 1 0 0
    outer loop
      vertex 0 1.3429842 -19.130291
      vertex 0 1.4600058 -19.34549
      vertex 0 1.4056187 -0.7643509
    endloop
  endfacet
  facet normal 1 0 0
    outer loop
      vertex 0 1.3429842 0.86970806
      vertex 0 1.4600058 0.65450954
      vertex 0 1.4056187 19.23565
    endloop
  endfacet
  facet normal 1 0 0
    outer loop
      vertex 0 1.3429842 20.869709
      vertex 0 1.4600058 20.65451
      vertex 0 4.5999994 29.5
    endloop
  endfacet
  facet normal 1 0 0
    outer loop
      vertex 0 1.4056187 -0.7643509
      vertex 0 1.4600058 -19.34549
      vertex 0 1.5058231 -0.5408268
    endloop
  endfacet
  facet normal 1 0 0
    outer loop
      vertex 0 1.4056187 -20.76435
      vertex 0 4.5999994 -29.5
      vertex 0 1.5058231 -20.540827
    endloop
  endfacet
  facet normal 1 0 0
    outer loop
      vertex 0 1.4056187 19.23565
      vertex 0 1.4600058 0.65450954
      vertex 0 1.5058231 19.459171
    endloop
  endfacet
  facet normal 1 0 0
    outer loop
      vertex 0 1.4600058 -19.34549
      vertex 0 1.5428047 -19.576029
      vertex 0 1.5058231 -0.5408268
    endloop
  endfacet
  facet normal 1 0 0
    outer loop
      vertex 0 1.4600058 0.65450954
      vertex 0 1.5428047 0.42397022
      vertex 0 1.5058231 19.459171
    endloop
  endfacet
  facet normal 1 0 0
    outer loop
      vertex 0 1.4600058 20.65451
      vertex 0 1.5428047 20.42397
      vertex 0 4.5999994 29.5
    endloop
  endfacet
  facet normal 1 0 0
    outer loop
      vertex 0 1.5058231 -0.5408268
      vertex 0 1.5428047 -19.576029
      vertex 0 1.5707331 -0.3046255
    endloop
  endfacet
  facet normal 1 0 0
    outer loop
      vertex 0 1.5058231 -20.540827
      vertex 0 4.5999994 -29.5
      vertex 0 1.5707331 -20.304626
    endloop
  endfacet
  facet normal 1 0 0
    outer loop
      vertex 0 1.5058231 19.459171
      vertex 0 1.5428047 0.42397022
      vertex 0 1.5707331 19.695374
    endloop
  endfacet
  facet normal 1 0 0
    outer loop
      vertex 0 1.5428047 -19.576029
      vertex 0 1.5894432 -19.816505
      vertex 0 1.5707331 -0.3046255
    endloop
  endfacet
  facet normal 1 0 0
    outer loop
      vertex 0 1.5428047 0.42397022
      vertex 0 1.5894432 0.18349266
      vertex 0 1.5707331 19.695374
    endloop
  endfacet
  facet normal 1 0 0
    outer loop
      vertex 0 1.5428047 20.42397
      vertex 0 1.5894432 20.183493
      vertex 0 4.5999994 29.5
    endloop
  endfacet
  facet normal 1 0 0
    outer loop
      vertex 0 1.5707331 -0.3046255
      vertex 0 1.5894432 -19.816505
      vertex 0 4.5999994 -29.5
    endloop
  endfacet
  facet normal 1 0 0
    outer loop
      vertex 0 1.5707331 -0.3046255
      vertex 0 4.5999994 -29.5
      vertex 0 1.5988255 -0.061284065
    endloop
  endfacet
  facet normal 1 0 0
    outer loop
      vertex 0 1.5707331 -20.304626
      vertex 0 4.5999994 -29.5
      vertex 0 1.5988255 -20.061283
    endloop
  endfacet
  facet normal 1 0 0
    outer loop
      vertex 0 1.5707331 19.695374
      vertex 0 1.5894432 0.18349266
      vertex 0 4.5999994 29.5
    endloop
  endfacet
  facet normal 1 0 0
    outer loop
      vertex 0 1.5707331 19.695374
      vertex 0 4.5999994 29.5
      vertex 0 1.5988255 19.938715
    endloop
  endfacet
  facet normal 1 0 0
    outer loop
      vertex 0 1.5894432 -19.816505
      vertex 0 1.5988255 -20.061283
      vertex 0 4.5999994 -29.5
    endloop
  endfacet
  facet normal 1 0 0
    outer loop
      vertex 0 1.5894432 0.18349266
      vertex 0 1.5988255 -0.061284065
      vertex 0 4.5999994 29.5
    endloop
  endfacet
  facet normal 1 0 0
    outer loop
      vertex 0 1.5894432 20.183493
      vertex 0 1.5988255 19.938715
      vertex 0 4.5999994 29.5
    endloop
  endfacet
  facet normal 1 0 0
    outer loop
      vertex 0 1.5988255 -0.061284065
      vertex 0 4.5999994 -29.5
      vertex 0 4.5999994 29.5
    endloop
  endfacet
  facet normal 0 -1 0
    outer loop
      vertex 0 4.5999994 -29.5
      vertex 1.5999994 4.5999994 -29.5
      vertex 1.5999994 4.5999994 29.5
    endloop
  endfacet
  facet normal 0 -1 0
    outer loop
      vertex 0 4.5999994 -29.5
      vertex 1.5999994 4.5999994 29.5
      vertex 0 4.5999994 29.5
    endloop
  endfacet
  facet normal 0 0 -1
    outer loop
      vertex 0 4.5999994 -29.5
      vertex 1.5999994 7.5 -29.5
      vertex 1.5999994 4.5999994 -29.5
    endloop
  endfacet
  facet normal 0 0 1
    outer loop
      vertex 0 4.5999994 29.5
      vertex 1.5999994 4.5999994 29.5
      vertex 1.5999994 7.5 29.5
    endloop
  endfacet
  facet normal 1 0 0
    outer loop
      vertex 1.5999994 -7.5 -29.5
      vertex 1.5999994 -4.5999994 -29.5
      vertex 1.5999994 -7.5 29.5
    endloop
  endfacet
  facet normal 1 0 0
    outer loop
      vertex 1.5999994 -7.5 29.5
      vertex 1.5999994 -4.5999994 -29.5
      vertex 1.5999994 -4.5999994 29.5
    endloop
  endfacet
  facet normal 1 0 0
    outer loop
      vertex 1.5999994 4.5999994 -29.5
      vertex 1.5999994 7.5 -29.5
      vertex 1.5999994 4.5999994 29.5
    endloop
  endfacet
  facet normal 1 0 0
    outer loop
      vertex 1.5999994 4.5999994 29.5
      vertex 1.5999994 7.5 -29.5
      vertex 1.5999994 7.5 29.5
    endloop
  endfacet
endsolid OpenSCAD_Model
